<svg width="100%" height="100%" viewBox="0 0 1270 1937" fill="none" xmlns="http://www.w3.org/2000/svg">
<path style="mix-blend-mode:screen" d="M1540.83 2370.06L0.00012207 829.232L9.23933 819.993L1550.07 2360.82L1540.83 2370.06Z" fill="url(#paint0_linear_26_285)"/>
<path style="mix-blend-mode:screen" d="M1562.99 2347.84L22.1604 807.008L31.3996 797.768L1572.23 2338.6L1562.99 2347.84Z" fill="url(#paint1_linear_26_285)"/>
<path style="mix-blend-mode:screen" d="M1585.14 2325.7L44.3091 784.874L53.5483 775.635L1594.38 2316.46L1585.14 2325.7Z" fill="url(#paint2_linear_26_285)"/>
<path style="mix-blend-mode:screen" d="M1607.33 2303.62L66.4971 762.796L75.7364 753.557L1616.56 2294.38L1607.33 2303.62Z" fill="url(#paint3_linear_26_285)"/>
<path style="mix-blend-mode:screen" d="M1629.45 2281.44L88.618 740.611L97.8572 731.372L1638.69 2272.2L1629.45 2281.44Z" fill="url(#paint4_linear_26_285)"/>
<path style="mix-blend-mode:screen" d="M1651.66 2259.25L110.834 718.426L120.073 709.187L1660.9 2250.01L1651.66 2259.25Z" fill="url(#paint5_linear_26_285)"/>
<path style="mix-blend-mode:screen" d="M1673.78 2237.11L132.955 696.281L142.194 687.041L1683.02 2227.87L1673.78 2237.11Z" fill="url(#paint6_linear_26_285)"/>
<path style="mix-blend-mode:screen" d="M1695.97 2214.89L155.143 674.067L164.382 664.828L1705.21 2205.66L1695.97 2214.89Z" fill="url(#paint7_linear_26_285)"/>
<path style="mix-blend-mode:screen" d="M1718.12 2192.74L177.292 651.911L186.531 642.672L1727.36 2183.5L1718.12 2192.74Z" fill="url(#paint8_linear_26_285)"/>
<path style="mix-blend-mode:screen" d="M1740.28 2170.63L199.452 629.805L208.691 620.565L1749.52 2161.39L1740.28 2170.63Z" fill="url(#paint9_linear_26_285)"/>
<path style="mix-blend-mode:screen" d="M1762.43 2148.5L221.601 607.671L230.84 598.432L1771.67 2139.26L1762.43 2148.5Z" fill="url(#paint10_linear_26_285)"/>
<path style="mix-blend-mode:screen" d="M1784.62 2126.3L243.789 585.474L253.028 576.235L1793.86 2117.06L1784.62 2126.3Z" fill="url(#paint11_linear_26_285)"/>
<path style="mix-blend-mode:screen" d="M1806.74 2104.16L265.909 563.329L275.149 554.09L1815.98 2094.92L1806.74 2104.16Z" fill="url(#paint12_linear_26_285)"/>
<path style="mix-blend-mode:screen" d="M1828.93 2081.94L288.097 541.116L297.337 531.877L1838.17 2072.7L1828.93 2081.94Z" fill="url(#paint13_linear_26_285)"/>
<path style="mix-blend-mode:screen" d="M1851.07 2059.83L310.246 518.999L319.485 509.759L1860.31 2050.59L1851.07 2059.83Z" fill="url(#paint14_linear_26_285)"/>
<path style="mix-blend-mode:screen" d="M1873.23 2037.6L332.406 496.774L341.646 487.534L1882.47 2028.36L1873.23 2037.6Z" fill="url(#paint15_linear_26_285)"/>
<path style="mix-blend-mode:screen" d="M1895.41 2015.5L354.583 474.667L363.822 465.428L1904.65 2006.26L1895.41 2015.5Z" fill="url(#paint16_linear_26_285)"/>
<path style="mix-blend-mode:screen" d="M1917.53 1993.39L376.704 452.562L385.943 443.323L1926.77 1984.15L1917.53 1993.39Z" fill="url(#paint17_linear_26_285)"/>
<path style="mix-blend-mode:screen" d="M1939.72 1971.14L398.892 430.309L408.131 421.07L1948.96 1961.9L1939.72 1971.14Z" fill="url(#paint18_linear_26_285)"/>
<path style="mix-blend-mode:screen" d="M1961.87 1949.02L421.041 408.193L430.28 398.953L1971.11 1939.78L1961.87 1949.02Z" fill="url(#paint19_linear_26_285)"/>
<path style="mix-blend-mode:screen" d="M1984.03 1926.87L443.201 386.046L452.44 376.807L1993.27 1917.64L1984.03 1926.87Z" fill="url(#paint20_linear_26_285)"/>
<path style="mix-blend-mode:screen" d="M2006.18 1904.66L465.35 363.834L474.589 354.595L2015.42 1895.42L2006.18 1904.66Z" fill="url(#paint21_linear_26_285)"/>
<path style="mix-blend-mode:screen" d="M2028.37 1882.46L487.538 341.637L496.777 332.398L2037.61 1873.23L2028.37 1882.46Z" fill="url(#paint22_linear_26_285)"/>
<path style="mix-blend-mode:screen" d="M2050.49 1860.4L509.658 319.571L518.898 310.332L2059.73 1851.16L2050.49 1860.4Z" fill="url(#paint23_linear_26_285)"/>
<path style="mix-blend-mode:screen" d="M2072.7 1838.29L531.875 297.465L541.114 288.226L2081.94 1829.05L2072.7 1838.29Z" fill="url(#paint24_linear_26_285)"/>
<path style="mix-blend-mode:screen" d="M2094.82 1816.07L553.995 275.241L563.235 266.001L2104.06 1806.83L2094.82 1816.07Z" fill="url(#paint25_linear_26_285)"/>
<path style="mix-blend-mode:screen" d="M2117.01 1793.86L576.184 253.028L585.423 243.789L2126.25 1784.62L2117.01 1793.86Z" fill="url(#paint26_linear_26_285)"/>
<path style="mix-blend-mode:screen" d="M2139.16 1771.74L598.332 230.91L607.571 221.671L2148.4 1762.5L2139.16 1771.74Z" fill="url(#paint27_linear_26_285)"/>
<path style="mix-blend-mode:screen" d="M2161.32 1749.59L620.493 208.765L629.732 199.526L2170.56 1740.35L2161.32 1749.59Z" fill="url(#paint28_linear_26_285)"/>
<path style="mix-blend-mode:screen" d="M2183.47 1727.38L642.641 186.552L651.88 177.312L2192.71 1718.14L2183.47 1727.38Z" fill="url(#paint29_linear_26_285)"/>
<path style="mix-blend-mode:screen" d="M2205.66 1705.26L664.829 164.435L674.068 155.196L2214.9 1696.02L2205.66 1705.26Z" fill="url(#paint30_linear_26_285)"/>
<path style="mix-blend-mode:screen" d="M2227.78 1683.16L686.95 142.329L696.189 133.089L2237.02 1673.92L2227.78 1683.16Z" fill="url(#paint31_linear_26_285)"/>
<path style="mix-blend-mode:screen" d="M2249.99 1660.93L709.166 120.104L718.405 110.865L2259.23 1651.69L2249.99 1660.93Z" fill="url(#paint32_linear_26_285)"/>
<path style="mix-blend-mode:screen" d="M2272.12 1638.79L731.287 97.9582L740.526 88.719L2281.35 1629.55L2272.12 1638.79Z" fill="url(#paint33_linear_26_285)"/>
<path style="mix-blend-mode:screen" d="M2294.26 1616.61L753.435 75.7853L762.675 66.5461L2303.5 1607.37L2294.26 1616.61Z" fill="url(#paint34_linear_26_285)"/>
<path style="mix-blend-mode:screen" d="M2316.45 1594.46L775.624 53.6279L784.863 44.3887L2325.69 1585.22L2316.45 1594.46Z" fill="url(#paint35_linear_26_285)"/>
<path style="mix-blend-mode:screen" d="M2338.61 1572.23L797.784 31.4037L807.023 22.1645L2347.85 1562.99L2338.61 1572.23Z" fill="url(#paint36_linear_26_285)"/>
<path style="mix-blend-mode:screen" d="M2360.76 1550.1L819.933 9.26996L829.172 0.0307463L2370 1540.86L2360.76 1550.1Z" fill="url(#paint37_linear_26_285)"/>
<defs>
<linearGradient id="paint0_linear_26_285" x1="-244.155" y1="2326.58" x2="-301.06" y2="1207.13" gradientUnits="userSpaceOnUse">
<stop stop-color="white"/>
<stop offset="1" stop-color="white" stop-opacity="0"/>
</linearGradient>
<linearGradient id="paint1_linear_26_285" x1="-221.995" y1="2304.36" x2="-278.899" y2="1184.9" gradientUnits="userSpaceOnUse">
<stop stop-color="white"/>
<stop offset="1" stop-color="white" stop-opacity="0"/>
</linearGradient>
<linearGradient id="paint2_linear_26_285" x1="-199.846" y1="2282.22" x2="-256.751" y2="1162.77" gradientUnits="userSpaceOnUse">
<stop stop-color="white"/>
<stop offset="1" stop-color="white" stop-opacity="0"/>
</linearGradient>
<linearGradient id="paint3_linear_26_285" x1="-177.666" y1="2260.15" x2="-234.576" y2="1140.69" gradientUnits="userSpaceOnUse">
<stop stop-color="white"/>
<stop offset="1" stop-color="white" stop-opacity="0"/>
</linearGradient>
<linearGradient id="paint4_linear_26_285" x1="-155.537" y1="2237.96" x2="-212.442" y2="1118.51" gradientUnits="userSpaceOnUse">
<stop stop-color="white"/>
<stop offset="1" stop-color="white" stop-opacity="0"/>
</linearGradient>
<linearGradient id="paint5_linear_26_285" x1="-133.321" y1="2215.77" x2="-190.226" y2="1096.32" gradientUnits="userSpaceOnUse">
<stop stop-color="white"/>
<stop offset="1" stop-color="white" stop-opacity="0"/>
</linearGradient>
<linearGradient id="paint6_linear_26_285" x1="-111.2" y1="2193.63" x2="-168.105" y2="1074.18" gradientUnits="userSpaceOnUse">
<stop stop-color="white"/>
<stop offset="1" stop-color="white" stop-opacity="0"/>
</linearGradient>
<linearGradient id="paint7_linear_26_285" x1="-89.0123" y1="2171.42" x2="-145.917" y2="1051.96" gradientUnits="userSpaceOnUse">
<stop stop-color="white"/>
<stop offset="1" stop-color="white" stop-opacity="0"/>
</linearGradient>
<linearGradient id="paint8_linear_26_285" x1="-66.8636" y1="2149.26" x2="-123.768" y2="1029.81" gradientUnits="userSpaceOnUse">
<stop stop-color="white"/>
<stop offset="1" stop-color="white" stop-opacity="0"/>
</linearGradient>
<linearGradient id="paint9_linear_26_285" x1="-44.7033" y1="2127.15" x2="-101.608" y2="1007.7" gradientUnits="userSpaceOnUse">
<stop stop-color="white"/>
<stop offset="1" stop-color="white" stop-opacity="0"/>
</linearGradient>
<linearGradient id="paint10_linear_26_285" x1="-22.5546" y1="2105.02" x2="-79.4592" y2="985.566" gradientUnits="userSpaceOnUse">
<stop stop-color="white"/>
<stop offset="1" stop-color="white" stop-opacity="0"/>
</linearGradient>
<linearGradient id="paint11_linear_26_285" x1="-0.366603" y1="2082.82" x2="-57.2711" y2="963.369" gradientUnits="userSpaceOnUse">
<stop stop-color="white"/>
<stop offset="1" stop-color="white" stop-opacity="0"/>
</linearGradient>
<linearGradient id="paint12_linear_26_285" x1="21.7543" y1="2060.68" x2="-35.1502" y2="941.224" gradientUnits="userSpaceOnUse">
<stop stop-color="white"/>
<stop offset="1" stop-color="white" stop-opacity="0"/>
</linearGradient>
<linearGradient id="paint13_linear_26_285" x1="43.9423" y1="2038.46" x2="-12.9622" y2="919.011" gradientUnits="userSpaceOnUse">
<stop stop-color="white"/>
<stop offset="1" stop-color="white" stop-opacity="0"/>
</linearGradient>
<linearGradient id="paint14_linear_26_285" x1="66.0828" y1="2016.36" x2="9.1728" y2="896.897" gradientUnits="userSpaceOnUse">
<stop stop-color="white"/>
<stop offset="1" stop-color="white" stop-opacity="0"/>
</linearGradient>
<linearGradient id="paint15_linear_26_285" x1="88.2513" y1="1994.12" x2="31.3468" y2="874.669" gradientUnits="userSpaceOnUse">
<stop stop-color="white"/>
<stop offset="1" stop-color="white" stop-opacity="0"/>
</linearGradient>
<linearGradient id="paint16_linear_26_285" x1="110.428" y1="1972.02" x2="53.5234" y2="852.562" gradientUnits="userSpaceOnUse">
<stop stop-color="white"/>
<stop offset="1" stop-color="white" stop-opacity="0"/>
</linearGradient>
<linearGradient id="paint17_linear_26_285" x1="132.549" y1="1949.91" x2="75.6442" y2="830.457" gradientUnits="userSpaceOnUse">
<stop stop-color="white"/>
<stop offset="1" stop-color="white" stop-opacity="0"/>
</linearGradient>
<linearGradient id="paint18_linear_26_285" x1="154.737" y1="1927.66" x2="97.8323" y2="808.204" gradientUnits="userSpaceOnUse">
<stop stop-color="white"/>
<stop offset="1" stop-color="white" stop-opacity="0"/>
</linearGradient>
<linearGradient id="paint19_linear_26_285" x1="176.885" y1="1905.54" x2="119.981" y2="786.088" gradientUnits="userSpaceOnUse">
<stop stop-color="white"/>
<stop offset="1" stop-color="white" stop-opacity="0"/>
</linearGradient>
<linearGradient id="paint20_linear_26_285" x1="199.046" y1="1883.39" x2="142.141" y2="763.941" gradientUnits="userSpaceOnUse">
<stop stop-color="white"/>
<stop offset="1" stop-color="white" stop-opacity="0"/>
</linearGradient>
<linearGradient id="paint21_linear_26_285" x1="221.194" y1="1861.18" x2="164.29" y2="741.729" gradientUnits="userSpaceOnUse">
<stop stop-color="white"/>
<stop offset="1" stop-color="white" stop-opacity="0"/>
</linearGradient>
<linearGradient id="paint22_linear_26_285" x1="243.383" y1="1838.99" x2="186.478" y2="719.532" gradientUnits="userSpaceOnUse">
<stop stop-color="white"/>
<stop offset="1" stop-color="white" stop-opacity="0"/>
</linearGradient>
<linearGradient id="paint23_linear_26_285" x1="265.503" y1="1816.92" x2="208.599" y2="697.467" gradientUnits="userSpaceOnUse">
<stop stop-color="white"/>
<stop offset="1" stop-color="white" stop-opacity="0"/>
</linearGradient>
<linearGradient id="paint24_linear_26_285" x1="287.719" y1="1794.81" x2="230.815" y2="675.36" gradientUnits="userSpaceOnUse">
<stop stop-color="white"/>
<stop offset="1" stop-color="white" stop-opacity="0"/>
</linearGradient>
<linearGradient id="paint25_linear_26_285" x1="309.832" y1="1772.6" x2="252.922" y2="653.139" gradientUnits="userSpaceOnUse">
<stop stop-color="white"/>
<stop offset="1" stop-color="white" stop-opacity="0"/>
</linearGradient>
<linearGradient id="paint26_linear_26_285" x1="332.028" y1="1750.38" x2="275.124" y2="630.923" gradientUnits="userSpaceOnUse">
<stop stop-color="white"/>
<stop offset="1" stop-color="white" stop-opacity="0"/>
</linearGradient>
<linearGradient id="paint27_linear_26_285" x1="354.177" y1="1728.26" x2="297.273" y2="608.805" gradientUnits="userSpaceOnUse">
<stop stop-color="white"/>
<stop offset="1" stop-color="white" stop-opacity="0"/>
</linearGradient>
<linearGradient id="paint28_linear_26_285" x1="376.337" y1="1706.11" x2="319.433" y2="586.66" gradientUnits="userSpaceOnUse">
<stop stop-color="white"/>
<stop offset="1" stop-color="white" stop-opacity="0"/>
</linearGradient>
<linearGradient id="paint29_linear_26_285" x1="398.486" y1="1683.9" x2="341.581" y2="564.447" gradientUnits="userSpaceOnUse">
<stop stop-color="white"/>
<stop offset="1" stop-color="white" stop-opacity="0"/>
</linearGradient>
<linearGradient id="paint30_linear_26_285" x1="420.674" y1="1661.78" x2="363.77" y2="542.33" gradientUnits="userSpaceOnUse">
<stop stop-color="white"/>
<stop offset="1" stop-color="white" stop-opacity="0"/>
</linearGradient>
<linearGradient id="paint31_linear_26_285" x1="442.795" y1="1639.68" x2="385.89" y2="520.224" gradientUnits="userSpaceOnUse">
<stop stop-color="white"/>
<stop offset="1" stop-color="white" stop-opacity="0"/>
</linearGradient>
<linearGradient id="paint32_linear_26_285" x1="465.011" y1="1617.45" x2="408.106" y2="498" gradientUnits="userSpaceOnUse">
<stop stop-color="white"/>
<stop offset="1" stop-color="white" stop-opacity="0"/>
</linearGradient>
<linearGradient id="paint33_linear_26_285" x1="487.132" y1="1595.31" x2="430.227" y2="475.853" gradientUnits="userSpaceOnUse">
<stop stop-color="white"/>
<stop offset="1" stop-color="white" stop-opacity="0"/>
</linearGradient>
<linearGradient id="paint34_linear_26_285" x1="509.28" y1="1573.13" x2="452.376" y2="453.68" gradientUnits="userSpaceOnUse">
<stop stop-color="white"/>
<stop offset="1" stop-color="white" stop-opacity="0"/>
</linearGradient>
<linearGradient id="paint35_linear_26_285" x1="531.469" y1="1550.98" x2="474.564" y2="431.523" gradientUnits="userSpaceOnUse">
<stop stop-color="white"/>
<stop offset="1" stop-color="white" stop-opacity="0"/>
</linearGradient>
<linearGradient id="paint36_linear_26_285" x1="553.629" y1="1528.75" x2="496.724" y2="409.299" gradientUnits="userSpaceOnUse">
<stop stop-color="white"/>
<stop offset="1" stop-color="white" stop-opacity="0"/>
</linearGradient>
<linearGradient id="paint37_linear_26_285" x1="575.777" y1="1506.62" x2="518.873" y2="387.165" gradientUnits="userSpaceOnUse">
<stop stop-color="white"/>
<stop offset="1" stop-color="white" stop-opacity="0"/>
</linearGradient>
</defs>
</svg>
