<svg width="100%" height="100%" viewBox="0 0 1560 2371" fill="none" xmlns="http://www.w3.org/2000/svg">
<path style="mix-blend-mode:screen" d="M19.1717 2370.03L1560 829.202L1550.76 819.962L9.93249 2360.79L19.1717 2370.03Z" fill="url(#paint0_linear_26_246)"/>
<path style="mix-blend-mode:screen" d="M-2.98858 2347.81L1537.84 806.977L1528.6 797.738L-12.2278 2338.57L-2.98858 2347.81Z" fill="url(#paint1_linear_26_246)"/>
<path style="mix-blend-mode:screen" d="M-25.1373 2325.67L1515.69 784.843L1506.45 775.604L-34.3765 2316.43L-25.1373 2325.67Z" fill="url(#paint2_linear_26_246)"/>
<path style="mix-blend-mode:screen" d="M-47.3253 2303.59L1493.5 762.765L1484.26 753.526L-56.5646 2294.35L-47.3253 2303.59Z" fill="url(#paint3_linear_26_246)"/>
<path style="mix-blend-mode:screen" d="M-69.4461 2281.41L1471.38 740.581L1462.14 731.341L-78.6853 2272.17L-69.4461 2281.41Z" fill="url(#paint4_linear_26_246)"/>
<path style="mix-blend-mode:screen" d="M-91.6622 2259.22L1449.17 718.395L1439.93 709.156L-100.901 2249.98L-91.6622 2259.22Z" fill="url(#paint5_linear_26_246)"/>
<path style="mix-blend-mode:screen" d="M-113.783 2237.08L1427.05 696.25L1417.81 687.011L-123.022 2227.84L-113.783 2237.08Z" fill="url(#paint6_linear_26_246)"/>
<path style="mix-blend-mode:screen" d="M-135.971 2214.86L1404.86 674.036L1395.62 664.797L-145.21 2205.62L-135.971 2214.86Z" fill="url(#paint7_linear_26_246)"/>
<path style="mix-blend-mode:screen" d="M-158.12 2192.71L1382.71 651.88L1373.47 642.641L-167.359 2183.47L-158.12 2192.71Z" fill="url(#paint8_linear_26_246)"/>
<path style="mix-blend-mode:screen" d="M-180.28 2170.6L1360.55 629.774L1351.31 620.535L-189.519 2161.36L-180.28 2170.6Z" fill="url(#paint9_linear_26_246)"/>
<path style="mix-blend-mode:screen" d="M-202.429 2148.47L1338.4 607.64L1329.16 598.401L-211.668 2139.23L-202.429 2148.47Z" fill="url(#paint10_linear_26_246)"/>
<path style="mix-blend-mode:screen" d="M-224.617 2126.27L1316.21 585.443L1306.97 576.204L-233.856 2117.03L-224.617 2126.27Z" fill="url(#paint11_linear_26_246)"/>
<path style="mix-blend-mode:screen" d="M-246.738 2104.13L1294.09 563.298L1284.85 554.059L-255.977 2094.89L-246.738 2104.13Z" fill="url(#paint12_linear_26_246)"/>
<path style="mix-blend-mode:screen" d="M-268.926 2081.91L1271.9 541.085L1262.66 531.846L-278.165 2072.67L-268.926 2081.91Z" fill="url(#paint13_linear_26_246)"/>
<path style="mix-blend-mode:screen" d="M-291.074 2059.8L1249.75 518.968L1240.51 509.729L-300.314 2050.56L-291.074 2059.8Z" fill="url(#paint14_linear_26_246)"/>
<path style="mix-blend-mode:screen" d="M-313.235 2037.57L1227.59 496.743L1218.35 487.504L-322.474 2028.33L-313.235 2037.57Z" fill="url(#paint15_linear_26_246)"/>
<path style="mix-blend-mode:screen" d="M-335.411 2015.46L1205.42 474.637L1196.18 465.398L-344.65 2006.23L-335.411 2015.46Z" fill="url(#paint16_linear_26_246)"/>
<path style="mix-blend-mode:screen" d="M-357.532 1993.36L1183.3 452.531L1174.06 443.292L-366.771 1984.12L-357.532 1993.36Z" fill="url(#paint17_linear_26_246)"/>
<path style="mix-blend-mode:screen" d="M-379.72 1971.11L1161.11 430.278L1151.87 421.039L-388.959 1961.87L-379.72 1971.11Z" fill="url(#paint18_linear_26_246)"/>
<path style="mix-blend-mode:screen" d="M-401.869 1948.99L1138.96 408.162L1129.72 398.923L-411.108 1939.75L-401.869 1948.99Z" fill="url(#paint19_linear_26_246)"/>
<path style="mix-blend-mode:screen" d="M-424.029 1926.84L1116.8 386.016L1107.56 376.776L-433.268 1917.6L-424.029 1926.84Z" fill="url(#paint20_linear_26_246)"/>
<path style="mix-blend-mode:screen" d="M-446.178 1904.63L1094.65 363.803L1085.41 354.564L-455.417 1895.39L-446.178 1904.63Z" fill="url(#paint21_linear_26_246)"/>
<path style="mix-blend-mode:screen" d="M-468.366 1882.43L1072.46 341.606L1063.22 332.367L-477.605 1873.2L-468.366 1882.43Z" fill="url(#paint22_linear_26_246)"/>
<path style="mix-blend-mode:screen" d="M-490.487 1860.37L1050.34 319.541L1041.1 310.302L-499.726 1851.13L-490.487 1860.37Z" fill="url(#paint23_linear_26_246)"/>
<path style="mix-blend-mode:screen" d="M-512.703 1838.26L1028.13 297.435L1018.89 288.195L-521.942 1829.02L-512.703 1838.26Z" fill="url(#paint24_linear_26_246)"/>
<path style="mix-blend-mode:screen" d="M-534.824 1816.04L1006 275.21L996.766 265.971L-544.063 1806.8L-534.824 1816.04Z" fill="url(#paint25_linear_26_246)"/>
<path style="mix-blend-mode:screen" d="M-557.012 1793.83L983.817 252.997L974.577 243.758L-566.251 1784.59L-557.012 1793.83Z" fill="url(#paint26_linear_26_246)"/>
<path style="mix-blend-mode:screen" d="M-579.16 1771.71L961.668 230.879L952.429 221.64L-588.4 1762.47L-579.16 1771.71Z" fill="url(#paint27_linear_26_246)"/>
<path style="mix-blend-mode:screen" d="M-601.321 1749.56L939.508 208.734L930.268 199.495L-610.56 1740.32L-601.321 1749.56Z" fill="url(#paint28_linear_26_246)"/>
<path style="mix-blend-mode:screen" d="M-623.469 1727.35L917.359 186.521L908.12 177.282L-632.708 1718.11L-623.469 1727.35Z" fill="url(#paint29_linear_26_246)"/>
<path style="mix-blend-mode:screen" d="M-645.657 1705.23L895.171 164.404L885.932 155.165L-654.897 1695.99L-645.657 1705.23Z" fill="url(#paint30_linear_26_246)"/>
<path style="mix-blend-mode:screen" d="M-667.778 1683.13L873.05 142.298L863.811 133.059L-677.017 1673.89L-667.778 1683.13Z" fill="url(#paint31_linear_26_246)"/>
<path style="mix-blend-mode:screen" d="M-689.994 1660.9L850.834 120.074L841.595 110.834L-699.233 1651.66L-689.994 1660.9Z" fill="url(#paint32_linear_26_246)"/>
<path style="mix-blend-mode:screen" d="M-712.115 1638.76L828.713 97.9274L819.474 88.6882L-721.354 1629.52L-712.115 1638.76Z" fill="url(#paint33_linear_26_246)"/>
<path style="mix-blend-mode:screen" d="M-734.264 1616.58L806.565 75.7545L797.326 66.5153L-743.503 1607.34L-734.264 1616.58Z" fill="url(#paint34_linear_26_246)"/>
<path style="mix-blend-mode:screen" d="M-756.452 1594.43L784.377 53.597L775.137 44.3578L-765.691 1585.19L-756.452 1594.43Z" fill="url(#paint35_linear_26_246)"/>
<path style="mix-blend-mode:screen" d="M-778.612 1572.2L762.216 31.3729L752.977 22.1337L-787.851 1562.96L-778.612 1572.2Z" fill="url(#paint36_linear_26_246)"/>
<path style="mix-blend-mode:screen" d="M-800.761 1550.07L740.068 9.23914L730.829 -7.64967e-05L-810 1540.83L-800.761 1550.07Z" fill="url(#paint37_linear_26_246)"/>
<defs>
<linearGradient id="paint0_linear_26_246" x1="1804.16" y1="2326.55" x2="1861.06" y2="1207.1" gradientUnits="userSpaceOnUse">
<stop stop-color="white"/>
<stop offset="1" stop-color="white" stop-opacity="0"/>
</linearGradient>
<linearGradient id="paint1_linear_26_246" x1="1781.99" y1="2304.33" x2="1838.9" y2="1184.87" gradientUnits="userSpaceOnUse">
<stop stop-color="white"/>
<stop offset="1" stop-color="white" stop-opacity="0"/>
</linearGradient>
<linearGradient id="paint2_linear_26_246" x1="1759.85" y1="2282.19" x2="1816.75" y2="1162.74" gradientUnits="userSpaceOnUse">
<stop stop-color="white"/>
<stop offset="1" stop-color="white" stop-opacity="0"/>
</linearGradient>
<linearGradient id="paint3_linear_26_246" x1="1737.67" y1="2260.12" x2="1794.58" y2="1140.66" gradientUnits="userSpaceOnUse">
<stop stop-color="white"/>
<stop offset="1" stop-color="white" stop-opacity="0"/>
</linearGradient>
<linearGradient id="paint4_linear_26_246" x1="1715.54" y1="2237.93" x2="1772.44" y2="1118.48" gradientUnits="userSpaceOnUse">
<stop stop-color="white"/>
<stop offset="1" stop-color="white" stop-opacity="0"/>
</linearGradient>
<linearGradient id="paint5_linear_26_246" x1="1693.32" y1="2215.74" x2="1750.23" y2="1096.29" gradientUnits="userSpaceOnUse">
<stop stop-color="white"/>
<stop offset="1" stop-color="white" stop-opacity="0"/>
</linearGradient>
<linearGradient id="paint6_linear_26_246" x1="1671.2" y1="2193.6" x2="1728.11" y2="1074.14" gradientUnits="userSpaceOnUse">
<stop stop-color="white"/>
<stop offset="1" stop-color="white" stop-opacity="0"/>
</linearGradient>
<linearGradient id="paint7_linear_26_246" x1="1649.01" y1="2171.38" x2="1705.92" y2="1051.93" gradientUnits="userSpaceOnUse">
<stop stop-color="white"/>
<stop offset="1" stop-color="white" stop-opacity="0"/>
</linearGradient>
<linearGradient id="paint8_linear_26_246" x1="1626.86" y1="2149.23" x2="1683.77" y2="1029.78" gradientUnits="userSpaceOnUse">
<stop stop-color="white"/>
<stop offset="1" stop-color="white" stop-opacity="0"/>
</linearGradient>
<linearGradient id="paint9_linear_26_246" x1="1604.7" y1="2127.12" x2="1661.61" y2="1007.67" gradientUnits="userSpaceOnUse">
<stop stop-color="white"/>
<stop offset="1" stop-color="white" stop-opacity="0"/>
</linearGradient>
<linearGradient id="paint10_linear_26_246" x1="1582.55" y1="2104.99" x2="1639.46" y2="985.535" gradientUnits="userSpaceOnUse">
<stop stop-color="white"/>
<stop offset="1" stop-color="white" stop-opacity="0"/>
</linearGradient>
<linearGradient id="paint11_linear_26_246" x1="1560.37" y1="2082.79" x2="1617.27" y2="963.338" gradientUnits="userSpaceOnUse">
<stop stop-color="white"/>
<stop offset="1" stop-color="white" stop-opacity="0"/>
</linearGradient>
<linearGradient id="paint12_linear_26_246" x1="1538.25" y1="2060.65" x2="1595.15" y2="941.193" gradientUnits="userSpaceOnUse">
<stop stop-color="white"/>
<stop offset="1" stop-color="white" stop-opacity="0"/>
</linearGradient>
<linearGradient id="paint13_linear_26_246" x1="1516.06" y1="2038.43" x2="1572.96" y2="918.98" gradientUnits="userSpaceOnUse">
<stop stop-color="white"/>
<stop offset="1" stop-color="white" stop-opacity="0"/>
</linearGradient>
<linearGradient id="paint14_linear_26_246" x1="1493.92" y1="2016.32" x2="1550.83" y2="896.867" gradientUnits="userSpaceOnUse">
<stop stop-color="white"/>
<stop offset="1" stop-color="white" stop-opacity="0"/>
</linearGradient>
<linearGradient id="paint15_linear_26_246" x1="1471.75" y1="1994.09" x2="1528.65" y2="874.638" gradientUnits="userSpaceOnUse">
<stop stop-color="white"/>
<stop offset="1" stop-color="white" stop-opacity="0"/>
</linearGradient>
<linearGradient id="paint16_linear_26_246" x1="1449.57" y1="1971.98" x2="1506.48" y2="852.532" gradientUnits="userSpaceOnUse">
<stop stop-color="white"/>
<stop offset="1" stop-color="white" stop-opacity="0"/>
</linearGradient>
<linearGradient id="paint17_linear_26_246" x1="1427.45" y1="1949.88" x2="1484.36" y2="830.426" gradientUnits="userSpaceOnUse">
<stop stop-color="white"/>
<stop offset="1" stop-color="white" stop-opacity="0"/>
</linearGradient>
<linearGradient id="paint18_linear_26_246" x1="1405.26" y1="1927.63" x2="1462.17" y2="808.174" gradientUnits="userSpaceOnUse">
<stop stop-color="white"/>
<stop offset="1" stop-color="white" stop-opacity="0"/>
</linearGradient>
<linearGradient id="paint19_linear_26_246" x1="1383.11" y1="1905.51" x2="1440.02" y2="786.057" gradientUnits="userSpaceOnUse">
<stop stop-color="white"/>
<stop offset="1" stop-color="white" stop-opacity="0"/>
</linearGradient>
<linearGradient id="paint20_linear_26_246" x1="1360.95" y1="1883.36" x2="1417.86" y2="763.911" gradientUnits="userSpaceOnUse">
<stop stop-color="white"/>
<stop offset="1" stop-color="white" stop-opacity="0"/>
</linearGradient>
<linearGradient id="paint21_linear_26_246" x1="1338.81" y1="1861.15" x2="1395.71" y2="741.698" gradientUnits="userSpaceOnUse">
<stop stop-color="white"/>
<stop offset="1" stop-color="white" stop-opacity="0"/>
</linearGradient>
<linearGradient id="paint22_linear_26_246" x1="1316.62" y1="1838.95" x2="1373.52" y2="719.501" gradientUnits="userSpaceOnUse">
<stop stop-color="white"/>
<stop offset="1" stop-color="white" stop-opacity="0"/>
</linearGradient>
<linearGradient id="paint23_linear_26_246" x1="1294.5" y1="1816.89" x2="1351.4" y2="697.436" gradientUnits="userSpaceOnUse">
<stop stop-color="white"/>
<stop offset="1" stop-color="white" stop-opacity="0"/>
</linearGradient>
<linearGradient id="paint24_linear_26_246" x1="1272.28" y1="1794.78" x2="1329.19" y2="675.33" gradientUnits="userSpaceOnUse">
<stop stop-color="white"/>
<stop offset="1" stop-color="white" stop-opacity="0"/>
</linearGradient>
<linearGradient id="paint25_linear_26_246" x1="1250.17" y1="1772.57" x2="1307.08" y2="653.109" gradientUnits="userSpaceOnUse">
<stop stop-color="white"/>
<stop offset="1" stop-color="white" stop-opacity="0"/>
</linearGradient>
<linearGradient id="paint26_linear_26_246" x1="1227.97" y1="1750.35" x2="1284.88" y2="630.892" gradientUnits="userSpaceOnUse">
<stop stop-color="white"/>
<stop offset="1" stop-color="white" stop-opacity="0"/>
</linearGradient>
<linearGradient id="paint27_linear_26_246" x1="1205.82" y1="1728.23" x2="1262.73" y2="608.774" gradientUnits="userSpaceOnUse">
<stop stop-color="white"/>
<stop offset="1" stop-color="white" stop-opacity="0"/>
</linearGradient>
<linearGradient id="paint28_linear_26_246" x1="1183.66" y1="1706.08" x2="1240.57" y2="586.629" gradientUnits="userSpaceOnUse">
<stop stop-color="white"/>
<stop offset="1" stop-color="white" stop-opacity="0"/>
</linearGradient>
<linearGradient id="paint29_linear_26_246" x1="1161.51" y1="1683.87" x2="1218.42" y2="564.416" gradientUnits="userSpaceOnUse">
<stop stop-color="white"/>
<stop offset="1" stop-color="white" stop-opacity="0"/>
</linearGradient>
<linearGradient id="paint30_linear_26_246" x1="1139.33" y1="1661.75" x2="1196.23" y2="542.299" gradientUnits="userSpaceOnUse">
<stop stop-color="white"/>
<stop offset="1" stop-color="white" stop-opacity="0"/>
</linearGradient>
<linearGradient id="paint31_linear_26_246" x1="1117.21" y1="1639.65" x2="1174.11" y2="520.193" gradientUnits="userSpaceOnUse">
<stop stop-color="white"/>
<stop offset="1" stop-color="white" stop-opacity="0"/>
</linearGradient>
<linearGradient id="paint32_linear_26_246" x1="1094.99" y1="1617.42" x2="1151.89" y2="497.969" gradientUnits="userSpaceOnUse">
<stop stop-color="white"/>
<stop offset="1" stop-color="white" stop-opacity="0"/>
</linearGradient>
<linearGradient id="paint33_linear_26_246" x1="1072.87" y1="1595.28" x2="1129.77" y2="475.822" gradientUnits="userSpaceOnUse">
<stop stop-color="white"/>
<stop offset="1" stop-color="white" stop-opacity="0"/>
</linearGradient>
<linearGradient id="paint34_linear_26_246" x1="1050.72" y1="1573.1" x2="1107.62" y2="453.65" gradientUnits="userSpaceOnUse">
<stop stop-color="white"/>
<stop offset="1" stop-color="white" stop-opacity="0"/>
</linearGradient>
<linearGradient id="paint35_linear_26_246" x1="1028.53" y1="1550.95" x2="1085.44" y2="431.492" gradientUnits="userSpaceOnUse">
<stop stop-color="white"/>
<stop offset="1" stop-color="white" stop-opacity="0"/>
</linearGradient>
<linearGradient id="paint36_linear_26_246" x1="1006.37" y1="1528.72" x2="1063.28" y2="409.268" gradientUnits="userSpaceOnUse">
<stop stop-color="white"/>
<stop offset="1" stop-color="white" stop-opacity="0"/>
</linearGradient>
<linearGradient id="paint37_linear_26_246" x1="984.223" y1="1506.59" x2="1041.13" y2="387.134" gradientUnits="userSpaceOnUse">
<stop stop-color="white"/>
<stop offset="1" stop-color="white" stop-opacity="0"/>
</linearGradient>
</defs>
</svg>
