<svg width="100%" height="100%" viewBox="0 0 1580 1755" fill="none" xmlns="http://www.w3.org/2000/svg">
<path style="mix-blend-mode:screen" d="M1540.83 -616.001L0 924.828L9.23921 934.067L1550.07 -606.762L1540.83 -616.001Z" fill="url(#paint0_linear_6_337)"/>
<path style="mix-blend-mode:screen" d="M1562.99 -593.776L22.1603 947.052L31.3996 956.291L1572.23 -584.537L1562.99 -593.776Z" fill="url(#paint1_linear_6_337)"/>
<path style="mix-blend-mode:screen" d="M1585.14 -571.642L44.309 969.186L53.5482 978.425L1594.38 -562.403L1585.14 -571.642Z" fill="url(#paint2_linear_6_337)"/>
<path style="mix-blend-mode:screen" d="M1607.33 -549.564L66.497 991.264L75.7363 1000.5L1616.56 -540.325L1607.33 -549.564Z" fill="url(#paint3_linear_6_337)"/>
<path style="mix-blend-mode:screen" d="M1629.45 -527.38L88.6179 1013.45L97.8571 1022.69L1638.69 -518.141L1629.45 -527.38Z" fill="url(#paint4_linear_6_337)"/>
<path style="mix-blend-mode:screen" d="M1651.66 -505.195L110.834 1035.63L120.073 1044.87L1660.9 -495.955L1651.66 -505.195Z" fill="url(#paint5_linear_6_337)"/>
<path style="mix-blend-mode:screen" d="M1673.78 -483.049L132.955 1057.78L142.194 1067.02L1683.02 -473.81L1673.78 -483.049Z" fill="url(#paint6_linear_6_337)"/>
<path style="mix-blend-mode:screen" d="M1695.97 -460.835L155.143 1079.99L164.382 1089.23L1705.21 -451.596L1695.97 -460.835Z" fill="url(#paint7_linear_6_337)"/>
<path style="mix-blend-mode:screen" d="M1718.12 -438.679L177.291 1102.15L186.531 1111.39L1727.36 -429.44L1718.12 -438.679Z" fill="url(#paint8_linear_6_337)"/>
<path style="mix-blend-mode:screen" d="M1740.28 -416.573L199.452 1124.26L208.691 1133.49L1749.52 -407.334L1740.28 -416.573Z" fill="url(#paint9_linear_6_337)"/>
<path style="mix-blend-mode:screen" d="M1762.43 -394.439L221.6 1146.39L230.84 1155.63L1771.67 -385.2L1762.43 -394.439Z" fill="url(#paint10_linear_6_337)"/>
<path style="mix-blend-mode:screen" d="M1784.62 -372.243L243.788 1168.59L253.028 1177.82L1793.86 -363.003L1784.62 -372.243Z" fill="url(#paint11_linear_6_337)"/>
<path style="mix-blend-mode:screen" d="M1806.74 -350.097L265.909 1190.73L275.149 1199.97L1815.98 -340.858L1806.74 -350.097Z" fill="url(#paint12_linear_6_337)"/>
<path style="mix-blend-mode:screen" d="M1828.93 -327.884L288.097 1212.94L297.337 1222.18L1838.16 -318.645L1828.93 -327.884Z" fill="url(#paint13_linear_6_337)"/>
<path style="mix-blend-mode:screen" d="M1851.07 -305.767L310.246 1235.06L319.485 1244.3L1860.31 -296.528L1851.07 -305.767Z" fill="url(#paint14_linear_6_337)"/>
<path style="mix-blend-mode:screen" d="M1873.23 -283.542L332.406 1257.29L341.646 1266.53L1882.47 -274.303L1873.23 -283.542Z" fill="url(#paint15_linear_6_337)"/>
<path style="mix-blend-mode:screen" d="M1895.41 -261.436L354.583 1279.39L363.822 1288.63L1904.65 -252.197L1895.41 -261.436Z" fill="url(#paint16_linear_6_337)"/>
<path style="mix-blend-mode:screen" d="M1917.53 -239.331L376.704 1301.5L385.943 1310.74L1926.77 -230.091L1917.53 -239.331Z" fill="url(#paint17_linear_6_337)"/>
<path style="mix-blend-mode:screen" d="M1939.72 -217.078L398.892 1323.75L408.131 1332.99L1948.96 -207.838L1939.72 -217.078Z" fill="url(#paint18_linear_6_337)"/>
<path style="mix-blend-mode:screen" d="M1961.87 -194.961L421.04 1345.87L430.28 1355.11L1971.11 -185.722L1961.87 -194.961Z" fill="url(#paint19_linear_6_337)"/>
<path style="mix-blend-mode:screen" d="M1984.03 -172.815L443.201 1368.01L452.44 1377.25L1993.27 -163.576L1984.03 -172.815Z" fill="url(#paint20_linear_6_337)"/>
<path style="mix-blend-mode:screen" d="M2006.18 -150.603L465.349 1390.23L474.589 1399.46L2015.42 -141.363L2006.18 -150.603Z" fill="url(#paint21_linear_6_337)"/>
<path style="mix-blend-mode:screen" d="M2028.37 -128.405L487.538 1412.42L496.777 1421.66L2037.61 -119.166L2028.37 -128.405Z" fill="url(#paint22_linear_6_337)"/>
<path style="mix-blend-mode:screen" d="M2050.49 -106.34L509.658 1434.49L518.898 1443.73L2059.73 -97.1008L2050.49 -106.34Z" fill="url(#paint23_linear_6_337)"/>
<path style="mix-blend-mode:screen" d="M2072.7 -84.2338L531.874 1456.59L541.114 1465.83L2081.94 -74.9946L2072.7 -84.2338Z" fill="url(#paint24_linear_6_337)"/>
<path style="mix-blend-mode:screen" d="M2094.82 -62.0092L553.995 1478.82L563.235 1488.06L2104.06 -52.7699L2094.82 -62.0092Z" fill="url(#paint25_linear_6_337)"/>
<path style="mix-blend-mode:screen" d="M2117.01 -39.7963L576.184 1501.03L585.423 1510.27L2126.25 -30.5571L2117.01 -39.7963Z" fill="url(#paint26_linear_6_337)"/>
<path style="mix-blend-mode:screen" d="M2139.16 -17.6786L598.332 1523.15L607.571 1532.39L2148.4 -8.43942L2139.16 -17.6786Z" fill="url(#paint27_linear_6_337)"/>
<path style="mix-blend-mode:screen" d="M2161.32 4.46639L620.492 1545.29L629.732 1554.53L2170.56 13.7056L2161.32 4.46639Z" fill="url(#paint28_linear_6_337)"/>
<path style="mix-blend-mode:screen" d="M2183.47 26.6798L642.641 1567.51L651.88 1576.75L2192.71 35.919L2183.47 26.6798Z" fill="url(#paint29_linear_6_337)"/>
<path style="mix-blend-mode:screen" d="M2205.66 48.7967L664.829 1589.62L674.068 1598.86L2214.9 58.0359L2205.66 48.7967Z" fill="url(#paint30_linear_6_337)"/>
<path style="mix-blend-mode:screen" d="M2227.78 70.9029L686.95 1611.73L696.189 1620.97L2237.02 80.1421L2227.78 70.9029Z" fill="url(#paint31_linear_6_337)"/>
<path style="mix-blend-mode:screen" d="M2249.99 93.127L709.166 1633.96L718.405 1643.19L2259.23 102.366L2249.99 93.127Z" fill="url(#paint32_linear_6_337)"/>
<path style="mix-blend-mode:screen" d="M2272.12 115.273L731.287 1656.1L740.526 1665.34L2281.35 124.512L2272.12 115.273Z" fill="url(#paint33_linear_6_337)"/>
<path style="mix-blend-mode:screen" d="M2294.26 137.446L753.435 1678.27L762.675 1687.51L2303.5 146.685L2294.26 137.446Z" fill="url(#paint34_linear_6_337)"/>
<path style="mix-blend-mode:screen" d="M2316.45 159.604L775.624 1700.43L784.863 1709.67L2325.69 168.843L2316.45 159.604Z" fill="url(#paint35_linear_6_337)"/>
<path style="mix-blend-mode:screen" d="M2338.61 181.828L797.784 1722.66L807.023 1731.9L2347.85 191.067L2338.61 181.828Z" fill="url(#paint36_linear_6_337)"/>
<path style="mix-blend-mode:screen" d="M2360.76 203.962L819.932 1744.79L829.172 1754.03L2370 213.201L2360.76 203.962Z" fill="url(#paint37_linear_6_337)"/>
<defs>
<linearGradient id="paint0_linear_6_337" x1="-244.155" y1="-572.521" x2="-301.06" y2="546.932" gradientUnits="userSpaceOnUse">
<stop stop-color="white"/>
<stop offset="1" stop-color="white" stop-opacity="0"/>
</linearGradient>
<linearGradient id="paint1_linear_6_337" x1="-221.995" y1="-550.296" x2="-278.899" y2="569.157" gradientUnits="userSpaceOnUse">
<stop stop-color="white"/>
<stop offset="1" stop-color="white" stop-opacity="0"/>
</linearGradient>
<linearGradient id="paint2_linear_6_337" x1="-199.846" y1="-528.162" x2="-256.751" y2="591.291" gradientUnits="userSpaceOnUse">
<stop stop-color="white"/>
<stop offset="1" stop-color="white" stop-opacity="0"/>
</linearGradient>
<linearGradient id="paint3_linear_6_337" x1="-177.666" y1="-506.093" x2="-234.576" y2="613.365" gradientUnits="userSpaceOnUse">
<stop stop-color="white"/>
<stop offset="1" stop-color="white" stop-opacity="0"/>
</linearGradient>
<linearGradient id="paint4_linear_6_337" x1="-155.537" y1="-483.9" x2="-212.442" y2="635.553" gradientUnits="userSpaceOnUse">
<stop stop-color="white"/>
<stop offset="1" stop-color="white" stop-opacity="0"/>
</linearGradient>
<linearGradient id="paint5_linear_6_337" x1="-133.321" y1="-461.714" x2="-190.226" y2="657.739" gradientUnits="userSpaceOnUse">
<stop stop-color="white"/>
<stop offset="1" stop-color="white" stop-opacity="0"/>
</linearGradient>
<linearGradient id="paint6_linear_6_337" x1="-111.201" y1="-439.569" x2="-168.105" y2="679.884" gradientUnits="userSpaceOnUse">
<stop stop-color="white"/>
<stop offset="1" stop-color="white" stop-opacity="0"/>
</linearGradient>
<linearGradient id="paint7_linear_6_337" x1="-89.0126" y1="-417.355" x2="-145.917" y2="702.098" gradientUnits="userSpaceOnUse">
<stop stop-color="white"/>
<stop offset="1" stop-color="white" stop-opacity="0"/>
</linearGradient>
<linearGradient id="paint8_linear_6_337" x1="-66.8638" y1="-395.199" x2="-123.768" y2="724.254" gradientUnits="userSpaceOnUse">
<stop stop-color="white"/>
<stop offset="1" stop-color="white" stop-opacity="0"/>
</linearGradient>
<linearGradient id="paint9_linear_6_337" x1="-44.7035" y1="-373.093" x2="-101.608" y2="746.36" gradientUnits="userSpaceOnUse">
<stop stop-color="white"/>
<stop offset="1" stop-color="white" stop-opacity="0"/>
</linearGradient>
<linearGradient id="paint10_linear_6_337" x1="-22.5549" y1="-350.959" x2="-79.4593" y2="768.494" gradientUnits="userSpaceOnUse">
<stop stop-color="white"/>
<stop offset="1" stop-color="white" stop-opacity="0"/>
</linearGradient>
<linearGradient id="paint11_linear_6_337" x1="-0.366821" y1="-328.763" x2="-57.2712" y2="790.691" gradientUnits="userSpaceOnUse">
<stop stop-color="white"/>
<stop offset="1" stop-color="white" stop-opacity="0"/>
</linearGradient>
<linearGradient id="paint12_linear_6_337" x1="21.7541" y1="-306.617" x2="-35.1504" y2="812.836" gradientUnits="userSpaceOnUse">
<stop stop-color="white"/>
<stop offset="1" stop-color="white" stop-opacity="0"/>
</linearGradient>
<linearGradient id="paint13_linear_6_337" x1="43.9421" y1="-284.404" x2="-12.9623" y2="835.049" gradientUnits="userSpaceOnUse">
<stop stop-color="white"/>
<stop offset="1" stop-color="white" stop-opacity="0"/>
</linearGradient>
<linearGradient id="paint14_linear_6_337" x1="66.0826" y1="-262.295" x2="9.17268" y2="857.162" gradientUnits="userSpaceOnUse">
<stop stop-color="white"/>
<stop offset="1" stop-color="white" stop-opacity="0"/>
</linearGradient>
<linearGradient id="paint15_linear_6_337" x1="88.2511" y1="-240.062" x2="31.3466" y2="879.391" gradientUnits="userSpaceOnUse">
<stop stop-color="white"/>
<stop offset="1" stop-color="white" stop-opacity="0"/>
</linearGradient>
<linearGradient id="paint16_linear_6_337" x1="110.428" y1="-217.956" x2="53.5233" y2="901.497" gradientUnits="userSpaceOnUse">
<stop stop-color="white"/>
<stop offset="1" stop-color="white" stop-opacity="0"/>
</linearGradient>
<linearGradient id="paint17_linear_6_337" x1="132.549" y1="-195.851" x2="75.6441" y2="923.603" gradientUnits="userSpaceOnUse">
<stop stop-color="white"/>
<stop offset="1" stop-color="white" stop-opacity="0"/>
</linearGradient>
<linearGradient id="paint18_linear_6_337" x1="154.737" y1="-173.598" x2="97.8321" y2="945.856" gradientUnits="userSpaceOnUse">
<stop stop-color="white"/>
<stop offset="1" stop-color="white" stop-opacity="0"/>
</linearGradient>
<linearGradient id="paint19_linear_6_337" x1="176.885" y1="-151.481" x2="119.981" y2="967.972" gradientUnits="userSpaceOnUse">
<stop stop-color="white"/>
<stop offset="1" stop-color="white" stop-opacity="0"/>
</linearGradient>
<linearGradient id="paint20_linear_6_337" x1="199.046" y1="-129.335" x2="142.141" y2="990.118" gradientUnits="userSpaceOnUse">
<stop stop-color="white"/>
<stop offset="1" stop-color="white" stop-opacity="0"/>
</linearGradient>
<linearGradient id="paint21_linear_6_337" x1="221.194" y1="-107.123" x2="164.29" y2="1012.33" gradientUnits="userSpaceOnUse">
<stop stop-color="white"/>
<stop offset="1" stop-color="white" stop-opacity="0"/>
</linearGradient>
<linearGradient id="paint22_linear_6_337" x1="243.382" y1="-84.9253" x2="186.478" y2="1034.53" gradientUnits="userSpaceOnUse">
<stop stop-color="white"/>
<stop offset="1" stop-color="white" stop-opacity="0"/>
</linearGradient>
<linearGradient id="paint23_linear_6_337" x1="265.503" y1="-62.8599" x2="208.599" y2="1056.59" gradientUnits="userSpaceOnUse">
<stop stop-color="white"/>
<stop offset="1" stop-color="white" stop-opacity="0"/>
</linearGradient>
<linearGradient id="paint24_linear_6_337" x1="287.719" y1="-40.7537" x2="230.815" y2="1078.7" gradientUnits="userSpaceOnUse">
<stop stop-color="white"/>
<stop offset="1" stop-color="white" stop-opacity="0"/>
</linearGradient>
<linearGradient id="paint25_linear_6_337" x1="309.832" y1="-18.5373" x2="252.922" y2="1100.92" gradientUnits="userSpaceOnUse">
<stop stop-color="white"/>
<stop offset="1" stop-color="white" stop-opacity="0"/>
</linearGradient>
<linearGradient id="paint26_linear_6_337" x1="332.028" y1="3.68375" x2="275.124" y2="1123.14" gradientUnits="userSpaceOnUse">
<stop stop-color="white"/>
<stop offset="1" stop-color="white" stop-opacity="0"/>
</linearGradient>
<linearGradient id="paint27_linear_6_337" x1="354.177" y1="25.8014" x2="297.272" y2="1145.25" gradientUnits="userSpaceOnUse">
<stop stop-color="white"/>
<stop offset="1" stop-color="white" stop-opacity="0"/>
</linearGradient>
<linearGradient id="paint28_linear_6_337" x1="376.337" y1="47.9465" x2="319.433" y2="1167.4" gradientUnits="userSpaceOnUse">
<stop stop-color="white"/>
<stop offset="1" stop-color="white" stop-opacity="0"/>
</linearGradient>
<linearGradient id="paint29_linear_6_337" x1="398.486" y1="70.1598" x2="341.581" y2="1189.61" gradientUnits="userSpaceOnUse">
<stop stop-color="white"/>
<stop offset="1" stop-color="white" stop-opacity="0"/>
</linearGradient>
<linearGradient id="paint30_linear_6_337" x1="420.674" y1="92.2768" x2="363.769" y2="1211.73" gradientUnits="userSpaceOnUse">
<stop stop-color="white"/>
<stop offset="1" stop-color="white" stop-opacity="0"/>
</linearGradient>
<linearGradient id="paint31_linear_6_337" x1="442.795" y1="114.383" x2="385.89" y2="1233.84" gradientUnits="userSpaceOnUse">
<stop stop-color="white"/>
<stop offset="1" stop-color="white" stop-opacity="0"/>
</linearGradient>
<linearGradient id="paint32_linear_6_337" x1="465.011" y1="136.607" x2="408.106" y2="1256.06" gradientUnits="userSpaceOnUse">
<stop stop-color="white"/>
<stop offset="1" stop-color="white" stop-opacity="0"/>
</linearGradient>
<linearGradient id="paint33_linear_6_337" x1="487.132" y1="158.753" x2="430.227" y2="1278.21" gradientUnits="userSpaceOnUse">
<stop stop-color="white"/>
<stop offset="1" stop-color="white" stop-opacity="0"/>
</linearGradient>
<linearGradient id="paint34_linear_6_337" x1="509.28" y1="180.926" x2="452.376" y2="1300.38" gradientUnits="userSpaceOnUse">
<stop stop-color="white"/>
<stop offset="1" stop-color="white" stop-opacity="0"/>
</linearGradient>
<linearGradient id="paint35_linear_6_337" x1="531.468" y1="203.084" x2="474.564" y2="1322.54" gradientUnits="userSpaceOnUse">
<stop stop-color="white"/>
<stop offset="1" stop-color="white" stop-opacity="0"/>
</linearGradient>
<linearGradient id="paint36_linear_6_337" x1="553.629" y1="225.308" x2="496.724" y2="1344.76" gradientUnits="userSpaceOnUse">
<stop stop-color="white"/>
<stop offset="1" stop-color="white" stop-opacity="0"/>
</linearGradient>
<linearGradient id="paint37_linear_6_337" x1="575.777" y1="247.442" x2="518.873" y2="1366.89" gradientUnits="userSpaceOnUse">
<stop stop-color="white"/>
<stop offset="1" stop-color="white" stop-opacity="0"/>
</linearGradient>
</defs>
</svg>
