<svg width="24" height="24" viewBox="0 0 24 24" fill="none" xmlns="http://www.w3.org/2000/svg">
<rect x="2.375" y="2.375" width="19.25" height="19.25" rx="3.625" stroke="white" stroke-width="0.75"/>
<g clip-path="url(#clip0_184_196)">
<path d="M10.0811 9.42055V11.6028H8.04875H7.67989L7.6738 11.9716L7.62505 14.9283L7.61877 15.3095H8H10.0804V21.8648V22.183L10.3944 22.2348C10.9576 22.3276 11.5334 22.375 12.1209 22.375C12.5812 22.375 13.0366 22.3463 13.4843 22.2864L13.8096 22.2429V21.9147V15.3095H15.5863H15.9125L15.9577 14.9864L16.3707 12.0297L16.4304 11.6028H15.9993H13.8096V10.5751H13.8102V10.2001C13.8102 9.84703 13.9217 9.57789 14.0887 9.39849C14.2543 9.22068 14.4983 9.10493 14.817 9.09843C14.817 9.09843 14.8171 9.09843 14.8171 9.09843L16.0072 9.07555L16.375 9.06848V8.70062V6.21761V5.92111L16.0865 5.85272C14.0473 5.36927 12.5378 5.69539 11.5301 6.46053C10.5289 7.22063 10.0811 8.37132 10.0811 9.42055Z" stroke="white" stroke-width="0.75"/>
</g>
<defs>
<clipPath id="clip0_184_196">
<rect width="12" height="17" fill="white" transform="translate(6 5)"/>
</clipPath>
</defs>
</svg>
