<svg width="100%" height="100%" viewBox="0 0 202 439" fill="none" xmlns="http://www.w3.org/2000/svg">
<path d="M66 187.768L133.553 187.768L99.7762 125.179L66 187.768Z" fill="#3CDC8C"/>
<path d="M134.105 312.918L201.658 312.918L167.881 250.357L134.105 312.918Z" fill="#55F6A6"/>
<path d="M0.532125 312.918L68.0847 312.918L34.3084 250.357L0.532125 312.918Z" fill="#55F6A6"/>
<path d="M134.105 438.096L167.881 375.507L100.329 375.507L134.105 438.096Z" fill="#23C473"/>
<path d="M100.288 375.225L134.064 312.635L66.5119 312.635L100.288 375.225Z" fill="#23C473"/>
<path d="M32.776 -2.95282e-06L66.5523 62.5893L100.329 0L32.776 -2.95282e-06Z" fill="#1FAD66"/>
<path d="M167.881 125.178L201.658 62.5891L134.105 62.5891L167.881 125.178Z" fill="#23C473"/>
<path d="M201.658 187.768L134.105 187.768L167.881 250.357L201.658 187.768Z" fill="#55F6A6"/>
</svg>
