<svg width="100%" height="100%" viewBox="0 0 304 188" fill="none" xmlns="http://www.w3.org/2000/svg">
<path d="M67.5398 125.178L33.7635 62.5891L-0.012782 125.178L67.5398 125.178Z" fill="#23C473"/>
<path d="M100.748 63.4809L66.9713 0.8916L33.195 63.4809L100.748 63.4809Z" fill="#23C473"/>
<path d="M-0.0127792 125.178L33.7635 187.768L67.5398 125.178L-0.0127792 125.178Z" fill="#1FAD66"/>
<path d="M67.3925 125.178L101.169 187.768L134.945 125.178L67.3925 125.178Z" fill="#B6FBD9"/>
<path d="M33.195 63.4807L66.9712 126.07L100.748 63.4807L33.195 63.4807Z" fill="#1FAD66"/>
<path d="M236.447 187.768L304 187.768L270.224 125.178L236.447 187.768Z" fill="#3CDC8C"/>
<path d="M168.869 62.5891L135.092 125.178L202.645 125.178L168.869 62.5891Z" fill="#3CDC8C"/>
<path d="M134.481 0.8916L100.705 63.4809L168.257 63.4809L134.481 0.8916Z" fill="#3CDC8C"/>
<path d="M202.645 125.178L270.224 125.178L236.448 62.5889L202.645 125.178Z" fill="#23C473"/>
</svg>
