<svg width="100%" height="100%" viewBox="0 0 266 376" fill="none" xmlns="http://www.w3.org/2000/svg">
<path d="M202.658 250.357L236.434 312.946L270.211 250.357L202.658 250.357Z" fill="#23C473"/>
<path d="M169.278 187.355L203.054 249.944L236.83 187.355L169.278 187.355Z" fill="#1FAD66"/>
<path d="M135.105 125.178L101.329 62.5891L67.5528 125.178L135.105 125.178Z" fill="#23C473"/>
<path d="M168.313 63.4809L134.537 0.8916L100.761 63.4809L168.313 63.4809Z" fill="#23C473"/>
<path d="M67.5528 125.178L101.329 187.768L135.105 125.178L67.5528 125.178Z" fill="#1FAD66"/>
<path d="M134.958 125.178L168.734 187.768L202.511 125.178L134.958 125.178Z" fill="#B6FBD9"/>
<path d="M100.761 63.4808L134.537 126.07L168.313 63.4808L100.761 63.4808Z" fill="#1FAD66"/>
<path d="M67.5525 0.000213623L-0.0001297 0.00021067L33.7762 62.5895L67.5525 0.000213623Z" fill="#1FAD66"/>
<path d="M236.434 312.946L304.013 312.946L270.21 250.357L236.434 312.946Z" fill="#3CDC8C"/>
<path d="M33.7761 62.5893L101.329 62.5893L67.5523 -3.1994e-05L33.7761 62.5893Z" fill="#23C473"/>
<path d="M236.434 62.589L202.658 125.178L270.211 125.178L236.434 62.589Z" fill="#3CDC8C"/>
<path d="M202.047 0.8916L168.27 63.4809L235.823 63.4809L202.047 0.8916Z" fill="#3CDC8C"/>
</svg>
