<svg width="100%" height="100%" viewBox="0 0 608 688" fill="none" xmlns="http://www.w3.org/2000/svg">
<path d="M337.524 688L270.449 688L303.987 625.864L337.524 688Z" fill="#3CDC8C"/>
<path d="M540.447 563.275L574.224 625.864L506.671 625.864L540.447 563.275Z" fill="#55F6A6"/>
<path d="M574.224 500.686L540.447 563.275L506.671 500.686L574.224 500.686Z" fill="#1FAD66"/>
<path d="M608 563.275L540.447 563.275L574.223 500.686L608 563.275Z" fill="#23C473"/>
<path d="M608 187.768L574.224 250.357L540.447 187.768L608 187.768Z" fill="#3CDC8C"/>
<path d="M405.342 563.275L371.566 625.864L337.789 563.275L405.342 563.275Z" fill="#23C473"/>
<path d="M472.895 563.275L439.118 625.864L405.342 563.275L472.895 563.275Z" fill="#1FAD66"/>
<path d="M438.722 500.273L404.946 562.862L371.169 500.273L438.722 500.273Z" fill="#1FAD66"/>
<path d="M506.671 250.357L574.224 250.357L540.447 312.918L506.671 250.357Z" fill="#B6FBD9"/>
<path d="M372.177 250.357L439.73 250.357L405.953 312.918L372.177 250.357Z" fill="#B6FBD9"/>
<path d="M472.894 438.096L506.671 375.507L540.447 438.096L472.894 438.096Z" fill="#23C473"/>
<path d="M439.687 376.399L473.463 313.81L507.239 376.399L439.687 376.399Z" fill="#23C473"/>
<path d="M338.926 312.807L372.702 250.218L406.479 312.807L338.926 312.807Z" fill="#23C473"/>
<path d="M540.447 438.096L506.671 500.686L472.894 438.096L540.447 438.096Z" fill="#1FAD66"/>
<path d="M473.042 438.096L439.265 500.686L405.489 438.096L473.042 438.096Z" fill="#B6FBD9"/>
<path d="M507.239 376.399L473.463 438.988L439.687 376.399L507.239 376.399Z" fill="#1FAD66"/>
<path d="M270.21 563.275L236.434 625.864L202.658 563.275L270.21 563.275Z" fill="#3CDC8C"/>
<path d="M303.987 500.686L270.211 563.275L236.434 500.686L303.987 500.686Z" fill="#3CDC8C"/>
<path d="M303.987 500.686L236.434 500.686L270.211 438.096L303.987 500.686Z" fill="#3CDC8C"/>
<path d="M202.657 563.275L168.881 625.864L135.105 563.275L202.657 563.275Z" fill="#3CDC8C"/>
<path d="M540.447 312.918L608 312.918L574.224 375.508L540.447 312.918Z" fill="#1FAD66"/>
<path d="M371.566 625.864L303.987 625.864L337.789 563.275L371.566 625.864Z" fill="#3CDC8C"/>
<path d="M101.329 625.864L67.791 688L67.3138 688L33.7761 625.864L101.329 625.864Z" fill="#1FAD66"/>
<path d="M202.657 563.275L135.105 563.275L168.881 500.686L202.657 563.275Z" fill="#23C473"/>
<path d="M472.894 187.768L506.671 250.357L439.118 250.357L472.894 187.768Z" fill="#23C473"/>
<path d="M574.224 375.507L506.671 375.507L540.447 312.918L574.224 375.507Z" fill="#23C473"/>
<path d="M506.671 625.864L439.118 625.864L472.894 563.275L506.671 625.864Z" fill="#55F6A6"/>
<path d="M67.5525 438.096L33.7762 500.686L-4.19617e-05 438.096L67.5525 438.096Z" fill="#3CDC8C"/>
<path d="M202.657 187.768L135.105 187.768L168.881 125.179L202.657 187.768Z" fill="#3CDC8C"/>
<path d="M67.5526 312.918L-3.9227e-05 312.918L33.7762 250.357L67.5526 312.918Z" fill="#55F6A6"/>
<path d="M201.125 312.918L133.573 312.918L167.349 250.357L201.125 312.918Z" fill="#55F6A6"/>
<path d="M439.118 0L506.671 -2.95282e-06L472.894 62.5893L439.118 0Z" fill="#55F6A6"/>
<path d="M506.671 -1.47641e-06L540.447 62.5893L472.894 62.5893L506.671 -1.47641e-06Z" fill="#1FAD66"/>
<path d="M135.105 438.096L101.329 500.686L67.5524 438.096L135.105 438.096Z" fill="#23C473"/>
<path d="M67.5524 438.096L33.7761 375.507L101.329 375.507L67.5524 438.096Z" fill="#23C473"/>
<path d="M101.369 375.225L67.5931 312.635L135.146 312.635L101.369 375.225Z" fill="#23C473"/>
<path d="M371.566 125.179L337.789 187.768L303.986 125.179L371.566 125.179Z" fill="#23C473"/>
<path d="M608 62.5891L574.223 125.178L540.447 62.5891L608 62.5891Z" fill="#23C473"/>
<path d="M371.566 375.507L405.342 438.096L337.789 438.096L371.566 375.507Z" fill="#3CDC8C"/>
<path d="M405.953 313.81L439.73 376.399L372.177 376.399L405.953 313.81Z" fill="#3CDC8C"/>
<path d="M337.789 438.096L270.21 438.096L303.987 375.507L337.789 438.096Z" fill="#23C473"/>
<path d="M101.329 500.686L33.7761 500.686L67.5524 438.096L101.329 500.686Z" fill="#23C473"/>
<path d="M168.882 -2.95282e-06L135.105 62.5893L101.329 0L168.882 -2.95282e-06Z" fill="#1FAD66"/>
<path d="M303.987 -2.95282e-06L270.21 62.5893L236.434 0L303.987 -2.95282e-06Z" fill="#B6FBD9"/>
<path d="M135.105 62.5891L202.657 62.5891L168.881 125.178L135.105 62.5891Z" fill="#55F6A6"/>
<path d="M33.7762 125.178L-4.19617e-05 62.5891L67.5525 62.5891L33.7762 125.178Z" fill="#23C473"/>
<path d="M303.986 125.179L337.789 187.768L270.21 187.768L303.986 125.179Z" fill="#1FAD66"/>
<path d="M270.21 187.768L303.987 250.357L236.434 250.357L270.21 187.768Z" fill="#23C473"/>
<path d="M-4.19617e-05 187.768L67.5525 187.768L33.7762 250.357L-4.19617e-05 187.768Z" fill="#55F6A6"/>
</svg>
