<svg width="100%" height="100%" viewBox="0 0 495 612" fill="none" xmlns="http://www.w3.org/2000/svg">
<path d="M82.6578 534.901L41.4684 611.227L123.847 611.227L82.6578 534.901Z" fill="#55F6A6"/>
<path d="M41.4684 458.575L82.6578 534.901L123.847 458.575L41.4684 458.575Z" fill="#1FAD66"/>
<path d="M0.278843 534.901L82.6577 534.901L41.4683 458.575L0.278843 534.901Z" fill="#23C473"/>
<path d="M0.278603 76.9783L41.4681 153.304L82.6575 76.9783L0.278603 76.9783Z" fill="#3CDC8C"/>
<path d="M247.416 534.901L288.605 611.227L329.795 534.901L247.416 534.901Z" fill="#23C473"/>
<path d="M165.037 534.901L206.226 611.227L247.416 534.901L165.037 534.901Z" fill="#1FAD66"/>
<path d="M206.71 458.071L247.899 534.397L289.089 458.071L206.71 458.071Z" fill="#1FAD66"/>
<path d="M123.847 153.305L41.4684 153.305L82.6578 229.596L123.847 153.305Z" fill="#B6FBD9"/>
<path d="M287.86 153.305L205.481 153.305L246.67 229.596L287.86 153.305Z" fill="#B6FBD9"/>
<path d="M165.037 382.248L123.848 305.922L82.6583 382.248L165.037 382.248Z" fill="#23C473"/>
<path d="M205.533 307.01L164.344 230.684L123.154 307.01L205.533 307.01Z" fill="#23C473"/>
<path d="M328.409 229.461L287.219 153.135L246.03 229.461L328.409 229.461Z" fill="#23C473"/>
<path d="M82.6583 382.248L123.848 458.575L165.037 382.248L82.6583 382.248Z" fill="#1FAD66"/>
<path d="M164.858 382.248L206.047 458.575L247.236 382.248L164.858 382.248Z" fill="#B6FBD9"/>
<path d="M123.154 307.01L164.344 383.336L205.533 307.01L123.154 307.01Z" fill="#1FAD66"/>
<path d="M412.206 534.901L453.395 611.227L494.585 534.901L412.206 534.901Z" fill="#3CDC8C"/>
<path d="M371.016 458.575L412.205 534.901L453.395 458.575L371.016 458.575Z" fill="#3CDC8C"/>
<path d="M371.016 458.575L453.395 458.575L412.205 382.248L371.016 458.575Z" fill="#3CDC8C"/>
<path d="M82.6575 229.597L0.278603 229.597L41.4681 305.923L82.6575 229.597Z" fill="#1FAD66"/>
<path d="M288.605 611.227L371.016 611.227L329.795 534.901L288.605 611.227Z" fill="#3CDC8C"/>
<path d="M165.037 76.9783L123.847 153.304L206.226 153.304L165.037 76.9783Z" fill="#23C473"/>
<path d="M41.4684 305.923L123.847 305.923L82.6578 229.596L41.4684 305.923Z" fill="#23C473"/>
<path d="M123.848 611.227L206.227 611.227L165.037 534.901L123.848 611.227Z" fill="#55F6A6"/>
<path d="M288.605 0.652584L329.795 76.9788L371.016 0.652588L288.605 0.652584Z" fill="#23C473"/>
<path d="M288.606 305.922L247.416 382.248L329.795 382.248L288.606 305.922Z" fill="#3CDC8C"/>
<path d="M246.67 230.684L205.481 307.01L287.86 307.01L246.67 230.684Z" fill="#3CDC8C"/>
<path d="M329.794 382.248L412.206 382.248L371.016 305.922L329.794 382.248Z" fill="#23C473"/>
<path d="M371.016 0.652586L329.795 76.9788L412.206 76.9788L371.016 0.652586Z" fill="#1FAD66"/>
<path d="M412.206 76.9783L371.016 153.304L453.395 153.304L412.206 76.9783Z" fill="#23C473"/>
</svg>
