<svg width="24" height="24" viewBox="0 0 24 24" fill="none" xmlns="http://www.w3.org/2000/svg">
<path d="M20.1029 4.09399H3.89712C2.41008 4.09399 1.2 5.30407 1.2 6.79135V17.2088C1.2 18.6961 2.41008 19.9062 3.89712 19.9062H20.1026C21.5899 19.9062 22.8 18.6961 22.8 17.2088V6.79135C22.8 5.30407 21.5899 4.09399 20.1029 4.09399ZM3.89712 4.85791H20.1026C20.4833 4.85791 20.8373 4.96975 21.1366 5.16055L13.421 12.4477C12.6372 13.1876 11.3626 13.1876 10.5792 12.4477L2.86344 5.16055C3.16272 4.96975 3.51672 4.85791 3.89712 4.85791ZM22.0358 17.2088C22.0358 18.2746 21.169 19.142 20.1026 19.142H3.89712C2.83128 19.142 1.96392 18.2749 1.96392 17.2088V6.79135C1.96392 6.38167 2.09256 6.00247 2.31048 5.68951L10.0548 13.003C10.5907 13.5097 11.2954 13.7631 11.9998 13.7631C12.7042 13.7631 13.409 13.5097 13.945 13.003L21.689 5.68951C21.907 6.00271 22.0356 6.38167 22.0356 6.79135V17.2088H22.0358Z" fill="white"/>
</svg>
