<svg width="24" height="24" viewBox="0 0 24 24" fill="none" xmlns="http://www.w3.org/2000/svg">
<path d="M15.569 22.7996C16.5689 22.7986 17.5104 22.4096 18.2208 21.703C20.7401 19.1844 18.8758 17.2287 17.9794 16.2886C17.1763 15.4476 16.0426 14.882 15.487 14.8815C14.7761 14.8815 14.3047 15.1947 13.8888 15.4707C13.5516 15.6946 13.2852 15.8715 12.9346 15.8715C12.2887 15.8715 11.3458 15.242 10.0517 13.9472C7.60536 11.5011 8.01288 10.8872 8.52864 10.11C8.80464 9.69412 9.11736 9.22276 9.11736 8.51188C9.11736 7.95628 8.55192 6.82228 7.71024 6.0202C6.88392 5.23204 5.96496 4.50244 4.84632 4.50244C3.98856 4.50244 3.15432 4.9198 2.29512 5.779C1.58904 6.48844 1.2 7.4302 1.2 8.43076C1.2 12.996 11.0035 22.7991 15.569 22.7996ZM2.83608 6.319C3.54408 5.611 4.20168 5.26684 4.84632 5.26684C5.7384 5.26684 6.52008 5.94124 7.18272 6.5734C7.99296 7.34596 8.35296 8.28532 8.35296 8.51212C8.35296 8.99236 8.13912 9.31468 7.89144 9.68764C7.14888 10.8075 6.82992 11.8071 9.51096 14.4881C10.9961 15.9732 12.0518 16.6354 12.9346 16.6354C13.5156 16.6354 13.9385 16.3548 14.3112 16.1076C14.6844 15.8597 15.0065 15.6461 15.4862 15.6461C15.7128 15.6461 16.6524 16.0066 17.4262 16.8168C18.6096 18.0579 19.5194 19.3236 17.6806 21.162C17.1154 21.7248 16.3654 22.0347 15.5688 22.0352C13.6807 22.0352 10.3987 19.969 7.2084 16.7715C4.02288 13.5788 1.96464 10.3049 1.9644 8.43076C1.96464 7.63372 2.27424 6.88348 2.83608 6.319Z" fill="white"/>
<path d="M8.9796 3.67565C12.1598 1.17725 16.787 1.43117 19.6769 4.32149C22.5768 7.22141 22.824 11.858 20.3066 15.0404C20.1754 15.2057 20.1914 15.4464 20.3508 15.5854C20.5097 15.7239 20.7521 15.7078 20.8836 15.5429C23.6633 12.0579 23.4002 6.96389 20.2178 3.78125C17.0453 0.608925 11.9616 0.338446 8.4792 3.09725C8.31384 3.22829 8.29656 3.47045 8.4348 3.63005C8.57304 3.78965 8.81376 3.80621 8.9796 3.67565Z" fill="white"/>
<path d="M17.3486 12.5734C17.5174 12.7001 17.7586 12.667 17.8714 12.4887C18.3346 11.7547 18.5772 10.9138 18.5772 10.0342C18.5772 9.84387 18.5654 9.65211 18.5424 9.46515C18.2585 7.15971 16.2905 5.42139 13.9644 5.42139C13.0903 5.42139 12.2542 5.66163 11.5234 6.11955C11.3443 6.23163 11.3105 6.47259 11.4367 6.64155C11.563 6.81075 11.8015 6.84363 11.9822 6.73467C12.5789 6.37467 13.2566 6.18579 13.9644 6.18555C15.9053 6.18555 17.5471 7.63563 17.7835 9.55875C17.803 9.71499 17.8128 9.87483 17.8128 10.0339C17.8128 10.7463 17.622 11.4281 17.2577 12.0271C17.148 12.2076 17.1802 12.4464 17.3486 12.5734Z" fill="white"/>
</svg>
