<svg width="100%" height="100%" viewBox="0 0 593 617" fill="none" xmlns="http://www.w3.org/2000/svg">
<path d="M593 133.445L535.543 190.977L478.085 133.445L535.543 75.9135L593 133.445ZM535.543 171.787L573.835 133.445L535.543 95.1033L497.25 133.445L535.543 171.787Z" fill="#C4233E"/>
<path d="M416.937 601.158L306.39 490.475L416.937 379.785L527.485 490.475L416.937 601.166L416.937 601.158ZM338.515 490.467L416.937 568.991L495.36 490.467L416.937 411.944L338.515 490.467Z" fill="#FBB6C2"/>
<path d="M131.797 427.853L74.3392 485.385L16.8816 427.853L74.3392 370.321L131.797 427.853ZM74.3392 466.195L112.632 427.853L74.3392 389.511L36.0467 427.853L74.3392 466.195Z" fill="#C4233E"/>
<path d="M276.494 616.992L149.756 490.098L276.494 363.196L403.232 490.098L276.494 617L276.494 616.992ZM186.58 490.098L276.494 580.128L366.408 490.098L276.494 400.068L186.58 490.098Z" fill="#6C1322"/>
<path d="M36 240L275.5 2.85601e-06L515 240L275.5 480L36 240ZM275.5 69.7397L105.587 240L275.5 410.26L445.406 240L275.5 69.7397Z" fill="#DC3C57"/>
<g style="mix-blend-mode:overlay">
<g style="mix-blend-mode:overlay">
<g style="mix-blend-mode:overlay">
<path d="M451.172 367.177C451.172 366.282 450.448 365.556 449.553 365.556C448.659 365.556 447.934 366.282 447.934 367.177C447.934 368.073 448.659 368.799 449.553 368.799C450.448 368.799 451.172 368.073 451.172 367.177Z" fill="#FBB6C2"/>
</g>
<g style="mix-blend-mode:overlay">
<path d="M464.659 352.052C465.292 352.685 465.292 353.711 464.659 354.344C464.027 354.977 463.003 354.977 462.37 354.344C461.738 353.711 461.738 352.685 462.37 352.052C463.003 351.418 464.027 351.418 464.659 352.052Z" fill="#FBB6C2"/>
</g>
<g style="mix-blend-mode:overlay">
<path d="M479.088 339.226C479.088 338.33 478.363 337.605 477.469 337.605C476.575 337.605 475.85 338.33 475.85 339.226C475.85 340.121 476.575 340.847 477.469 340.847C478.363 340.847 479.088 340.121 479.088 339.226Z" fill="#FBB6C2"/>
</g>
<g style="mix-blend-mode:overlay">
<path d="M493.049 325.246C493.049 324.351 492.325 323.625 491.43 323.625C490.536 323.625 489.811 324.351 489.811 325.246C489.811 326.142 490.536 326.867 491.43 326.867C492.325 326.867 493.049 326.142 493.049 325.246Z" fill="#FBB6C2"/>
</g>
<g style="mix-blend-mode:overlay">
<path d="M506.529 310.128C507.162 310.761 507.162 311.787 506.529 312.42C505.896 313.054 504.872 313.054 504.24 312.42C503.607 311.787 503.607 310.761 504.24 310.128C504.872 309.495 505.896 309.495 506.529 310.128Z" fill="#FBB6C2"/>
</g>
<g style="mix-blend-mode:overlay">
<path d="M520.957 297.295C520.957 296.399 520.232 295.673 519.338 295.673C518.444 295.673 517.719 296.399 517.719 297.295C517.719 298.19 518.444 298.916 519.338 298.916C520.232 298.916 520.957 298.19 520.957 297.295Z" fill="#FBB6C2"/>
</g>
</g>
<g style="mix-blend-mode:overlay">
<g style="mix-blend-mode:overlay">
<path d="M462.687 378.035C463.319 378.669 463.319 379.694 462.687 380.328C462.054 380.961 461.03 380.961 460.397 380.328C459.765 379.694 459.765 378.669 460.397 378.035C461.03 377.402 462.054 377.402 462.687 378.035Z" fill="#FBB6C2"/>
</g>
<g style="mix-blend-mode:overlay">
<path d="M477.122 365.202C477.122 364.307 476.398 363.581 475.503 363.581C474.609 363.581 473.884 364.307 473.884 365.202C473.884 366.097 474.609 366.823 475.503 366.823C476.398 366.823 477.122 366.097 477.122 365.202Z" fill="#FBB6C2"/>
</g>
<g style="mix-blend-mode:overlay">
<path d="M491.076 351.23C491.076 350.334 490.352 349.609 489.457 349.609C488.563 349.609 487.838 350.334 487.838 351.23C487.838 352.125 488.563 352.851 489.457 352.851C490.352 352.851 491.076 352.125 491.076 351.23Z" fill="#FBB6C2"/>
</g>
<g style="mix-blend-mode:overlay">
<path d="M504.563 336.104C505.196 336.737 505.196 337.763 504.563 338.396C503.931 339.03 502.907 339.03 502.274 338.396C501.642 337.763 501.642 336.737 502.274 336.104C502.907 335.471 503.931 335.471 504.563 336.104Z" fill="#FBB6C2"/>
</g>
<g style="mix-blend-mode:overlay">
<path d="M518.992 323.278C518.992 322.383 518.267 321.657 517.373 321.657C516.479 321.657 515.754 322.383 515.754 323.278C515.754 324.174 516.479 324.899 517.373 324.899C518.267 324.899 518.992 324.174 518.992 323.278Z" fill="#FBB6C2"/>
</g>
<g style="mix-blend-mode:overlay">
<path d="M532.479 308.153C533.112 308.786 533.112 309.811 532.479 310.445C531.846 311.078 530.822 311.078 530.19 310.445C529.557 309.811 529.557 308.786 530.19 308.153C530.822 307.519 531.846 307.519 532.479 308.153Z" fill="#FBB6C2"/>
</g>
</g>
<g style="mix-blend-mode:overlay">
<g style="mix-blend-mode:overlay">
<path d="M475.149 391.185C475.149 390.29 474.425 389.564 473.53 389.564C472.636 389.564 471.911 390.29 471.911 391.185C471.911 392.081 472.636 392.807 473.53 392.807C474.425 392.807 475.149 392.081 475.149 391.185Z" fill="#FBB6C2"/>
</g>
<g style="mix-blend-mode:overlay">
<path d="M489.111 377.206C489.111 376.311 488.386 375.585 487.492 375.585C486.598 375.585 485.873 376.311 485.873 377.206C485.873 378.101 486.598 378.827 487.492 378.827C488.386 378.827 489.111 378.101 489.111 377.206Z" fill="#FBB6C2"/>
</g>
<g style="mix-blend-mode:overlay">
<path d="M503.065 363.234C503.065 362.338 502.34 361.613 501.446 361.613C500.552 361.613 499.827 362.338 499.827 363.234C499.827 364.129 500.552 364.855 501.446 364.855C502.34 364.855 503.065 364.129 503.065 363.234Z" fill="#FBB6C2"/>
</g>
<g style="mix-blend-mode:overlay">
<path d="M517.026 349.254C517.026 348.359 516.302 347.633 515.407 347.633C514.513 347.633 513.788 348.359 513.788 349.254C513.788 350.15 514.513 350.875 515.407 350.875C516.302 350.875 517.026 350.15 517.026 349.254Z" fill="#FBB6C2"/>
</g>
<g style="mix-blend-mode:overlay">
<path d="M530.506 334.136C531.139 334.77 531.139 335.795 530.506 336.428C529.874 337.062 528.849 337.062 528.217 336.428C527.584 335.795 527.584 334.77 528.217 334.136C528.849 333.503 529.874 333.503 530.506 334.136Z" fill="#FBB6C2"/>
</g>
<g style="mix-blend-mode:overlay">
<path d="M544.942 321.303C544.942 320.407 544.217 319.681 543.323 319.681C542.429 319.681 541.704 320.407 541.704 321.303C541.704 322.198 542.429 322.924 543.323 322.924C544.217 322.924 544.942 322.198 544.942 321.303Z" fill="#FBB6C2"/>
</g>
</g>
<g style="mix-blend-mode:overlay">
<g style="mix-blend-mode:overlay">
<path d="M486.664 402.043C487.296 402.677 487.296 403.702 486.664 404.336C486.031 404.969 485.007 404.969 484.374 404.336C483.742 403.702 483.742 402.677 484.374 402.043C485.007 401.41 486.031 401.41 486.664 402.043Z" fill="#FBB6C2"/>
</g>
<g style="mix-blend-mode:overlay">
<path d="M501.099 389.21C501.099 388.315 500.375 387.589 499.48 387.589C498.586 387.589 497.861 388.315 497.861 389.21C497.861 390.105 498.586 390.831 499.48 390.831C500.375 390.831 501.099 390.105 501.099 389.21Z" fill="#FBB6C2"/>
</g>
<g style="mix-blend-mode:overlay">
<path d="M515.054 375.238C515.054 374.343 514.329 373.617 513.434 373.617C512.54 373.617 511.815 374.343 511.815 375.238C511.815 376.133 512.54 376.859 513.434 376.859C514.329 376.859 515.054 376.133 515.054 375.238Z" fill="#FBB6C2"/>
</g>
<g style="mix-blend-mode:overlay">
<path d="M529.015 361.258C529.015 360.363 528.29 359.637 527.396 359.637C526.502 359.637 525.777 360.363 525.777 361.258C525.777 362.154 526.502 362.88 527.396 362.88C528.29 362.88 529.015 362.154 529.015 361.258Z" fill="#FBB6C2"/>
</g>
<g style="mix-blend-mode:overlay">
<path d="M542.969 347.286C542.969 346.391 542.244 345.665 541.35 345.665C540.456 345.665 539.731 346.391 539.731 347.286C539.731 348.182 540.456 348.907 541.35 348.907C542.244 348.907 542.969 348.182 542.969 347.286Z" fill="#FBB6C2"/>
</g>
<g style="mix-blend-mode:overlay">
<path d="M556.456 332.161C557.089 332.794 557.089 333.819 556.456 334.453C555.823 335.086 554.799 335.086 554.167 334.453C553.534 333.819 553.534 332.794 554.167 332.161C554.799 331.527 555.823 331.527 556.456 332.161Z" fill="#FBB6C2"/>
</g>
</g>
<g style="mix-blend-mode:overlay">
<g style="mix-blend-mode:overlay">
<path d="M499.127 415.194C499.127 414.298 498.402 413.572 497.507 413.572C496.613 413.572 495.888 414.298 495.888 415.194C495.888 416.089 496.613 416.815 497.507 416.815C498.402 416.815 499.127 416.089 499.127 415.194Z" fill="#FBB6C2"/>
</g>
<g style="mix-blend-mode:overlay">
<path d="M513.088 401.214C513.088 400.319 512.363 399.593 511.469 399.593C510.575 399.593 509.85 400.319 509.85 401.214C509.85 402.109 510.575 402.835 511.469 402.835C512.363 402.835 513.088 402.109 513.088 401.214Z" fill="#FBB6C2"/>
</g>
<g style="mix-blend-mode:overlay">
<path d="M527.042 387.242C527.042 386.347 526.317 385.621 525.423 385.621C524.529 385.621 523.804 386.347 523.804 387.242C523.804 388.137 524.529 388.863 525.423 388.863C526.317 388.863 527.042 388.137 527.042 387.242Z" fill="#FBB6C2"/>
</g>
<g style="mix-blend-mode:overlay">
<path d="M541.004 373.27C541.004 372.375 540.279 371.649 539.384 371.649C538.49 371.649 537.765 372.375 537.765 373.27C537.765 374.165 538.49 374.891 539.384 374.891C540.279 374.891 541.004 374.165 541.004 373.27Z" fill="#FBB6C2"/>
</g>
<g style="mix-blend-mode:overlay">
<path d="M554.483 358.144C555.116 358.778 555.116 359.803 554.483 360.436C553.851 361.07 552.826 361.07 552.194 360.436C551.561 359.803 551.561 358.778 552.194 358.144C552.826 357.511 553.851 357.511 554.483 358.144Z" fill="#FBB6C2"/>
</g>
<g style="mix-blend-mode:overlay">
<path d="M568.919 345.318C568.919 344.423 568.194 343.697 567.3 343.697C566.406 343.697 565.681 344.423 565.681 345.318C565.681 346.214 566.406 346.939 567.3 346.939C568.194 346.939 568.919 346.214 568.919 345.318Z" fill="#FBB6C2"/>
</g>
</g>
<g style="mix-blend-mode:overlay">
<g style="mix-blend-mode:overlay">
<path d="M510.648 426.051C511.281 426.685 511.281 427.71 510.648 428.344C510.016 428.977 508.992 428.977 508.359 428.344C507.726 427.71 507.726 426.685 508.359 426.051C508.992 425.418 510.016 425.418 510.648 426.051Z" fill="#FBB6C2"/>
</g>
<g style="mix-blend-mode:overlay">
<path d="M525.077 413.226C525.077 412.33 524.352 411.604 523.458 411.604C522.563 411.604 521.839 412.33 521.839 413.226C521.839 414.121 522.563 414.847 523.458 414.847C524.352 414.847 525.077 414.121 525.077 413.226Z" fill="#FBB6C2"/>
</g>
<g style="mix-blend-mode:overlay">
<path d="M539.031 399.246C539.031 398.351 538.306 397.625 537.412 397.625C536.517 397.625 535.792 398.351 535.792 399.246C535.792 400.141 536.517 400.867 537.412 400.867C538.306 400.867 539.031 400.141 539.031 399.246Z" fill="#FBB6C2"/>
</g>
<g style="mix-blend-mode:overlay">
<path d="M552.992 385.274C552.992 384.379 552.267 383.653 551.373 383.653C550.479 383.653 549.754 384.379 549.754 385.274C549.754 386.169 550.479 386.895 551.373 386.895C552.267 386.895 552.992 386.169 552.992 385.274Z" fill="#FBB6C2"/>
</g>
<g style="mix-blend-mode:overlay">
<path d="M566.946 371.294C566.946 370.399 566.221 369.673 565.327 369.673C564.433 369.673 563.708 370.399 563.708 371.294C563.708 372.19 564.433 372.916 565.327 372.916C566.221 372.916 566.946 372.19 566.946 371.294Z" fill="#FBB6C2"/>
</g>
<g style="mix-blend-mode:overlay">
<path d="M580.433 356.176C581.066 356.81 581.066 357.835 580.433 358.468C579.801 359.102 578.777 359.102 578.144 358.468C577.511 357.835 577.511 356.81 578.144 356.176C578.777 355.543 579.801 355.543 580.433 356.176Z" fill="#FBB6C2"/>
</g>
</g>
<g style="mix-blend-mode:overlay">
<g style="mix-blend-mode:overlay">
<path d="M523.111 439.202C523.111 438.306 522.386 437.58 521.492 437.58C520.598 437.58 519.873 438.306 519.873 439.202C519.873 440.097 520.598 440.823 521.492 440.823C522.386 440.823 523.111 440.097 523.111 439.202Z" fill="#FBB6C2"/>
</g>
<g style="mix-blend-mode:overlay">
<path d="M537.065 425.23C537.065 424.334 536.34 423.608 535.446 423.608C534.552 423.608 533.827 424.334 533.827 425.23C533.827 426.125 534.552 426.851 535.446 426.851C536.34 426.851 537.065 426.125 537.065 425.23Z" fill="#FBB6C2"/>
</g>
<g style="mix-blend-mode:overlay">
<path d="M551.027 411.25C551.027 410.355 550.302 409.629 549.408 409.629C548.513 409.629 547.789 410.355 547.789 411.25C547.789 412.145 548.513 412.871 549.408 412.871C550.302 412.871 551.027 412.145 551.027 411.25Z" fill="#FBB6C2"/>
</g>
<g style="mix-blend-mode:overlay">
<path d="M564.981 397.278C564.981 396.383 564.256 395.657 563.362 395.657C562.467 395.657 561.743 396.383 561.743 397.278C561.743 398.173 562.467 398.899 563.362 398.899C564.256 398.899 564.981 398.173 564.981 397.278Z" fill="#FBB6C2"/>
</g>
<g style="mix-blend-mode:overlay">
<path d="M578.468 382.152C579.1 382.786 579.1 383.811 578.468 384.445C577.835 385.078 576.811 385.078 576.178 384.445C575.546 383.811 575.546 382.786 576.178 382.152C576.811 381.519 577.835 381.519 578.468 382.152Z" fill="#FBB6C2"/>
</g>
<g style="mix-blend-mode:overlay">
<path d="M592.896 369.326C592.896 368.431 592.171 367.705 591.277 367.705C590.383 367.705 589.658 368.431 589.658 369.326C589.658 370.222 590.383 370.948 591.277 370.948C592.171 370.948 592.896 370.222 592.896 369.326Z" fill="#FBB6C2"/>
</g>
</g>
</g>
<g style="mix-blend-mode:overlay">
<g style="mix-blend-mode:overlay">
<g style="mix-blend-mode:overlay">
<path d="M397.094 57.4909C397.539 57.9358 397.539 58.6521 397.094 59.0894C396.65 59.5343 395.935 59.5343 395.498 59.0894C395.054 58.6446 395.054 57.9283 395.498 57.4909C395.942 57.046 396.658 57.046 397.094 57.4909Z" fill="#FBB6C2"/>
</g>
<g style="mix-blend-mode:overlay">
<path d="M406.831 47.7414C407.276 48.1863 407.276 48.9026 406.831 49.3399C406.387 49.7848 405.672 49.7848 405.235 49.3399C404.798 48.8951 404.791 48.1787 405.235 47.7414C405.679 47.3041 406.395 47.2965 406.831 47.7414Z" fill="#FBB6C2"/>
</g>
<g style="mix-blend-mode:overlay">
<path d="M416.576 37.9919C417.02 38.4368 417.02 39.1531 416.576 39.5904C416.132 40.0353 415.416 40.0353 414.979 39.5904C414.535 39.1455 414.535 38.4292 414.979 37.9919C415.424 37.547 416.139 37.547 416.576 37.9919Z" fill="#FBB6C2"/>
</g>
<g style="mix-blend-mode:overlay">
<path d="M426.313 28.2348C426.757 28.6797 426.757 29.396 426.313 29.8333C425.868 30.2782 425.153 30.2782 424.716 29.8333C424.272 29.3885 424.272 28.6721 424.716 28.2348C425.161 27.7899 425.876 27.7899 426.313 28.2348Z" fill="#FBB6C2"/>
</g>
<g style="mix-blend-mode:overlay">
<path d="M436.05 18.4853C436.494 18.9302 436.494 19.6465 436.05 20.0838C435.605 20.5287 434.89 20.5287 434.453 20.0838C434.009 19.639 434.009 18.9226 434.453 18.4853C434.897 18.048 435.613 18.0404 436.05 18.4853Z" fill="#FBB6C2"/>
</g>
<g style="mix-blend-mode:overlay">
<path d="M445.794 8.72822C446.238 9.17309 446.238 9.88941 445.794 10.3267C445.35 10.7716 444.634 10.7716 444.198 10.3267C443.753 9.88187 443.753 9.16555 444.198 8.72822C444.642 8.28335 445.357 8.28335 445.794 8.72822Z" fill="#FBB6C2"/>
</g>
</g>
<g style="mix-blend-mode:overlay">
<g style="mix-blend-mode:overlay">
<path d="M405.461 65.8757C405.905 66.3205 405.905 67.0369 405.461 67.4742C405.017 67.9191 404.301 67.9191 403.864 67.4742C403.42 67.0293 403.42 66.313 403.864 65.8757C404.309 65.4308 405.024 65.4308 405.461 65.8757Z" fill="#FBB6C2"/>
</g>
<g style="mix-blend-mode:overlay">
<path d="M415.198 56.1186C415.642 56.5635 415.642 57.2798 415.198 57.7171C414.754 58.162 414.038 58.162 413.601 57.7171C413.165 57.2723 413.157 56.5559 413.601 56.1186C414.046 55.6737 414.761 55.6737 415.198 56.1186Z" fill="#FBB6C2"/>
</g>
<g style="mix-blend-mode:overlay">
<path d="M424.942 46.3691C425.387 46.814 425.387 47.5303 424.942 47.9676C424.498 48.4125 423.783 48.4125 423.346 47.9676C422.902 47.5227 422.902 46.8064 423.346 46.3691C423.79 45.9242 424.506 45.9242 424.942 46.3691Z" fill="#FBB6C2"/>
</g>
<g style="mix-blend-mode:overlay">
<path d="M434.679 36.6121C435.124 37.057 435.124 37.7733 434.679 38.2107C434.235 38.648 433.52 38.6555 433.083 38.2107C432.646 37.7658 432.639 37.0495 433.083 36.6121C433.527 36.1673 434.243 36.1673 434.679 36.6121Z" fill="#FBB6C2"/>
</g>
<g style="mix-blend-mode:overlay">
<path d="M444.424 26.8625C444.868 27.3074 444.868 28.0237 444.424 28.461C443.979 28.9059 443.264 28.9059 442.827 28.461C442.383 28.0161 442.383 27.2998 442.827 26.8625C443.271 26.4176 443.987 26.4176 444.424 26.8625Z" fill="#FBB6C2"/>
</g>
<g style="mix-blend-mode:overlay">
<path d="M454.161 17.1054C454.605 17.5503 454.605 18.2666 454.161 18.7039C453.716 19.1488 453.001 19.1488 452.564 18.7039C452.12 18.2591 452.12 17.5428 452.564 17.1054C453.008 16.6605 453.724 16.6605 454.161 17.1054Z" fill="#FBB6C2"/>
</g>
</g>
<g style="mix-blend-mode:overlay">
<g style="mix-blend-mode:overlay">
<path d="M413.827 74.2529C414.271 74.6978 414.271 75.4141 413.827 75.8514C413.383 76.2963 412.667 76.2963 412.231 75.8514C411.786 75.4065 411.786 74.6902 412.231 74.2529C412.675 73.808 413.39 73.808 413.827 74.2529Z" fill="#FBB6C2"/>
</g>
<g style="mix-blend-mode:overlay">
<path d="M423.564 64.4958C424.008 64.9407 424.008 65.657 423.564 66.0943C423.12 66.5392 422.404 66.5392 421.968 66.0943C421.523 65.6495 421.523 64.9331 421.968 64.4958C422.412 64.0509 423.127 64.0509 423.564 64.4958Z" fill="#FBB6C2"/>
</g>
<g style="mix-blend-mode:overlay">
<path d="M433.309 54.7464C433.753 55.1913 433.753 55.9076 433.309 56.3449C432.864 56.7823 432.149 56.7898 431.712 56.3449C431.268 55.9001 431.268 55.1838 431.712 54.7464C432.156 54.3016 432.872 54.3016 433.309 54.7464Z" fill="#FBB6C2"/>
</g>
<g style="mix-blend-mode:overlay">
<path d="M443.045 44.9892C443.49 45.4341 443.49 46.1504 443.045 46.5877C442.601 47.0326 441.886 47.0326 441.449 46.5877C441.005 46.1429 441.005 45.4265 441.449 44.9892C441.893 44.5443 442.609 44.5443 443.045 44.9892Z" fill="#FBB6C2"/>
</g>
<g style="mix-blend-mode:overlay">
<path d="M452.79 35.2397C453.234 35.6846 453.234 36.4009 452.79 36.8382C452.346 37.2831 451.63 37.2831 451.193 36.8382C450.757 36.3933 450.749 35.677 451.193 35.2397C451.638 34.7948 452.353 34.7948 452.79 35.2397Z" fill="#FBB6C2"/>
</g>
<g style="mix-blend-mode:overlay">
<path d="M462.527 25.4826C462.971 25.9275 462.971 26.6438 462.527 27.0811C462.083 27.526 461.367 27.526 460.93 27.0811C460.486 26.6363 460.486 25.9199 460.93 25.4826C461.375 25.0377 462.09 25.0377 462.527 25.4826Z" fill="#FBB6C2"/>
</g>
</g>
<g style="mix-blend-mode:overlay">
<g style="mix-blend-mode:overlay">
<path d="M422.194 82.6301C422.638 83.075 422.638 83.7913 422.194 84.2286C421.749 84.6735 421.034 84.6735 420.597 84.2286C420.153 83.7837 420.153 83.0674 420.597 82.6301C421.041 82.1852 421.757 82.1852 422.194 82.6301Z" fill="#FBB6C2"/>
</g>
<g style="mix-blend-mode:overlay">
<path d="M431.931 72.8731C432.375 73.318 432.375 74.0343 431.931 74.4717C431.486 74.909 430.771 74.9165 430.334 74.4717C429.897 74.0268 429.89 73.3104 430.334 72.8731C430.778 72.4282 431.494 72.4282 431.931 72.8731Z" fill="#FBB6C2"/>
</g>
<g style="mix-blend-mode:overlay">
<path d="M441.675 63.1235C442.119 63.5684 442.119 64.2847 441.675 64.722C441.231 65.1669 440.515 65.1669 440.079 64.722C439.634 64.2771 439.634 63.5608 440.079 63.1235C440.523 62.6786 441.238 62.6786 441.675 63.1235Z" fill="#FBB6C2"/>
</g>
<g style="mix-blend-mode:overlay">
<path d="M451.743 54.1658C451.743 53.5412 451.238 53.0348 450.614 53.0348C449.99 53.0348 449.484 53.5412 449.484 54.1658C449.484 54.7905 449.99 55.2969 450.614 55.2969C451.238 55.2969 451.743 54.7905 451.743 54.1658Z" fill="#FBB6C2"/>
</g>
<g style="mix-blend-mode:overlay">
<path d="M461.156 43.617C461.601 44.0619 461.601 44.7782 461.156 45.2156C460.712 45.6529 459.997 45.6604 459.56 45.2156C459.115 44.7707 459.115 44.0544 459.56 43.617C460.004 43.1722 460.719 43.1722 461.156 43.617Z" fill="#FBB6C2"/>
</g>
<g style="mix-blend-mode:overlay">
<path d="M470.893 33.8599C471.338 34.3048 471.338 35.0211 470.893 35.4585C470.449 35.8958 469.734 35.9033 469.297 35.4585C468.853 35.0136 468.853 34.2973 469.297 33.8599C469.741 33.4151 470.457 33.4151 470.893 33.8599Z" fill="#FBB6C2"/>
</g>
</g>
<g style="mix-blend-mode:overlay">
<g style="mix-blend-mode:overlay">
<path d="M430.56 91.0073C431.004 91.4521 431.004 92.1685 430.56 92.6058C430.116 93.0507 429.4 93.0507 428.963 92.6058C428.527 92.1609 428.519 91.4446 428.963 91.0073C429.408 90.5699 430.123 90.5624 430.56 91.0073Z" fill="#FBB6C2"/>
</g>
<g style="mix-blend-mode:overlay">
<path d="M440.297 81.2502C440.741 81.6951 440.741 82.4114 440.297 82.8487C439.852 83.2936 439.137 83.2936 438.7 82.8487C438.264 82.4038 438.256 81.6875 438.7 81.2502C439.145 80.8053 439.86 80.8053 440.297 81.2502Z" fill="#FBB6C2"/>
</g>
<g style="mix-blend-mode:overlay">
<path d="M450.373 72.2999C450.373 71.6752 449.867 71.1688 449.243 71.1688C448.619 71.1688 448.114 71.6752 448.114 72.2999C448.114 72.9245 448.619 73.4309 449.243 73.4309C449.867 73.4309 450.373 72.9245 450.373 72.2999Z" fill="#FBB6C2"/>
</g>
<g style="mix-blend-mode:overlay">
<path d="M459.778 61.7437C460.222 62.1886 460.222 62.9049 459.778 63.3423C459.334 63.7796 458.618 63.7871 458.182 63.3423C457.745 62.8974 457.737 62.1811 458.182 61.7437C458.626 61.2989 459.341 61.2989 459.778 61.7437Z" fill="#FBB6C2"/>
</g>
<g style="mix-blend-mode:overlay">
<path d="M469.523 51.9941C469.967 52.4389 469.967 53.1553 469.523 53.5926C469.078 54.0375 468.363 54.0375 467.926 53.5926C467.482 53.1477 467.482 52.4314 467.926 51.9941C468.371 51.5567 469.086 51.5492 469.523 51.9941Z" fill="#FBB6C2"/>
</g>
<g style="mix-blend-mode:overlay">
<path d="M479.26 42.237C479.704 42.6819 479.704 43.3982 479.26 43.8355C478.815 44.2804 478.1 44.2804 477.663 43.8355C477.219 43.3907 477.219 42.6743 477.663 42.237C478.107 41.7921 478.823 41.7921 479.26 42.237Z" fill="#FBB6C2"/>
</g>
</g>
<g style="mix-blend-mode:overlay">
<g style="mix-blend-mode:overlay">
<path d="M438.926 99.3845C439.371 99.8293 439.371 100.546 438.926 100.983C438.482 101.428 437.767 101.428 437.33 100.983C436.886 100.538 436.886 99.8218 437.33 99.3845C437.774 98.9396 438.489 98.9396 438.926 99.3845Z" fill="#FBB6C2"/>
</g>
<g style="mix-blend-mode:overlay">
<path d="M448.663 89.6274C449.107 90.0722 449.107 90.7886 448.663 91.2259C448.219 91.6708 447.504 91.6708 447.067 91.2259C446.63 90.781 446.622 90.0647 447.067 89.6274C447.511 89.19 448.226 89.1825 448.663 89.6274Z" fill="#FBB6C2"/>
</g>
<g style="mix-blend-mode:overlay">
<path d="M458.408 79.8779C458.852 80.3228 458.852 81.0391 458.408 81.4764C457.963 81.9213 457.248 81.9213 456.811 81.4764C456.367 81.0315 456.367 80.3152 456.811 79.8779C457.256 79.433 457.971 79.433 458.408 79.8779Z" fill="#FBB6C2"/>
</g>
<g style="mix-blend-mode:overlay">
<path d="M468.144 70.1208C468.589 70.5657 468.589 71.282 468.144 71.7193C467.7 72.1642 466.985 72.1642 466.548 71.7193C466.111 71.2745 466.104 70.5581 466.548 70.1208C466.992 69.6835 467.708 69.6759 468.144 70.1208Z" fill="#FBB6C2"/>
</g>
<g style="mix-blend-mode:overlay">
<path d="M477.889 60.3713C478.333 60.8162 478.333 61.5325 477.889 61.9698C477.445 62.4147 476.729 62.4147 476.293 61.9698C475.856 61.5249 475.848 60.8086 476.293 60.3713C476.737 59.9264 477.452 59.9264 477.889 60.3713Z" fill="#FBB6C2"/>
</g>
<g style="mix-blend-mode:overlay">
<path d="M487.626 50.6142C488.07 51.0591 488.07 51.7754 487.626 52.2127C487.182 52.6576 486.466 52.6576 486.03 52.2127C485.585 51.7679 485.585 51.0515 486.03 50.6142C486.474 50.1693 487.189 50.1693 487.626 50.6142Z" fill="#FBB6C2"/>
</g>
</g>
<g style="mix-blend-mode:overlay">
<g style="mix-blend-mode:overlay">
<path d="M447.293 107.762C447.737 108.207 447.737 108.923 447.293 109.36C446.848 109.805 446.133 109.805 445.696 109.36C445.252 108.915 445.252 108.199 445.696 107.762C446.141 107.317 446.856 107.317 447.293 107.762Z" fill="#FBB6C2"/>
</g>
<g style="mix-blend-mode:overlay">
<path d="M457.03 98.0046C457.474 98.4495 457.474 99.1658 457.03 99.6031C456.585 100.048 455.87 100.048 455.433 99.6031C454.996 99.1582 454.989 98.4419 455.433 98.0046C455.877 97.5597 456.593 97.5597 457.03 98.0046Z" fill="#FBB6C2"/>
</g>
<g style="mix-blend-mode:overlay">
<path d="M466.774 88.2551C467.218 88.7 467.218 89.4163 466.774 89.8536C466.33 90.2985 465.614 90.2985 465.178 89.8536C464.733 89.4087 464.733 88.6924 465.178 88.2551C465.622 87.8177 466.337 87.8102 466.774 88.2551Z" fill="#FBB6C2"/>
</g>
<g style="mix-blend-mode:overlay">
<path d="M476.511 78.498C476.955 78.9429 476.955 79.6592 476.511 80.0965C476.067 80.5414 475.351 80.5414 474.914 80.0965C474.478 79.6516 474.47 78.9353 474.914 78.498C475.359 78.0607 476.074 78.0531 476.511 78.498Z" fill="#FBB6C2"/>
</g>
<g style="mix-blend-mode:overlay">
<path d="M486.255 68.7485C486.7 69.1933 486.7 69.9097 486.255 70.347C485.811 70.7919 485.096 70.7919 484.659 70.347C484.215 69.9021 484.215 69.1858 484.659 68.7485C485.103 68.3036 485.819 68.3036 486.255 68.7485Z" fill="#FBB6C2"/>
</g>
<g style="mix-blend-mode:overlay">
<path d="M495.992 58.9914C496.437 59.4363 496.437 60.1526 495.992 60.5899C495.548 61.0348 494.833 61.0348 494.396 60.5899C493.952 60.1451 493.952 59.4287 494.396 58.9914C494.84 58.5465 495.556 58.5465 495.992 58.9914Z" fill="#FBB6C2"/>
</g>
</g>
</g>
<g style="mix-blend-mode:overlay">
<g style="mix-blend-mode:overlay">
<g style="mix-blend-mode:overlay">
<path d="M272.209 177.624C272.653 178.069 272.653 178.785 272.209 179.222C271.765 179.667 271.049 179.667 270.613 179.222C270.168 178.777 270.168 178.061 270.613 177.624C271.057 177.179 271.772 177.179 272.209 177.624Z" fill="#FBB6C2"/>
</g>
<g style="mix-blend-mode:overlay">
<path d="M281.946 167.874C282.39 168.319 282.39 169.035 281.946 169.473C281.502 169.918 280.786 169.918 280.349 169.473C279.913 169.028 279.905 168.312 280.349 167.874C280.794 167.437 281.509 167.429 281.946 167.874Z" fill="#FBB6C2"/>
</g>
<g style="mix-blend-mode:overlay">
<path d="M291.69 158.117C292.135 158.562 292.135 159.278 291.69 159.716C291.246 160.161 290.531 160.161 290.094 159.716C289.65 159.271 289.65 158.554 290.094 158.117C290.538 157.672 291.254 157.672 291.69 158.117Z" fill="#FBB6C2"/>
</g>
<g style="mix-blend-mode:overlay">
<path d="M301.427 148.368C301.872 148.812 301.872 149.529 301.427 149.966C300.983 150.411 300.268 150.411 299.831 149.966C299.386 149.521 299.386 148.805 299.831 148.368C300.275 147.923 300.99 147.923 301.427 148.368Z" fill="#FBB6C2"/>
</g>
<g style="mix-blend-mode:overlay">
<path d="M311.172 138.611C311.616 139.055 311.616 139.772 311.172 140.209C310.727 140.654 310.012 140.654 309.575 140.209C309.131 139.764 309.131 139.048 309.575 138.611C310.019 138.173 310.735 138.166 311.172 138.611Z" fill="#FBB6C2"/>
</g>
<g style="mix-blend-mode:overlay">
<path d="M320.909 128.861C321.353 129.306 321.353 130.022 320.909 130.46C320.464 130.904 319.749 130.904 319.312 130.46C318.868 130.015 318.868 129.298 319.312 128.861C319.757 128.416 320.472 128.416 320.909 128.861Z" fill="#FBB6C2"/>
</g>
</g>
<g style="mix-blend-mode:overlay">
<g style="mix-blend-mode:overlay">
<path d="M280.575 186.001C281.02 186.446 281.02 187.162 280.575 187.599C280.131 188.044 279.416 188.044 278.979 187.599C278.535 187.155 278.535 186.438 278.979 186.001C279.423 185.556 280.139 185.556 280.575 186.001Z" fill="#FBB6C2"/>
</g>
<g style="mix-blend-mode:overlay">
<path d="M290.312 176.251C290.757 176.696 290.757 177.413 290.312 177.85C289.868 178.295 289.153 178.295 288.716 177.85C288.279 177.405 288.272 176.689 288.716 176.251C289.16 175.807 289.876 175.807 290.312 176.251Z" fill="#FBB6C2"/>
</g>
<g style="mix-blend-mode:overlay">
<path d="M300.057 166.494C300.501 166.939 300.501 167.656 300.057 168.093C299.613 168.538 298.897 168.538 298.46 168.093C298.016 167.648 298.016 166.932 298.46 166.494C298.905 166.049 299.62 166.049 300.057 166.494Z" fill="#FBB6C2"/>
</g>
<g style="mix-blend-mode:overlay">
<path d="M309.794 156.745C310.238 157.19 310.238 157.906 309.794 158.343C309.35 158.781 308.634 158.788 308.197 158.343C307.761 157.899 307.753 157.182 308.197 156.745C308.642 156.3 309.357 156.3 309.794 156.745Z" fill="#FBB6C2"/>
</g>
<g style="mix-blend-mode:overlay">
<path d="M319.538 146.988C319.982 147.433 319.982 148.149 319.538 148.586C319.094 149.031 318.378 149.031 317.942 148.586C317.497 148.141 317.497 147.425 317.942 146.988C318.386 146.543 319.101 146.543 319.538 146.988Z" fill="#FBB6C2"/>
</g>
<g style="mix-blend-mode:overlay">
<path d="M329.275 137.238C329.719 137.683 329.719 138.399 329.275 138.837C328.831 139.282 328.115 139.282 327.679 138.837C327.234 138.392 327.234 137.676 327.679 137.238C328.123 136.793 328.838 136.793 329.275 137.238Z" fill="#FBB6C2"/>
</g>
</g>
<g style="mix-blend-mode:overlay">
<g style="mix-blend-mode:overlay">
<path d="M288.942 194.378C289.386 194.823 289.386 195.539 288.942 195.977C288.497 196.422 287.782 196.422 287.345 195.977C286.901 195.532 286.901 194.815 287.345 194.378C287.789 193.933 288.505 193.933 288.942 194.378Z" fill="#FBB6C2"/>
</g>
<g style="mix-blend-mode:overlay">
<path d="M298.678 184.629C299.123 185.073 299.123 185.79 298.678 186.227C298.234 186.672 297.519 186.672 297.082 186.227C296.638 185.782 296.638 185.066 297.082 184.629C297.526 184.184 298.242 184.184 298.678 184.629Z" fill="#FBB6C2"/>
</g>
<g style="mix-blend-mode:overlay">
<path d="M308.423 174.872C308.867 175.317 308.867 176.033 308.423 176.47C307.979 176.908 307.263 176.915 306.827 176.47C306.382 176.025 306.382 175.309 306.827 174.872C307.271 174.427 307.986 174.427 308.423 174.872Z" fill="#FBB6C2"/>
</g>
<g style="mix-blend-mode:overlay">
<path d="M318.16 165.122C318.604 165.567 318.604 166.283 318.16 166.721C317.716 167.165 317 167.165 316.563 166.721C316.119 166.276 316.119 165.559 316.563 165.122C317.008 164.677 317.723 164.677 318.16 165.122Z" fill="#FBB6C2"/>
</g>
<g style="mix-blend-mode:overlay">
<path d="M327.904 155.373C328.349 155.817 328.349 156.534 327.904 156.971C327.46 157.416 326.745 157.416 326.308 156.971C325.871 156.526 325.864 155.81 326.308 155.373C326.752 154.928 327.468 154.928 327.904 155.373Z" fill="#FBB6C2"/>
</g>
<g style="mix-blend-mode:overlay">
<path d="M337.641 145.615C338.086 146.06 338.086 146.777 337.641 147.214C337.197 147.659 336.482 147.659 336.045 147.214C335.601 146.769 335.601 146.053 336.045 145.615C336.489 145.171 337.205 145.171 337.641 145.615Z" fill="#FBB6C2"/>
</g>
</g>
<g style="mix-blend-mode:overlay">
<g style="mix-blend-mode:overlay">
<path d="M297.308 202.755C297.752 203.2 297.752 203.917 297.308 204.354C296.864 204.799 296.148 204.799 295.712 204.354C295.267 203.909 295.267 203.193 295.712 202.755C296.156 202.31 296.871 202.31 297.308 202.755Z" fill="#FBB6C2"/>
</g>
<g style="mix-blend-mode:overlay">
<path d="M307.045 193.006C307.489 193.451 307.489 194.167 307.045 194.604C306.601 195.042 305.885 195.049 305.449 194.604C305.012 194.159 305.004 193.443 305.449 193.006C305.893 192.561 306.608 192.561 307.045 193.006Z" fill="#FBB6C2"/>
</g>
<g style="mix-blend-mode:overlay">
<path d="M316.79 183.249C317.234 183.694 317.234 184.41 316.79 184.847C316.345 185.292 315.63 185.292 315.193 184.847C314.749 184.402 314.749 183.686 315.193 183.249C315.637 182.804 316.353 182.804 316.79 183.249Z" fill="#FBB6C2"/>
</g>
<g style="mix-blend-mode:overlay">
<path d="M326.858 174.298C326.858 173.674 326.352 173.167 325.728 173.167C325.104 173.167 324.599 173.674 324.599 174.298C324.599 174.923 325.104 175.429 325.728 175.429C326.352 175.429 326.858 174.923 326.858 174.298Z" fill="#FBB6C2"/>
</g>
<g style="mix-blend-mode:overlay">
<path d="M336.271 163.75C336.715 164.195 336.715 164.911 336.271 165.348C335.826 165.786 335.111 165.793 334.674 165.348C334.23 164.903 334.23 164.187 334.674 163.75C335.119 163.305 335.834 163.305 336.271 163.75Z" fill="#FBB6C2"/>
</g>
<g style="mix-blend-mode:overlay">
<path d="M346.008 153.993C346.452 154.438 346.452 155.154 346.008 155.591C345.564 156.029 344.848 156.036 344.411 155.591C343.967 155.146 343.967 154.43 344.411 153.993C344.856 153.548 345.571 153.548 346.008 153.993Z" fill="#FBB6C2"/>
</g>
</g>
<g style="mix-blend-mode:overlay">
<g style="mix-blend-mode:overlay">
<path d="M305.674 211.133C306.119 211.577 306.119 212.294 305.674 212.731C305.23 213.176 304.515 213.176 304.078 212.731C303.641 212.286 303.634 211.57 304.078 211.133C304.522 210.695 305.238 210.688 305.674 211.133Z" fill="#FBB6C2"/>
</g>
<g style="mix-blend-mode:overlay">
<path d="M315.419 201.383C315.863 201.828 315.863 202.544 315.419 202.982C314.975 203.426 314.259 203.426 313.822 202.982C313.386 202.537 313.378 201.82 313.822 201.383C314.267 200.938 314.982 200.938 315.419 201.383Z" fill="#FBB6C2"/>
</g>
<g style="mix-blend-mode:overlay">
<path d="M325.487 192.433C325.487 191.808 324.981 191.302 324.358 191.302C323.734 191.302 323.228 191.808 323.228 192.433C323.228 193.057 323.734 193.564 324.358 193.564C324.981 193.564 325.487 193.057 325.487 192.433Z" fill="#FBB6C2"/>
</g>
<g style="mix-blend-mode:overlay">
<path d="M334.893 181.877C335.337 182.321 335.337 183.038 334.893 183.475C334.448 183.912 333.733 183.92 333.296 183.475C332.859 183.03 332.852 182.314 333.296 181.877C333.741 181.432 334.456 181.432 334.893 181.877Z" fill="#FBB6C2"/>
</g>
<g style="mix-blend-mode:overlay">
<path d="M344.637 172.127C345.081 172.572 345.081 173.288 344.637 173.725C344.193 174.17 343.478 174.17 343.041 173.725C342.596 173.281 342.596 172.564 343.041 172.127C343.485 171.69 344.2 171.682 344.637 172.127Z" fill="#FBB6C2"/>
</g>
<g style="mix-blend-mode:overlay">
<path d="M354.374 162.37C354.818 162.815 354.818 163.531 354.374 163.968C353.93 164.413 353.214 164.413 352.778 163.968C352.333 163.523 352.333 162.807 352.778 162.37C353.222 161.925 353.937 161.925 354.374 162.37Z" fill="#FBB6C2"/>
</g>
</g>
<g style="mix-blend-mode:overlay">
<g style="mix-blend-mode:overlay">
<path d="M314.041 219.51C314.485 219.955 314.485 220.671 314.041 221.108C313.596 221.553 312.881 221.553 312.444 221.108C312 220.663 312 219.947 312.444 219.51C312.889 219.065 313.604 219.065 314.041 219.51Z" fill="#FBB6C2"/>
</g>
<g style="mix-blend-mode:overlay">
<path d="M323.785 209.76C324.23 210.205 324.23 210.921 323.785 211.359C323.341 211.804 322.626 211.804 322.189 211.359C321.752 210.914 321.745 210.198 322.189 209.76C322.633 209.323 323.348 209.315 323.785 209.76Z" fill="#FBB6C2"/>
</g>
<g style="mix-blend-mode:overlay">
<path d="M333.522 200.011C333.967 200.456 333.967 201.172 333.522 201.609C333.078 202.054 332.363 202.054 331.926 201.609C331.481 201.164 331.481 200.448 331.926 200.011C332.37 199.566 333.085 199.566 333.522 200.011Z" fill="#FBB6C2"/>
</g>
<g style="mix-blend-mode:overlay">
<path d="M343.259 190.254C343.703 190.698 343.703 191.415 343.259 191.852C342.815 192.297 342.099 192.297 341.663 191.852C341.226 191.407 341.218 190.691 341.663 190.254C342.107 189.816 342.822 189.809 343.259 190.254Z" fill="#FBB6C2"/>
</g>
<g style="mix-blend-mode:overlay">
<path d="M353.004 180.504C353.448 180.949 353.448 181.665 353.004 182.103C352.559 182.547 351.844 182.547 351.407 182.103C350.97 181.658 350.963 180.941 351.407 180.504C351.851 180.059 352.567 180.059 353.004 180.504Z" fill="#FBB6C2"/>
</g>
<g style="mix-blend-mode:overlay">
<path d="M362.74 170.747C363.185 171.192 363.185 171.908 362.74 172.346C362.296 172.79 361.581 172.79 361.144 172.346C360.7 171.901 360.7 171.184 361.144 170.747C361.588 170.302 362.304 170.302 362.74 170.747Z" fill="#FBB6C2"/>
</g>
</g>
<g style="mix-blend-mode:overlay">
<g style="mix-blend-mode:overlay">
<path d="M322.407 227.887C322.852 228.332 322.852 229.048 322.407 229.485C321.963 229.93 321.248 229.93 320.811 229.485C320.366 229.041 320.366 228.324 320.811 227.887C321.255 227.442 321.97 227.442 322.407 227.887Z" fill="#FBB6C2"/>
</g>
<g style="mix-blend-mode:overlay">
<path d="M332.152 218.137C332.596 218.582 332.596 219.299 332.152 219.736C331.707 220.181 330.992 220.181 330.555 219.736C330.118 219.291 330.111 218.575 330.555 218.137C331 217.693 331.715 217.693 332.152 218.137Z" fill="#FBB6C2"/>
</g>
<g style="mix-blend-mode:overlay">
<path d="M341.889 208.388C342.333 208.833 342.333 209.549 341.889 209.986C341.444 210.431 340.729 210.431 340.292 209.986C339.848 209.542 339.848 208.825 340.292 208.388C340.737 207.951 341.452 207.943 341.889 208.388Z" fill="#FBB6C2"/>
</g>
<g style="mix-blend-mode:overlay">
<path d="M351.626 198.631C352.07 199.076 352.07 199.792 351.626 200.229C351.181 200.674 350.466 200.674 350.029 200.229C349.592 199.784 349.585 199.068 350.029 198.631C350.473 198.193 351.189 198.186 351.626 198.631Z" fill="#FBB6C2"/>
</g>
<g style="mix-blend-mode:overlay">
<path d="M361.37 188.881C361.814 189.326 361.814 190.042 361.37 190.48C360.926 190.925 360.21 190.925 359.773 190.48C359.329 190.035 359.329 189.319 359.773 188.881C360.218 188.436 360.933 188.436 361.37 188.881Z" fill="#FBB6C2"/>
</g>
<g style="mix-blend-mode:overlay">
<path d="M371.107 179.124C371.551 179.569 371.551 180.285 371.107 180.723C370.663 181.168 369.947 181.168 369.51 180.723C369.066 180.278 369.066 179.562 369.51 179.124C369.955 178.679 370.67 178.679 371.107 179.124Z" fill="#FBB6C2"/>
</g>
</g>
</g>
<path d="M342.104 30.4951L326.849 15.2556L342.104 0.0161133L346.414 4.32183L335.469 15.2556L346.414 26.1894L342.104 30.4951Z" fill="#6C1322"/>
<path d="M360.973 30.4951L345.735 15.2556L360.973 0.0161133L365.283 4.32183L354.338 15.2556L365.283 26.1894L360.973 30.4951Z" fill="#F65570"/>
<path d="M379.859 30.4951L364.604 15.2556L379.859 0.0161133L384.152 4.32183L373.207 15.2556L384.152 26.1894L379.859 30.4951Z" fill="#F65570"/>
<path d="M15.5574 308.597L0.302734 293.357L15.5574 278.118L19.8504 282.424L8.90578 293.357L19.8504 304.291L15.5574 308.597Z" fill="#F65570"/>
<path d="M415.508 271.9L403.378 260.5L415.508 249.1L418.921 252.321L410.219 260.5L418.921 268.679L415.508 271.9Z" fill="#C4233E"/>
<path d="M398.728 30.4951L383.473 15.2556L398.728 0.0161133L403.038 4.32183L392.093 15.2556L403.038 26.1894L398.728 30.4951Z" fill="#F65570"/>
</svg>
