<svg width="100%" height="100%" viewBox="0 0 206 400" fill="none" xmlns="http://www.w3.org/2000/svg">
<path d="M25.6067 192.254L70.1878 236.886L114.769 192.254L70.1878 147.621L25.6067 192.254ZM70.1878 221.313L41.1617 192.254L70.1878 163.194L99.214 192.254L70.1878 221.313Z" fill="#DC3C57"/>
<path d="M104.261 344.192L148.431 388.413L192.602 344.192L148.431 299.971L104.261 344.192ZM148.431 373.663L118.994 344.192L148.431 314.721L177.869 344.192L148.431 373.663Z" fill="#C4233E"/>
<path d="M192.921 199.689L-6.5396 2.37854e-06L-206 199.689L-6.5396 399.378L192.921 199.689ZM-6.5396 58.026L134.967 199.689L-6.5396 341.352L-148.04 199.689L-6.5396 58.026Z" fill="#DC3C57"/>
<g style="mix-blend-mode:overlay">
<g style="mix-blend-mode:overlay">
<g style="mix-blend-mode:overlay">
<path d="M145.76 348.051C145.274 347.564 144.486 347.564 144 348.051C143.514 348.538 143.514 349.326 144 349.813C144.486 350.3 145.274 350.3 145.76 349.813C146.246 349.326 146.246 348.538 145.76 348.051Z" fill="#FBB6C2"/>
</g>
<g style="mix-blend-mode:overlay">
<path d="M156.487 337.312C156.001 336.825 155.213 336.825 154.727 337.312C154.241 337.798 154.241 338.587 154.727 339.073C155.213 339.56 156.001 339.56 156.487 339.073C156.973 338.587 156.973 337.798 156.487 337.312Z" fill="#FBB6C2"/>
</g>
<g style="mix-blend-mode:overlay">
<path d="M167.22 326.566C166.733 326.08 165.946 326.08 165.46 326.566C164.974 327.053 164.974 327.842 165.46 328.328C165.946 328.815 166.733 328.815 167.22 328.328C167.706 327.842 167.706 327.053 167.22 326.566Z" fill="#FBB6C2"/>
</g>
<g style="mix-blend-mode:overlay">
<path d="M175.822 316.708C175.822 316.02 176.379 315.462 177.067 315.462C177.754 315.462 178.312 316.02 178.312 316.708C178.312 317.396 177.754 317.954 177.067 317.954C176.379 317.954 175.822 317.396 175.822 316.708Z" fill="#FBB6C2"/>
</g>
<g style="mix-blend-mode:overlay">
<path d="M188.679 305.082C188.193 304.595 187.406 304.595 186.919 305.082C186.433 305.569 186.433 306.357 186.919 306.844C187.406 307.331 188.193 307.331 188.679 306.844C189.166 306.357 189.166 305.569 188.679 305.082Z" fill="#FBB6C2"/>
</g>
<g style="mix-blend-mode:overlay">
<path d="M199.406 294.343C198.92 293.856 198.133 293.856 197.646 294.343C197.16 294.83 197.16 295.618 197.646 296.105C198.133 296.591 198.92 296.591 199.406 296.105C199.893 295.618 199.893 294.83 199.406 294.343Z" fill="#FBB6C2"/>
</g>
</g>
<g style="mix-blend-mode:overlay">
<g style="mix-blend-mode:overlay">
<path d="M136.543 338.824C136.057 338.337 135.27 338.337 134.784 338.824C134.297 339.311 134.297 340.099 134.784 340.586C135.27 341.073 136.057 341.073 136.543 340.586C137.03 340.099 137.03 339.311 136.543 338.824Z" fill="#FBB6C2"/>
</g>
<g style="mix-blend-mode:overlay">
<path d="M147.271 328.085C146.784 327.598 145.997 327.598 145.511 328.085C145.024 328.572 145.024 329.36 145.511 329.847C145.997 330.334 146.784 330.334 147.271 329.847C147.757 329.36 147.757 328.572 147.271 328.085Z" fill="#FBB6C2"/>
</g>
<g style="mix-blend-mode:overlay">
<path d="M158.003 317.34C157.517 316.853 156.73 316.853 156.244 317.34C155.757 317.827 155.757 318.615 156.244 319.102C156.73 319.588 157.517 319.588 158.003 319.102C158.49 318.615 158.49 317.827 158.003 317.34Z" fill="#FBB6C2"/>
</g>
<g style="mix-blend-mode:overlay">
<path d="M166.606 307.481C166.606 306.793 167.163 306.235 167.851 306.235C168.538 306.235 169.095 306.793 169.095 307.481C169.095 308.17 168.538 308.727 167.851 308.727C167.163 308.727 166.606 308.17 166.606 307.481Z" fill="#FBB6C2"/>
</g>
<g style="mix-blend-mode:overlay">
<path d="M179.463 295.855C178.977 295.368 178.19 295.368 177.704 295.855C177.217 296.342 177.217 297.13 177.704 297.617C178.19 298.104 178.977 298.104 179.463 297.617C179.95 297.13 179.95 296.342 179.463 295.855Z" fill="#FBB6C2"/>
</g>
<g style="mix-blend-mode:overlay">
<path d="M188.066 285.997C188.066 285.309 188.623 284.751 189.311 284.751C189.998 284.751 190.555 285.309 190.555 285.997C190.555 286.685 189.998 287.243 189.311 287.243C188.623 287.243 188.066 286.685 188.066 285.997Z" fill="#FBB6C2"/>
</g>
</g>
<g style="mix-blend-mode:overlay">
<g style="mix-blend-mode:overlay">
<path d="M125.203 330.478C125.203 329.79 125.76 329.232 126.448 329.232C127.135 329.232 127.692 329.79 127.692 330.478C127.692 331.167 127.135 331.725 126.448 331.725C125.76 331.725 125.203 331.167 125.203 330.478Z" fill="#FBB6C2"/>
</g>
<g style="mix-blend-mode:overlay">
<path d="M138.055 318.858C137.568 318.371 136.781 318.371 136.295 318.858C135.809 319.345 135.809 320.133 136.295 320.62C136.781 321.107 137.568 321.107 138.055 320.62C138.541 320.133 138.541 319.345 138.055 318.858Z" fill="#FBB6C2"/>
</g>
<g style="mix-blend-mode:overlay">
<path d="M146.663 308.994C146.663 308.306 147.22 307.748 147.908 307.748C148.595 307.748 149.152 308.306 149.152 308.994C149.152 309.682 148.595 310.24 147.908 310.24C147.22 310.24 146.663 309.682 146.663 308.994Z" fill="#FBB6C2"/>
</g>
<g style="mix-blend-mode:overlay">
<path d="M157.39 298.255C157.39 297.567 157.947 297.009 158.635 297.009C159.322 297.009 159.879 297.567 159.879 298.255C159.879 298.943 159.322 299.501 158.635 299.501C157.947 299.501 157.39 298.943 157.39 298.255Z" fill="#FBB6C2"/>
</g>
<g style="mix-blend-mode:overlay">
<path d="M168.117 287.51C168.117 286.821 168.674 286.264 169.361 286.264C170.049 286.264 170.606 286.821 170.606 287.51C170.606 288.198 170.049 288.756 169.361 288.756C168.674 288.756 168.117 288.198 168.117 287.51Z" fill="#FBB6C2"/>
</g>
<g style="mix-blend-mode:overlay">
<path d="M180.974 275.889C180.488 275.403 179.701 275.403 179.214 275.889C178.728 276.376 178.728 277.164 179.214 277.651C179.701 278.138 180.488 278.138 180.974 277.651C181.46 277.164 181.46 276.376 180.974 275.889Z" fill="#FBB6C2"/>
</g>
</g>
<g style="mix-blend-mode:overlay">
<g style="mix-blend-mode:overlay">
<path d="M118.106 320.371C117.619 319.884 116.832 319.884 116.346 320.371C115.859 320.858 115.859 321.646 116.346 322.133C116.832 322.62 117.619 322.62 118.106 322.133C118.592 321.646 118.592 320.858 118.106 320.371Z" fill="#FBB6C2"/>
</g>
<g style="mix-blend-mode:overlay">
<path d="M128.838 309.632C128.352 309.145 127.565 309.145 127.079 309.632C126.592 310.118 126.592 310.907 127.079 311.393C127.565 311.88 128.352 311.88 128.838 311.393C129.325 310.907 129.325 310.118 128.838 309.632Z" fill="#FBB6C2"/>
</g>
<g style="mix-blend-mode:overlay">
<path d="M139.565 298.886C139.079 298.4 138.292 298.4 137.806 298.886C137.319 299.373 137.319 300.161 137.806 300.648C138.292 301.135 139.079 301.135 139.565 300.648C140.052 300.161 140.052 299.373 139.565 298.886Z" fill="#FBB6C2"/>
</g>
<g style="mix-blend-mode:overlay">
<path d="M148.174 289.028C148.174 288.34 148.731 287.782 149.418 287.782C150.106 287.782 150.663 288.34 150.663 289.028C150.663 289.716 150.106 290.274 149.418 290.274C148.731 290.274 148.174 289.716 148.174 289.028Z" fill="#FBB6C2"/>
</g>
<g style="mix-blend-mode:overlay">
<path d="M161.025 277.402C160.539 276.915 159.752 276.915 159.266 277.402C158.779 277.889 158.779 278.677 159.266 279.164C159.752 279.651 160.539 279.651 161.025 279.164C161.512 278.677 161.512 277.889 161.025 277.402Z" fill="#FBB6C2"/>
</g>
<g style="mix-blend-mode:overlay">
<path d="M169.634 267.544C169.634 266.855 170.191 266.297 170.878 266.297C171.566 266.297 172.123 266.855 172.123 267.544C172.123 268.232 171.566 268.79 170.878 268.79C170.191 268.79 169.634 268.232 169.634 267.544Z" fill="#FBB6C2"/>
</g>
</g>
<g style="mix-blend-mode:overlay">
<g style="mix-blend-mode:overlay">
<path d="M106.765 312.025C106.765 311.337 107.322 310.779 108.01 310.779C108.697 310.779 109.254 311.337 109.254 312.025C109.254 312.713 108.697 313.271 108.01 313.271C107.322 313.271 106.765 312.713 106.765 312.025Z" fill="#FBB6C2"/>
</g>
<g style="mix-blend-mode:overlay">
<path d="M119.623 300.405C119.136 299.918 118.349 299.918 117.863 300.405C117.376 300.892 117.376 301.68 117.863 302.167C118.349 302.654 119.136 302.654 119.623 302.167C120.109 301.68 120.109 300.892 119.623 300.405Z" fill="#FBB6C2"/>
</g>
<g style="mix-blend-mode:overlay">
<path d="M128.225 290.541C128.225 289.852 128.782 289.295 129.47 289.295C130.157 289.295 130.714 289.852 130.714 290.541C130.714 291.229 130.157 291.787 129.47 291.787C128.782 291.787 128.225 291.229 128.225 290.541Z" fill="#FBB6C2"/>
</g>
<g style="mix-blend-mode:overlay">
<path d="M138.958 279.801C138.958 279.113 139.515 278.555 140.203 278.555C140.89 278.555 141.447 279.113 141.447 279.801C141.447 280.49 140.89 281.047 140.203 281.047C139.515 281.047 138.958 280.49 138.958 279.801Z" fill="#FBB6C2"/>
</g>
<g style="mix-blend-mode:overlay">
<path d="M149.685 269.056C149.685 268.368 150.242 267.81 150.929 267.81C151.617 267.81 152.174 268.368 152.174 269.056C152.174 269.744 151.617 270.302 150.929 270.302C150.242 270.302 149.685 269.744 149.685 269.056Z" fill="#FBB6C2"/>
</g>
<g style="mix-blend-mode:overlay">
<path d="M162.542 257.436C162.056 256.949 161.268 256.949 160.782 257.436C160.296 257.923 160.296 258.711 160.782 259.198C161.268 259.685 162.056 259.685 162.542 259.198C163.028 258.711 163.028 257.923 162.542 257.436Z" fill="#FBB6C2"/>
</g>
</g>
<g style="mix-blend-mode:overlay">
<g style="mix-blend-mode:overlay">
<path d="M99.6729 301.918C99.1866 301.431 98.3993 301.431 97.913 301.918C97.4267 302.404 97.4267 303.193 97.913 303.679C98.3993 304.166 99.1866 304.166 99.6729 303.679C100.159 303.193 100.159 302.404 99.6729 301.918Z" fill="#FBB6C2"/>
</g>
<g style="mix-blend-mode:overlay">
<path d="M110.406 291.172C109.92 290.686 109.132 290.686 108.646 291.172C108.16 291.659 108.16 292.447 108.646 292.934C109.132 293.421 109.92 293.421 110.406 292.934C110.892 292.447 110.892 291.659 110.406 291.172Z" fill="#FBB6C2"/>
</g>
<g style="mix-blend-mode:overlay">
<path d="M121.133 280.433C120.647 279.946 119.86 279.946 119.373 280.433C118.887 280.92 118.887 281.708 119.373 282.195C119.86 282.682 120.647 282.682 121.133 282.195C121.62 281.708 121.62 280.92 121.133 280.433Z" fill="#FBB6C2"/>
</g>
<g style="mix-blend-mode:overlay">
<path d="M131.866 269.694C131.379 269.207 130.592 269.207 130.106 269.694C129.62 270.181 129.62 270.969 130.106 271.456C130.592 271.942 131.379 271.942 131.866 271.456C132.352 270.969 132.352 270.181 131.866 269.694Z" fill="#FBB6C2"/>
</g>
<g style="mix-blend-mode:overlay">
<path d="M142.593 258.949C142.107 258.462 141.319 258.462 140.833 258.949C140.347 259.436 140.347 260.224 140.833 260.711C141.319 261.197 142.107 261.197 142.593 260.711C143.079 260.224 143.079 259.436 142.593 258.949Z" fill="#FBB6C2"/>
</g>
<g style="mix-blend-mode:overlay">
<path d="M153.326 248.209C152.839 247.722 152.052 247.722 151.566 248.209C151.08 248.696 151.08 249.484 151.566 249.971C152.052 250.458 152.839 250.458 153.326 249.971C153.812 249.484 153.812 248.696 153.326 248.209Z" fill="#FBB6C2"/>
</g>
</g>
<g style="mix-blend-mode:overlay">
<g style="mix-blend-mode:overlay">
<path d="M90.4571 292.691C89.9708 292.204 89.1835 292.204 88.6972 292.691C88.2109 293.178 88.2109 293.966 88.6972 294.453C89.1835 294.94 89.9708 294.94 90.4571 294.453C90.9433 293.966 90.9433 293.178 90.4571 292.691Z" fill="#FBB6C2"/>
</g>
<g style="mix-blend-mode:overlay">
<path d="M101.19 281.946C100.704 281.459 99.9164 281.459 99.4301 281.946C98.9438 282.433 98.9438 283.221 99.4301 283.708C99.9164 284.194 100.704 284.194 101.19 283.708C101.676 283.221 101.676 282.433 101.19 281.946Z" fill="#FBB6C2"/>
</g>
<g style="mix-blend-mode:overlay">
<path d="M109.792 272.087C109.792 271.399 110.35 270.841 111.037 270.841C111.724 270.841 112.282 271.399 112.282 272.087C112.282 272.775 111.724 273.333 111.037 273.333C110.35 273.333 109.792 272.775 109.792 272.087Z" fill="#FBB6C2"/>
</g>
<g style="mix-blend-mode:overlay">
<path d="M122.65 260.461C122.164 259.974 121.376 259.974 120.89 260.461C120.404 260.948 120.404 261.736 120.89 262.223C121.376 262.71 122.164 262.71 122.65 262.223C123.136 261.736 123.136 260.948 122.65 260.461Z" fill="#FBB6C2"/>
</g>
<g style="mix-blend-mode:overlay">
<path d="M133.377 249.722C132.89 249.235 132.103 249.235 131.617 249.722C131.13 250.209 131.13 250.997 131.617 251.484C132.103 251.971 132.89 251.971 133.377 251.484C133.863 250.997 133.863 250.209 133.377 249.722Z" fill="#FBB6C2"/>
</g>
<g style="mix-blend-mode:overlay">
<path d="M144.11 238.977C143.624 238.49 142.836 238.49 142.35 238.977C141.864 239.464 141.864 240.252 142.35 240.739C142.836 241.225 143.624 241.225 144.11 240.739C144.596 240.252 144.596 239.464 144.11 238.977Z" fill="#FBB6C2"/>
</g>
</g>
</g>
<path d="M193.62 252.528L205.347 240.814L193.62 229.101L190.319 232.41L198.733 240.814L190.319 249.218L193.62 252.528Z" fill="#F65570"/>
</svg>
