<svg width="100%" height="100%" viewBox="0 0 228 492" fill="none" xmlns="http://www.w3.org/2000/svg">
<path d="M54.2345 437.785L-119 264.364L54.2345 90.9306L227.469 264.364L54.2345 437.797L54.2345 437.785ZM-68.6582 264.352L54.2345 387.385L177.127 264.352L54.2345 141.318L-68.6582 264.352Z" fill="#FBB6C2"/>
<g style="mix-blend-mode:overlay">
<g style="mix-blend-mode:overlay">
<g style="mix-blend-mode:overlay">
<path d="M-0.329029 39.8998C0.367213 40.5968 0.367213 41.7191 -0.329029 42.4044C-1.02527 43.0896 -2.1464 43.1014 -2.83085 42.4044C-3.52709 41.7073 -3.52709 40.585 -2.83085 39.8998C-2.1346 39.2027 -1.01347 39.2027 -0.329029 39.8998Z" fill="#FBB6C2"/>
</g>
</g>
<g style="mix-blend-mode:overlay">
<g style="mix-blend-mode:overlay">
<path d="M12.7817 53.0253C13.478 53.7224 13.478 54.8447 12.7817 55.53C12.0855 56.227 10.9644 56.227 10.28 55.53C9.58375 54.8329 9.58375 53.7106 10.28 53.0253C10.9762 52.3283 12.0973 52.3283 12.7817 53.0253Z" fill="#FBB6C2"/>
</g>
</g>
<g style="mix-blend-mode:overlay">
<g style="mix-blend-mode:overlay">
<path d="M10.6343 81.4385C11.3305 82.1356 11.3305 83.2579 10.6343 83.9432C9.93802 84.6402 8.81695 84.6402 8.13251 83.9432C7.44807 83.2461 7.43627 82.1238 8.13251 81.4385C8.82875 80.7415 9.94982 80.7415 10.6343 81.4385Z" fill="#FBB6C2"/>
</g>
<g style="mix-blend-mode:overlay">
<path d="M25.8921 66.1508C26.5883 66.8479 26.5883 67.9702 25.8921 68.6554C25.1958 69.3525 24.0748 69.3525 23.3903 68.6554C22.6941 67.9584 22.6941 66.8361 23.3903 66.1508C24.0866 65.4538 25.2076 65.4538 25.8921 66.1508Z" fill="#FBB6C2"/>
</g>
</g>
<g style="mix-blend-mode:overlay">
<g style="mix-blend-mode:overlay">
<path d="M8.47459 109.84C9.17083 110.537 9.17083 111.659 8.47459 112.345C7.77835 113.042 6.65729 113.042 5.97284 112.345C5.2884 111.647 5.2766 110.525 5.97284 109.84C6.66909 109.155 7.79015 109.143 8.47459 109.84Z" fill="#FBB6C2"/>
</g>
<g style="mix-blend-mode:overlay">
<path d="M23.7441 94.5642C24.4404 95.2613 24.4404 96.3837 23.7441 97.0689C23.0479 97.7659 21.9268 97.7659 21.2424 97.0689C20.5462 96.3719 20.5462 95.2495 21.2424 94.5642C21.9386 93.8672 23.0597 93.8672 23.7441 94.5642Z" fill="#FBB6C2"/>
</g>
<g style="mix-blend-mode:overlay">
<path d="M39.0029 79.2764C39.6992 79.9735 39.6992 81.0958 39.0029 81.7811C38.3067 82.4781 37.1856 82.4781 36.5012 81.7811C35.8049 81.084 35.8049 79.9617 36.5012 79.2764C37.1974 78.5794 38.3185 78.5794 39.0029 79.2764Z" fill="#FBB6C2"/>
</g>
</g>
</g>
<path d="M3.9543 288.072L-19.9507 264.194L3.9543 240.317L10.6817 247.063L-6.46919 264.194L10.6817 281.326L3.9543 288.072Z" fill="#F65570"/>
<path d="M33.5241 288.072L9.61914 264.194L33.5241 240.317L40.2782 247.063L23.1272 264.194L40.2782 281.326L33.5241 288.072Z" fill="#F65570"/>
<path d="M215.336 187.568L125.297 277.711L35.2573 187.568L125.297 97.4257L215.336 187.568ZM125.297 247.644L185.303 187.568L125.297 127.493L65.2902 187.568L125.297 247.644Z" fill="#C4233E"/>
<path d="M186.267 437.604L131.871 492L77.4751 437.604L131.871 383.208L186.267 437.604ZM131.871 473.856L168.123 437.604L131.871 401.352L95.619 437.604L131.871 473.856Z" fill="#6C1322"/>
</svg>
