<svg width="100%" height="100%" viewBox="0 0 191 412" fill="none" xmlns="http://www.w3.org/2000/svg">
<g style="mix-blend-mode:overlay">
<g style="mix-blend-mode:overlay">
<g style="mix-blend-mode:overlay">
<path d="M152.164 146.48C152.718 147.034 152.718 147.928 152.164 148.473C151.61 149.028 150.718 149.028 150.173 148.473C149.619 147.918 149.619 147.025 150.173 146.48C150.727 145.925 151.619 145.925 152.164 146.48Z" fill="#FBB6C2"/>
</g>
<g style="mix-blend-mode:overlay">
<path d="M164.307 134.323C164.861 134.877 164.861 135.771 164.307 136.316C163.753 136.871 162.861 136.871 162.316 136.316C161.771 135.761 161.762 134.868 162.316 134.323C162.87 133.777 163.762 133.768 164.307 134.323Z" fill="#FBB6C2"/>
</g>
<g style="mix-blend-mode:overlay">
<path d="M176.46 122.165C177.014 122.72 177.014 123.613 176.46 124.159C175.906 124.713 175.014 124.713 174.469 124.159C173.915 123.604 173.915 122.711 174.469 122.165C175.023 121.611 175.915 121.611 176.46 122.165Z" fill="#FBB6C2"/>
</g>
<g style="mix-blend-mode:overlay">
<path d="M188.603 109.999C189.157 110.554 189.157 111.447 188.603 111.992C188.049 112.547 187.157 112.547 186.612 111.992C186.058 111.437 186.058 110.544 186.612 109.999C187.166 109.444 188.058 109.444 188.603 109.999Z" fill="#FBB6C2"/>
</g>
</g>
<g style="mix-blend-mode:overlay">
<g style="mix-blend-mode:overlay">
<path d="M162.598 156.935C163.152 157.49 163.152 158.383 162.598 158.928C162.044 159.483 161.152 159.483 160.607 158.928C160.053 158.374 160.053 157.48 160.607 156.935C161.161 156.38 162.053 156.38 162.598 156.935Z" fill="#FBB6C2"/>
</g>
<g style="mix-blend-mode:overlay">
<path d="M174.741 144.768C175.295 145.323 175.295 146.216 174.741 146.762C174.187 147.316 173.295 147.316 172.75 146.762C172.205 146.207 172.196 145.314 172.75 144.768C173.304 144.214 174.196 144.214 174.741 144.768Z" fill="#FBB6C2"/>
</g>
<g style="mix-blend-mode:overlay">
<path d="M186.894 132.611C187.448 133.166 187.448 134.059 186.894 134.605C186.34 135.159 185.448 135.159 184.903 134.605C184.349 134.05 184.349 133.157 184.903 132.611C185.457 132.057 186.349 132.057 186.894 132.611Z" fill="#FBB6C2"/>
</g>
</g>
<g style="mix-blend-mode:overlay">
<g style="mix-blend-mode:overlay">
<path d="M173.032 167.381C173.586 167.936 173.586 168.829 173.032 169.374C172.478 169.929 171.586 169.929 171.041 169.374C170.487 168.819 170.487 167.926 171.041 167.381C171.595 166.826 172.487 166.826 173.032 167.381Z" fill="#FBB6C2"/>
</g>
<g style="mix-blend-mode:overlay">
<path d="M185.175 155.214C185.729 155.769 185.729 156.662 185.175 157.208C184.621 157.762 183.729 157.762 183.184 157.208C182.63 156.653 182.63 155.76 183.184 155.214C183.738 154.66 184.63 154.66 185.175 155.214Z" fill="#FBB6C2"/>
</g>
</g>
<g style="mix-blend-mode:overlay">
<g style="mix-blend-mode:overlay">
<path d="M183.466 177.827C184.02 178.382 184.02 179.275 183.466 179.82C182.912 180.375 182.019 180.375 181.475 179.82C180.921 179.265 180.921 178.372 181.475 177.827C182.029 177.272 182.921 177.272 183.466 177.827Z" fill="#FBB6C2"/>
</g>
</g>
</g>
<path d="M144.648 148.62L72.3239 221.027L8.63442e-07 148.62L72.3239 76.2134L144.648 148.62ZM72.3239 195.763L119.413 148.62L72.3239 101.477L25.2349 148.62L72.3239 195.763Z" fill="#F65570"/>
<path d="M48.9614 148.435L196.925 0.471193L344.888 148.435L196.925 296.398L48.9614 148.435ZM196.925 43.4667L91.9526 148.435L196.925 253.403L301.893 148.435L196.925 43.4667Z" fill="#DC3C57"/>
<path d="M100.15 358.426L36.1831 294.46L100.15 230.493L164.117 294.46L100.15 358.426ZM57.5193 294.46L100.15 337.09L142.78 294.46L100.15 251.829L57.5193 294.46Z" fill="#C4233E"/>
<path d="M127.583 411.939L100.796 385.183L127.583 358.426L135.151 365.986L115.932 385.183L135.151 404.38L127.583 411.939Z" fill="#6C1322"/>
<path d="M160.717 411.939L133.959 385.183L160.717 358.426L168.285 365.986L149.066 385.183L168.285 404.38L160.717 411.939Z" fill="#F65570"/>
</svg>
