<svg width="100%" height="100%" viewBox="0 0 608 688" fill="none" xmlns="http://www.w3.org/2000/svg">
<path d="M261.645 314.742L205.678 370.773L149.711 314.742L205.678 258.711L261.645 314.742ZM205.678 351.223L242.117 314.742L205.678 278.261L169.239 314.742L205.678 351.223Z" fill="#DC3C57"/>
<path d="M106.687 213.611L1.27369e-06 106.809L106.687 -3.20172e-05L213.374 106.809L106.687 213.619L106.687 213.611ZM31.0032 106.802L106.687 182.573L182.371 106.802L106.687 31.0314L31.0032 106.802Z" fill="#FBB6C2"/>
<path d="M608 221.4L552.549 276.915L497.098 221.4L552.549 165.886L608 221.4ZM552.549 258.398L589.504 221.4L552.549 184.403L515.593 221.4L552.549 258.398V258.398Z" fill="#C4233E"/>
<path d="M438.085 672.713L331.398 565.911L438.086 459.102L544.773 565.911L438.085 672.721L438.085 672.713ZM362.402 565.904L438.085 641.675L513.769 565.904L438.086 490.133L362.402 565.904Z" fill="#FBB6C2"/>
<path d="M313.074 335.747L292.345 315.042L313.074 294.336L318.93 300.186L304.058 315.042L318.93 329.897L313.074 335.747Z" fill="#6C1322"/>
<path d="M338.714 335.747L318.008 315.042L338.714 294.336L344.57 300.186L329.698 315.042L344.57 329.897L338.714 335.747Z" fill="#F65570"/>
<path d="M364.377 335.747L343.648 315.042L364.377 294.336L370.21 300.186L355.338 315.042L370.21 329.897L364.377 335.747Z" fill="#F65570"/>
<path d="M390.017 335.747L369.289 315.042L390.017 294.336L395.874 300.186L381.002 315.042L395.874 329.897L390.017 335.747Z" fill="#F65570"/>
<path d="M162.902 505.485L107.451 561L52 505.485L107.451 449.971L162.902 505.485ZM107.451 542.483L144.406 505.485L107.451 468.488L70.4958 505.485L107.451 542.483V542.483Z" fill="#C4233E"/>
<path d="M302.547 687.993L180.234 565.548L302.547 443.095L424.859 565.548L302.547 688L302.547 687.993ZM215.773 565.548L302.547 652.421L389.321 565.548L302.547 478.674L215.773 565.548V565.548Z" fill="#6C1322"/>
<path d="M51.5991 324.077L302.001 73.3877L552.403 324.077L302.001 574.766L51.5991 324.077ZM302.001 146.233L124.354 324.077L302.001 501.92L479.641 324.077L302.001 146.233Z" fill="#DC3C57"/>
<g style="mix-blend-mode:overlay">
<g style="mix-blend-mode:overlay">
<g style="mix-blend-mode:overlay">
<path d="M471.125 446.937C471.125 446.073 470.425 445.373 469.563 445.373C468.7 445.373 468 446.073 468 446.937C468 447.801 468.7 448.501 469.563 448.501C470.425 448.501 471.125 447.801 471.125 446.937Z" fill="#FBB6C2"/>
</g>
<g style="mix-blend-mode:overlay">
<path d="M484.141 432.342C484.752 432.953 484.752 433.942 484.141 434.554C483.531 435.165 482.542 435.165 481.932 434.554C481.322 433.942 481.322 432.953 481.932 432.342C482.542 431.731 483.531 431.731 484.141 432.342Z" fill="#FBB6C2"/>
</g>
<g style="mix-blend-mode:overlay">
<path d="M498.065 419.966C498.065 419.102 497.366 418.401 496.503 418.401C495.64 418.401 494.94 419.102 494.94 419.966C494.94 420.829 495.64 421.53 496.503 421.53C497.366 421.53 498.065 420.829 498.065 419.966Z" fill="#FBB6C2"/>
</g>
<g style="mix-blend-mode:overlay">
<path d="M511.54 406.476C511.54 405.612 510.84 404.912 509.977 404.912C509.114 404.912 508.415 405.612 508.415 406.476C508.415 407.34 509.114 408.04 509.977 408.04C510.84 408.04 511.54 407.34 511.54 406.476Z" fill="#FBB6C2"/>
</g>
<g style="mix-blend-mode:overlay">
<path d="M524.549 391.888C525.159 392.499 525.159 393.489 524.549 394.1C523.938 394.711 522.95 394.711 522.339 394.1C521.729 393.489 521.729 392.499 522.339 391.888C522.95 391.277 523.938 391.277 524.549 391.888Z" fill="#FBB6C2"/>
</g>
<g style="mix-blend-mode:overlay">
<path d="M538.473 379.505C538.473 378.641 537.774 377.94 536.911 377.94C536.048 377.94 535.348 378.641 535.348 379.505C535.348 380.369 536.048 381.069 536.911 381.069C537.774 381.069 538.473 380.369 538.473 379.505Z" fill="#FBB6C2"/>
</g>
</g>
<g style="mix-blend-mode:overlay">
<g style="mix-blend-mode:overlay">
<path d="M482.237 457.414C482.847 458.025 482.847 459.015 482.237 459.626C481.627 460.237 480.638 460.237 480.028 459.626C479.417 459.015 479.417 458.025 480.028 457.414C480.638 456.803 481.627 456.803 482.237 457.414Z" fill="#FBB6C2"/>
</g>
<g style="mix-blend-mode:overlay">
<path d="M496.169 445.031C496.169 444.167 495.469 443.466 494.606 443.466C493.744 443.466 493.044 444.167 493.044 445.031C493.044 445.895 493.744 446.595 494.606 446.595C495.469 446.595 496.169 445.895 496.169 445.031Z" fill="#FBB6C2"/>
</g>
<g style="mix-blend-mode:overlay">
<path d="M509.635 431.549C509.635 430.685 508.936 429.984 508.073 429.984C507.21 429.984 506.51 430.685 506.51 431.549C506.51 432.413 507.21 433.113 508.073 433.113C508.936 433.113 509.635 432.413 509.635 431.549Z" fill="#FBB6C2"/>
</g>
<g style="mix-blend-mode:overlay">
<path d="M522.652 416.953C523.262 417.564 523.262 418.554 522.652 419.165C522.041 419.776 521.053 419.776 520.442 419.165C519.832 418.554 519.832 417.564 520.442 416.953C521.053 416.342 522.041 416.342 522.652 416.953Z" fill="#FBB6C2"/>
</g>
<g style="mix-blend-mode:overlay">
<path d="M536.576 404.577C536.576 403.713 535.877 403.013 535.014 403.013C534.151 403.013 533.451 403.713 533.451 404.577C533.451 405.441 534.151 406.141 535.014 406.141C535.877 406.141 536.576 405.441 536.576 404.577Z" fill="#FBB6C2"/>
</g>
<g style="mix-blend-mode:overlay">
<path d="M549.592 389.982C550.203 390.593 550.203 391.582 549.592 392.194C548.982 392.805 547.994 392.805 547.383 392.194C546.773 391.582 546.773 390.593 547.383 389.982C547.994 389.371 548.982 389.371 549.592 389.982Z" fill="#FBB6C2"/>
</g>
</g>
<g style="mix-blend-mode:overlay">
<g style="mix-blend-mode:overlay">
<path d="M494.265 470.103C494.265 469.239 493.565 468.539 492.702 468.539C491.839 468.539 491.14 469.239 491.14 470.103C491.14 470.967 491.839 471.668 492.702 471.668C493.565 471.668 494.265 470.967 494.265 470.103Z" fill="#FBB6C2"/>
</g>
<g style="mix-blend-mode:overlay">
<path d="M507.739 456.614C507.739 455.75 507.039 455.05 506.176 455.05C505.313 455.05 504.614 455.75 504.614 456.614C504.614 457.478 505.313 458.178 506.176 458.178C507.039 458.178 507.739 457.478 507.739 456.614Z" fill="#FBB6C2"/>
</g>
<g style="mix-blend-mode:overlay">
<path d="M521.205 443.132C521.205 442.268 520.506 441.567 519.643 441.567C518.78 441.567 518.08 442.268 518.08 443.132C518.08 443.996 518.78 444.696 519.643 444.696C520.506 444.696 521.205 443.996 521.205 443.132Z" fill="#FBB6C2"/>
</g>
<g style="mix-blend-mode:overlay">
<path d="M534.679 429.642C534.679 428.778 533.98 428.078 533.117 428.078C532.254 428.078 531.554 428.778 531.554 429.642C531.554 430.506 532.254 431.207 533.117 431.207C533.98 431.207 534.679 430.506 534.679 429.642Z" fill="#FBB6C2"/>
</g>
<g style="mix-blend-mode:overlay">
<path d="M547.688 415.054C548.299 415.665 548.299 416.655 547.688 417.266C547.078 417.877 546.089 417.877 545.479 417.266C544.868 416.655 544.868 415.665 545.479 415.054C546.089 414.443 547.078 414.443 547.688 415.054Z" fill="#FBB6C2"/>
</g>
<g style="mix-blend-mode:overlay">
<path d="M561.62 402.671C561.62 401.807 560.921 401.106 560.058 401.106C559.195 401.106 558.495 401.807 558.495 402.671C558.495 403.535 559.195 404.235 560.058 404.235C560.921 404.235 561.62 403.535 561.62 402.671Z" fill="#FBB6C2"/>
</g>
</g>
<g style="mix-blend-mode:overlay">
<g style="mix-blend-mode:overlay">
<path d="M505.377 480.581C505.987 481.192 505.987 482.181 505.377 482.792C504.766 483.404 503.778 483.404 503.167 482.792C502.557 482.181 502.557 481.192 503.167 480.581C503.778 479.969 504.766 479.969 505.377 480.581Z" fill="#FBB6C2"/>
</g>
<g style="mix-blend-mode:overlay">
<path d="M519.309 468.197C519.309 467.333 518.609 466.633 517.746 466.633C516.883 466.633 516.184 467.333 516.184 468.197C516.184 469.061 516.883 469.761 517.746 469.761C518.609 469.761 519.309 469.061 519.309 468.197Z" fill="#FBB6C2"/>
</g>
<g style="mix-blend-mode:overlay">
<path d="M532.775 454.715C532.775 453.851 532.075 453.151 531.212 453.151C530.349 453.151 529.65 453.851 529.65 454.715C529.65 455.579 530.349 456.279 531.212 456.279C532.075 456.279 532.775 455.579 532.775 454.715Z" fill="#FBB6C2"/>
</g>
<g style="mix-blend-mode:overlay">
<path d="M546.249 441.225C546.249 440.362 545.55 439.661 544.687 439.661C543.824 439.661 543.124 440.362 543.124 441.225C543.124 442.089 543.824 442.79 544.687 442.79C545.55 442.79 546.249 442.089 546.249 441.225Z" fill="#FBB6C2"/>
</g>
<g style="mix-blend-mode:overlay">
<path d="M559.716 427.743C559.716 426.879 559.016 426.179 558.153 426.179C557.29 426.179 556.591 426.879 556.591 427.743C556.591 428.607 557.29 429.308 558.153 429.308C559.016 429.308 559.716 428.607 559.716 427.743Z" fill="#FBB6C2"/>
</g>
<g style="mix-blend-mode:overlay">
<path d="M572.732 413.148C573.343 413.759 573.343 414.749 572.732 415.36C572.122 415.971 571.133 415.971 570.523 415.36C569.912 414.749 569.912 413.759 570.523 413.148C571.133 412.537 572.122 412.537 572.732 413.148Z" fill="#FBB6C2"/>
</g>
</g>
<g style="mix-blend-mode:overlay">
<g style="mix-blend-mode:overlay">
<path d="M517.404 493.27C517.404 492.406 516.705 491.705 515.842 491.705C514.979 491.705 514.279 492.406 514.279 493.27C514.279 494.134 514.979 494.834 515.842 494.834C516.705 494.834 517.404 494.134 517.404 493.27Z" fill="#FBB6C2"/>
</g>
<g style="mix-blend-mode:overlay">
<path d="M530.878 479.78C530.878 478.916 530.179 478.216 529.316 478.216C528.453 478.216 527.753 478.916 527.753 479.78C527.753 480.644 528.453 481.344 529.316 481.344C530.179 481.344 530.878 480.644 530.878 479.78Z" fill="#FBB6C2"/>
</g>
<g style="mix-blend-mode:overlay">
<path d="M544.345 466.298C544.345 465.434 543.645 464.734 542.782 464.734C541.919 464.734 541.22 465.434 541.22 466.298C541.22 467.162 541.919 467.862 542.782 467.862C543.645 467.862 544.345 467.162 544.345 466.298Z" fill="#FBB6C2"/>
</g>
<g style="mix-blend-mode:overlay">
<path d="M557.819 452.816C557.819 451.952 557.119 451.252 556.256 451.252C555.393 451.252 554.694 451.952 554.694 452.816C554.694 453.68 555.393 454.38 556.256 454.38C557.119 454.38 557.819 453.68 557.819 452.816Z" fill="#FBB6C2"/>
</g>
<g style="mix-blend-mode:overlay">
<path d="M570.828 438.221C571.438 438.832 571.438 439.821 570.828 440.432C570.217 441.044 569.229 441.044 568.618 440.432C568.008 439.821 568.008 438.832 568.618 438.221C569.229 437.609 570.217 437.609 570.828 438.221Z" fill="#FBB6C2"/>
</g>
<g style="mix-blend-mode:overlay">
<path d="M584.76 425.844C584.76 424.98 584.06 424.28 583.197 424.28C582.334 424.28 581.635 424.98 581.635 425.844C581.635 426.708 582.334 427.409 583.197 427.409C584.06 427.409 584.76 426.708 584.76 425.844Z" fill="#FBB6C2"/>
</g>
</g>
<g style="mix-blend-mode:overlay">
<g style="mix-blend-mode:overlay">
<path d="M528.524 503.747C529.134 504.358 529.134 505.347 528.524 505.959C527.913 506.57 526.925 506.57 526.314 505.959C525.704 505.347 525.704 504.358 526.314 503.747C526.925 503.136 527.913 503.136 528.524 503.747Z" fill="#FBB6C2"/>
</g>
<g style="mix-blend-mode:overlay">
<path d="M542.448 491.371C542.448 490.507 541.749 489.806 540.886 489.806C540.023 489.806 539.323 490.507 539.323 491.371C539.323 492.234 540.023 492.935 540.886 492.935C541.749 492.935 542.448 492.234 542.448 491.371Z" fill="#FBB6C2"/>
</g>
<g style="mix-blend-mode:overlay">
<path d="M555.915 477.881C555.915 477.017 555.216 476.317 554.353 476.317C553.49 476.317 552.79 477.017 552.79 477.881C552.79 478.745 553.49 479.445 554.353 479.445C555.216 479.445 555.915 478.745 555.915 477.881Z" fill="#FBB6C2"/>
</g>
<g style="mix-blend-mode:overlay">
<path d="M569.389 464.399C569.389 463.535 568.689 462.835 567.826 462.835C566.963 462.835 566.264 463.535 566.264 464.399C566.264 465.263 566.963 465.963 567.826 465.963C568.689 465.963 569.389 465.263 569.389 464.399Z" fill="#FBB6C2"/>
</g>
<g style="mix-blend-mode:overlay">
<path d="M582.855 450.91C582.855 450.046 582.156 449.345 581.293 449.345C580.43 449.345 579.73 450.046 579.73 450.91C579.73 451.773 580.43 452.474 581.293 452.474C582.156 452.474 582.855 451.773 582.855 450.91Z" fill="#FBB6C2"/>
</g>
<g style="mix-blend-mode:overlay">
<path d="M595.872 436.321C596.482 436.933 596.482 437.922 595.872 438.533C595.261 439.144 594.273 439.144 593.662 438.533C593.052 437.922 593.052 436.933 593.662 436.321C594.273 435.71 595.261 435.71 595.872 436.321Z" fill="#FBB6C2"/>
</g>
</g>
<g style="mix-blend-mode:overlay">
<g style="mix-blend-mode:overlay">
<path d="M540.552 516.436C540.552 515.572 539.852 514.872 538.989 514.872C538.126 514.872 537.427 515.572 537.427 516.436C537.427 517.3 538.126 518 538.989 518C539.852 518 540.552 517.3 540.552 516.436Z" fill="#FBB6C2"/>
</g>
<g style="mix-blend-mode:overlay">
<path d="M554.019 502.954C554.019 502.09 553.319 501.389 552.456 501.389C551.593 501.389 550.894 502.09 550.894 502.954C550.894 503.818 551.593 504.518 552.456 504.518C553.319 504.518 554.019 503.818 554.019 502.954Z" fill="#FBB6C2"/>
</g>
<g style="mix-blend-mode:overlay">
<path d="M567.492 489.464C567.492 488.6 566.793 487.9 565.93 487.9C565.067 487.9 564.367 488.6 564.367 489.464C564.367 490.328 565.067 491.029 565.93 491.029C566.793 491.029 567.492 490.328 567.492 489.464Z" fill="#FBB6C2"/>
</g>
<g style="mix-blend-mode:overlay">
<path d="M580.959 475.982C580.959 475.118 580.259 474.418 579.397 474.418C578.534 474.418 577.834 475.118 577.834 475.982C577.834 476.846 578.534 477.547 579.397 477.547C580.259 477.547 580.959 476.846 580.959 475.982Z" fill="#FBB6C2"/>
</g>
<g style="mix-blend-mode:overlay">
<path d="M593.975 461.387C594.586 461.998 594.586 462.987 593.975 463.599C593.365 464.21 592.376 464.21 591.766 463.599C591.155 462.987 591.155 461.998 591.766 461.387C592.376 460.776 593.365 460.776 593.975 461.387Z" fill="#FBB6C2"/>
</g>
<g style="mix-blend-mode:overlay">
<path d="M607.9 449.011C607.9 448.147 607.2 447.446 606.337 447.446C605.474 447.446 604.775 448.147 604.775 449.011C604.775 449.875 605.474 450.575 606.337 450.575C607.2 450.575 607.9 449.875 607.9 449.011Z" fill="#FBB6C2"/>
</g>
</g>
</g>
<g style="mix-blend-mode:overlay">
<g style="mix-blend-mode:overlay">
<g style="mix-blend-mode:overlay">
<path d="M418.936 148.109C419.364 148.538 419.364 149.229 418.936 149.651C418.507 150.081 417.816 150.081 417.395 149.651C416.966 149.222 416.966 148.531 417.395 148.109C417.824 147.68 418.514 147.68 418.936 148.109Z" fill="#FBB6C2"/>
</g>
<g style="mix-blend-mode:overlay">
<path d="M428.332 138.701C428.761 139.131 428.761 139.822 428.332 140.244C427.903 140.673 427.213 140.673 426.792 140.244C426.37 139.814 426.363 139.123 426.792 138.701C427.22 138.279 427.911 138.272 428.332 138.701Z" fill="#FBB6C2"/>
</g>
<g style="mix-blend-mode:overlay">
<path d="M437.737 129.294C438.166 129.723 438.166 130.414 437.737 130.836C437.308 131.265 436.618 131.265 436.196 130.836C435.767 130.407 435.767 129.716 436.196 129.294C436.625 128.864 437.315 128.864 437.737 129.294Z" fill="#FBB6C2"/>
</g>
<g style="mix-blend-mode:overlay">
<path d="M447.133 119.879C447.562 120.308 447.562 120.999 447.133 121.421C446.705 121.85 446.014 121.85 445.593 121.421C445.164 120.992 445.164 120.301 445.593 119.879C446.021 119.449 446.712 119.449 447.133 119.879Z" fill="#FBB6C2"/>
</g>
<g style="mix-blend-mode:overlay">
<path d="M456.53 110.471C456.959 110.9 456.959 111.591 456.53 112.013C456.101 112.443 455.411 112.443 454.99 112.013C454.561 111.584 454.561 110.893 454.99 110.471C455.418 110.049 456.109 110.042 456.53 110.471Z" fill="#FBB6C2"/>
</g>
<g style="mix-blend-mode:overlay">
<path d="M465.935 101.056C466.363 101.485 466.363 102.177 465.935 102.599C465.506 103.028 464.815 103.028 464.394 102.599C463.965 102.169 463.965 101.478 464.394 101.056C464.823 100.627 465.513 100.627 465.935 101.056Z" fill="#FBB6C2"/>
</g>
</g>
<g style="mix-blend-mode:overlay">
<g style="mix-blend-mode:overlay">
<path d="M427.01 156.2C427.439 156.629 427.439 157.32 427.01 157.742C426.581 158.172 425.891 158.172 425.469 157.742C425.04 157.313 425.04 156.622 425.469 156.2C425.898 155.77 426.588 155.77 427.01 156.2Z" fill="#FBB6C2"/>
</g>
<g style="mix-blend-mode:overlay">
<path d="M436.406 146.785C436.835 147.214 436.835 147.905 436.406 148.327C435.978 148.756 435.287 148.756 434.866 148.327C434.444 147.898 434.437 147.207 434.866 146.785C435.295 146.355 435.985 146.355 436.406 146.785Z" fill="#FBB6C2"/>
</g>
<g style="mix-blend-mode:overlay">
<path d="M445.811 137.377C446.24 137.807 446.24 138.498 445.811 138.92C445.382 139.349 444.692 139.349 444.27 138.92C443.842 138.49 443.842 137.799 444.27 137.377C444.699 136.948 445.39 136.948 445.811 137.377Z" fill="#FBB6C2"/>
</g>
<g style="mix-blend-mode:overlay">
<path d="M455.208 127.962C455.637 128.392 455.637 129.083 455.208 129.505C454.779 129.927 454.089 129.934 453.667 129.505C453.245 129.075 453.238 128.384 453.667 127.962C454.096 127.533 454.786 127.533 455.208 127.962Z" fill="#FBB6C2"/>
</g>
<g style="mix-blend-mode:overlay">
<path d="M464.612 118.555C465.041 118.984 465.041 119.675 464.612 120.097C464.183 120.526 463.493 120.526 463.071 120.097C462.642 119.668 462.642 118.977 463.071 118.555C463.5 118.125 464.19 118.125 464.612 118.555Z" fill="#FBB6C2"/>
</g>
<g style="mix-blend-mode:overlay">
<path d="M474.009 109.14C474.438 109.569 474.438 110.26 474.009 110.682C473.58 111.111 472.89 111.111 472.468 110.682C472.039 110.253 472.039 109.562 472.468 109.14C472.897 108.71 473.587 108.71 474.009 109.14Z" fill="#FBB6C2"/>
</g>
</g>
<g style="mix-blend-mode:overlay">
<g style="mix-blend-mode:overlay">
<path d="M435.084 164.283C435.513 164.713 435.513 165.404 435.084 165.826C434.655 166.255 433.965 166.255 433.543 165.826C433.114 165.396 433.114 164.705 433.543 164.283C433.972 163.854 434.662 163.854 435.084 164.283Z" fill="#FBB6C2"/>
</g>
<g style="mix-blend-mode:overlay">
<path d="M444.481 154.868C444.91 155.298 444.91 155.989 444.481 156.411C444.052 156.84 443.362 156.84 442.94 156.411C442.511 155.981 442.511 155.29 442.94 154.868C443.369 154.439 444.059 154.439 444.481 154.868Z" fill="#FBB6C2"/>
</g>
<g style="mix-blend-mode:overlay">
<path d="M453.885 145.461C454.314 145.89 454.314 146.581 453.885 147.003C453.456 147.425 452.766 147.432 452.345 147.003C451.916 146.574 451.916 145.883 452.345 145.461C452.773 145.031 453.464 145.031 453.885 145.461Z" fill="#FBB6C2"/>
</g>
<g style="mix-blend-mode:overlay">
<path d="M463.282 136.046C463.711 136.475 463.711 137.166 463.282 137.588C462.853 138.017 462.163 138.017 461.741 137.588C461.312 137.159 461.312 136.468 461.741 136.046C462.17 135.616 462.86 135.616 463.282 136.046Z" fill="#FBB6C2"/>
</g>
<g style="mix-blend-mode:overlay">
<path d="M472.686 126.638C473.115 127.067 473.115 127.758 472.686 128.18C472.257 128.61 471.567 128.61 471.146 128.18C470.724 127.751 470.717 127.06 471.146 126.638C471.574 126.209 472.265 126.209 472.686 126.638Z" fill="#FBB6C2"/>
</g>
<g style="mix-blend-mode:overlay">
<path d="M482.083 117.223C482.512 117.652 482.512 118.344 482.083 118.766C481.654 119.195 480.964 119.195 480.542 118.766C480.114 118.336 480.114 117.645 480.542 117.223C480.971 116.794 481.661 116.794 482.083 117.223Z" fill="#FBB6C2"/>
</g>
</g>
<g style="mix-blend-mode:overlay">
<g style="mix-blend-mode:overlay">
<path d="M443.158 172.367C443.587 172.796 443.587 173.487 443.158 173.909C442.729 174.338 442.039 174.338 441.617 173.909C441.189 173.48 441.189 172.789 441.617 172.367C442.046 171.937 442.737 171.937 443.158 172.367Z" fill="#FBB6C2"/>
</g>
<g style="mix-blend-mode:overlay">
<path d="M452.555 162.952C452.984 163.381 452.984 164.072 452.555 164.494C452.126 164.916 451.436 164.923 451.014 164.494C450.593 164.065 450.585 163.374 451.014 162.952C451.443 162.522 452.133 162.522 452.555 162.952Z" fill="#FBB6C2"/>
</g>
<g style="mix-blend-mode:overlay">
<path d="M461.959 153.544C462.388 153.973 462.388 154.664 461.959 155.086C461.531 155.516 460.84 155.516 460.419 155.086C459.99 154.657 459.99 153.966 460.419 153.544C460.848 153.115 461.538 153.115 461.959 153.544Z" fill="#FBB6C2"/>
</g>
<g style="mix-blend-mode:overlay">
<path d="M471.676 144.9C471.676 144.298 471.188 143.809 470.586 143.809C469.984 143.809 469.496 144.298 469.496 144.9C469.496 145.503 469.984 145.992 470.586 145.992C471.188 145.992 471.676 145.503 471.676 144.9Z" fill="#FBB6C2"/>
</g>
<g style="mix-blend-mode:overlay">
<path d="M480.76 134.721C481.189 135.151 481.189 135.842 480.76 136.264C480.331 136.686 479.641 136.693 479.22 136.264C478.791 135.834 478.791 135.143 479.22 134.721C479.648 134.292 480.339 134.292 480.76 134.721Z" fill="#FBB6C2"/>
</g>
<g style="mix-blend-mode:overlay">
<path d="M490.157 125.307C490.586 125.736 490.586 126.427 490.157 126.849C489.728 127.271 489.038 127.278 488.617 126.849C488.188 126.42 488.188 125.729 488.617 125.307C489.045 124.877 489.736 124.877 490.157 125.307Z" fill="#FBB6C2"/>
</g>
</g>
<g style="mix-blend-mode:overlay">
<g style="mix-blend-mode:overlay">
<path d="M451.233 180.45C451.661 180.879 451.661 181.57 451.233 181.992C450.804 182.422 450.113 182.422 449.692 181.992C449.27 181.563 449.263 180.872 449.692 180.45C450.121 180.028 450.811 180.021 451.233 180.45Z" fill="#FBB6C2"/>
</g>
<g style="mix-blend-mode:overlay">
<path d="M460.63 171.035C461.058 171.464 461.058 172.155 460.63 172.577C460.201 173.007 459.51 173.007 459.089 172.577C458.667 172.148 458.66 171.457 459.089 171.035C459.518 170.606 460.208 170.606 460.63 171.035Z" fill="#FBB6C2"/>
</g>
<g style="mix-blend-mode:overlay">
<path d="M470.354 162.399C470.354 161.796 469.866 161.307 469.263 161.307C468.661 161.307 468.173 161.796 468.173 162.399C468.173 163.001 468.661 163.49 469.263 163.49C469.866 163.49 470.354 163.001 470.354 162.399Z" fill="#FBB6C2"/>
</g>
<g style="mix-blend-mode:overlay">
<path d="M479.43 152.213C479.859 152.642 479.859 153.333 479.43 153.755C479.002 154.177 478.311 154.184 477.89 153.755C477.468 153.326 477.461 152.635 477.89 152.213C478.318 151.783 479.009 151.783 479.43 152.213Z" fill="#FBB6C2"/>
</g>
<g style="mix-blend-mode:overlay">
<path d="M488.835 142.805C489.264 143.234 489.264 143.925 488.835 144.347C488.406 144.777 487.716 144.777 487.294 144.347C486.865 143.918 486.865 143.227 487.294 142.805C487.723 142.383 488.413 142.375 488.835 142.805Z" fill="#FBB6C2"/>
</g>
<g style="mix-blend-mode:overlay">
<path d="M498.231 133.39C498.66 133.819 498.66 134.51 498.231 134.932C497.803 135.362 497.112 135.362 496.691 134.932C496.262 134.503 496.262 133.812 496.691 133.39C497.12 132.961 497.81 132.961 498.231 133.39Z" fill="#FBB6C2"/>
</g>
</g>
<g style="mix-blend-mode:overlay">
<g style="mix-blend-mode:overlay">
<path d="M459.307 188.534C459.735 188.963 459.735 189.654 459.307 190.076C458.878 190.505 458.187 190.505 457.766 190.076C457.337 189.647 457.337 188.956 457.766 188.534C458.195 188.104 458.885 188.104 459.307 188.534Z" fill="#FBB6C2"/>
</g>
<g style="mix-blend-mode:overlay">
<path d="M468.703 179.118C469.132 179.548 469.132 180.239 468.703 180.661C468.275 181.09 467.584 181.09 467.163 180.661C466.741 180.232 466.734 179.54 467.163 179.118C467.591 178.696 468.282 178.689 468.703 179.118Z" fill="#FBB6C2"/>
</g>
<g style="mix-blend-mode:overlay">
<path d="M478.108 169.711C478.537 170.14 478.537 170.831 478.108 171.253C477.679 171.683 476.989 171.683 476.567 171.253C476.138 170.824 476.138 170.133 476.567 169.711C476.996 169.282 477.686 169.282 478.108 169.711Z" fill="#FBB6C2"/>
</g>
<g style="mix-blend-mode:overlay">
<path d="M487.505 160.296C487.933 160.725 487.933 161.416 487.505 161.838C487.076 162.268 486.385 162.268 485.964 161.838C485.542 161.409 485.535 160.718 485.964 160.296C486.393 159.874 487.083 159.867 487.505 160.296Z" fill="#FBB6C2"/>
</g>
<g style="mix-blend-mode:overlay">
<path d="M496.909 150.888C497.338 151.318 497.338 152.009 496.909 152.431C496.48 152.86 495.79 152.86 495.368 152.431C494.947 152.001 494.939 151.31 495.368 150.888C495.797 150.459 496.487 150.459 496.909 150.888Z" fill="#FBB6C2"/>
</g>
<g style="mix-blend-mode:overlay">
<path d="M506.306 141.473C506.734 141.903 506.734 142.594 506.306 143.016C505.877 143.445 505.186 143.445 504.765 143.016C504.336 142.587 504.336 141.895 504.765 141.473C505.194 141.044 505.884 141.044 506.306 141.473Z" fill="#FBB6C2"/>
</g>
</g>
<g style="mix-blend-mode:overlay">
<g style="mix-blend-mode:overlay">
<path d="M467.381 196.617C467.81 197.046 467.81 197.737 467.381 198.159C466.952 198.589 466.262 198.589 465.84 198.159C465.411 197.73 465.411 197.039 465.84 196.617C466.269 196.188 466.959 196.188 467.381 196.617Z" fill="#FBB6C2"/>
</g>
<g style="mix-blend-mode:overlay">
<path d="M476.778 187.202C477.206 187.631 477.206 188.322 476.778 188.744C476.349 189.174 475.658 189.174 475.237 188.744C474.815 188.315 474.808 187.624 475.237 187.202C475.666 186.773 476.356 186.773 476.778 187.202Z" fill="#FBB6C2"/>
</g>
<g style="mix-blend-mode:overlay">
<path d="M486.182 177.795C486.611 178.224 486.611 178.915 486.182 179.337C485.753 179.766 485.063 179.766 484.641 179.337C484.213 178.908 484.213 178.217 484.641 177.795C485.07 177.373 485.761 177.365 486.182 177.795Z" fill="#FBB6C2"/>
</g>
<g style="mix-blend-mode:overlay">
<path d="M495.579 168.379C496.008 168.809 496.008 169.5 495.579 169.922C495.15 170.351 494.46 170.351 494.038 169.922C493.617 169.493 493.609 168.801 494.038 168.379C494.467 167.957 495.157 167.95 495.579 168.379Z" fill="#FBB6C2"/>
</g>
<g style="mix-blend-mode:overlay">
<path d="M504.983 158.972C505.412 159.401 505.412 160.092 504.983 160.514C504.554 160.944 503.864 160.944 503.442 160.514C503.013 160.085 503.013 159.394 503.442 158.972C503.871 158.542 504.561 158.542 504.983 158.972Z" fill="#FBB6C2"/>
</g>
<g style="mix-blend-mode:overlay">
<path d="M514.38 149.557C514.809 149.986 514.809 150.677 514.38 151.099C513.951 151.529 513.261 151.529 512.839 151.099C512.41 150.67 512.41 149.979 512.839 149.557C513.268 149.128 513.958 149.128 514.38 149.557Z" fill="#FBB6C2"/>
</g>
</g>
</g>
<g style="mix-blend-mode:overlay">
<g style="mix-blend-mode:overlay">
<g style="mix-blend-mode:overlay">
<path d="M298.411 264.03C298.84 264.459 298.84 265.15 298.411 265.572C297.982 266.001 297.292 266.001 296.87 265.572C296.442 265.143 296.442 264.452 296.87 264.03C297.299 263.6 297.99 263.6 298.411 264.03Z" fill="#FBB6C2"/>
</g>
<g style="mix-blend-mode:overlay">
<path d="M307.808 254.622C308.237 255.051 308.237 255.742 307.808 256.164C307.379 256.594 306.689 256.594 306.267 256.164C305.846 255.735 305.838 255.044 306.267 254.622C306.696 254.2 307.386 254.193 307.808 254.622Z" fill="#FBB6C2"/>
</g>
<g style="mix-blend-mode:overlay">
<path d="M317.212 245.207C317.641 245.636 317.641 246.328 317.212 246.75C316.784 247.179 316.093 247.179 315.672 246.75C315.243 246.32 315.243 245.629 315.672 245.207C316.1 244.778 316.791 244.778 317.212 245.207Z" fill="#FBB6C2"/>
</g>
<g style="mix-blend-mode:overlay">
<path d="M326.609 235.799C327.038 236.229 327.038 236.92 326.609 237.342C326.18 237.771 325.49 237.771 325.068 237.342C324.639 236.913 324.639 236.221 325.068 235.799C325.497 235.37 326.187 235.37 326.609 235.799Z" fill="#FBB6C2"/>
</g>
<g style="mix-blend-mode:overlay">
<path d="M336.013 226.384C336.442 226.814 336.442 227.505 336.013 227.927C335.584 228.356 334.894 228.356 334.472 227.927C334.044 227.498 334.044 226.806 334.472 226.384C334.901 225.962 335.592 225.955 336.013 226.384Z" fill="#FBB6C2"/>
</g>
<g style="mix-blend-mode:overlay">
<path d="M345.41 216.977C345.839 217.406 345.839 218.097 345.41 218.519C344.981 218.949 344.291 218.949 343.869 218.519C343.441 218.09 343.441 217.399 343.869 216.977C344.298 216.548 344.989 216.548 345.41 216.977Z" fill="#FBB6C2"/>
</g>
</g>
<g style="mix-blend-mode:overlay">
<g style="mix-blend-mode:overlay">
<path d="M306.485 272.113C306.914 272.542 306.914 273.234 306.485 273.656C306.057 274.085 305.366 274.085 304.945 273.656C304.516 273.226 304.516 272.535 304.945 272.113C305.373 271.684 306.064 271.684 306.485 272.113Z" fill="#FBB6C2"/>
</g>
<g style="mix-blend-mode:overlay">
<path d="M315.882 262.705C316.311 263.135 316.311 263.826 315.882 264.248C315.453 264.677 314.763 264.677 314.341 264.248C313.92 263.819 313.913 263.127 314.341 262.705C314.77 262.276 315.461 262.276 315.882 262.705Z" fill="#FBB6C2"/>
</g>
<g style="mix-blend-mode:overlay">
<path d="M325.287 253.291C325.715 253.72 325.715 254.411 325.287 254.833C324.858 255.262 324.167 255.262 323.746 254.833C323.317 254.404 323.317 253.713 323.746 253.291C324.175 252.861 324.865 252.861 325.287 253.291Z" fill="#FBB6C2"/>
</g>
<g style="mix-blend-mode:overlay">
<path d="M334.683 243.883C335.112 244.312 335.112 245.003 334.683 245.425C334.255 245.847 333.564 245.855 333.143 245.425C332.721 244.996 332.714 244.305 333.143 243.883C333.571 243.454 334.262 243.454 334.683 243.883Z" fill="#FBB6C2"/>
</g>
<g style="mix-blend-mode:overlay">
<path d="M344.087 234.468C344.516 234.897 344.516 235.588 344.087 236.01C343.659 236.44 342.968 236.44 342.547 236.01C342.118 235.581 342.118 234.89 342.547 234.468C342.975 234.039 343.666 234.039 344.087 234.468Z" fill="#FBB6C2"/>
</g>
<g style="mix-blend-mode:overlay">
<path d="M353.484 225.06C353.913 225.489 353.913 226.181 353.484 226.603C353.056 227.032 352.365 227.032 351.944 226.603C351.515 226.173 351.515 225.482 351.944 225.06C352.372 224.631 353.063 224.631 353.484 225.06Z" fill="#FBB6C2"/>
</g>
</g>
<g style="mix-blend-mode:overlay">
<g style="mix-blend-mode:overlay">
<path d="M314.56 280.197C314.988 280.626 314.988 281.317 314.56 281.739C314.131 282.168 313.44 282.168 313.019 281.739C312.59 281.31 312.59 280.619 313.019 280.197C313.448 279.767 314.138 279.767 314.56 280.197Z" fill="#FBB6C2"/>
</g>
<g style="mix-blend-mode:overlay">
<path d="M323.957 270.789C324.385 271.218 324.385 271.909 323.957 272.331C323.528 272.761 322.837 272.761 322.416 272.331C321.987 271.902 321.987 271.211 322.416 270.789C322.845 270.36 323.535 270.36 323.957 270.789Z" fill="#FBB6C2"/>
</g>
<g style="mix-blend-mode:overlay">
<path d="M333.361 261.374C333.79 261.803 333.79 262.494 333.361 262.916C332.932 263.338 332.242 263.346 331.82 262.916C331.391 262.487 331.391 261.796 331.82 261.374C332.249 260.945 332.939 260.945 333.361 261.374Z" fill="#FBB6C2"/>
</g>
<g style="mix-blend-mode:overlay">
<path d="M342.757 251.966C343.186 252.396 343.186 253.087 342.757 253.509C342.329 253.938 341.638 253.938 341.217 253.509C340.788 253.08 340.788 252.388 341.217 251.966C341.645 251.537 342.336 251.537 342.757 251.966Z" fill="#FBB6C2"/>
</g>
<g style="mix-blend-mode:overlay">
<path d="M352.162 242.559C352.591 242.988 352.591 243.679 352.162 244.101C351.733 244.53 351.043 244.53 350.621 244.101C350.2 243.672 350.192 242.981 350.621 242.559C351.05 242.129 351.74 242.129 352.162 242.559Z" fill="#FBB6C2"/>
</g>
<g style="mix-blend-mode:overlay">
<path d="M361.559 233.144C361.987 233.573 361.987 234.264 361.559 234.686C361.13 235.115 360.439 235.115 360.018 234.686C359.589 234.257 359.589 233.566 360.018 233.144C360.447 232.714 361.137 232.714 361.559 233.144Z" fill="#FBB6C2"/>
</g>
</g>
<g style="mix-blend-mode:overlay">
<g style="mix-blend-mode:overlay">
<path d="M322.634 288.28C323.063 288.709 323.063 289.401 322.634 289.823C322.205 290.252 321.515 290.252 321.093 289.823C320.664 289.393 320.664 288.702 321.093 288.28C321.522 287.851 322.212 287.851 322.634 288.28Z" fill="#FBB6C2"/>
</g>
<g style="mix-blend-mode:overlay">
<path d="M332.03 278.872C332.459 279.302 332.459 279.993 332.03 280.415C331.602 280.837 330.911 280.844 330.49 280.415C330.068 279.986 330.061 279.294 330.49 278.872C330.919 278.443 331.609 278.443 332.03 278.872Z" fill="#FBB6C2"/>
</g>
<g style="mix-blend-mode:overlay">
<path d="M341.435 269.458C341.864 269.887 341.864 270.578 341.435 271C341.006 271.429 340.316 271.429 339.894 271C339.466 270.571 339.466 269.88 339.894 269.458C340.323 269.028 341.014 269.028 341.435 269.458Z" fill="#FBB6C2"/>
</g>
<g style="mix-blend-mode:overlay">
<path d="M351.151 260.821C351.151 260.218 350.663 259.73 350.061 259.73C349.459 259.73 348.971 260.218 348.971 260.821C348.971 261.424 349.459 261.912 350.061 261.912C350.663 261.912 351.151 261.424 351.151 260.821Z" fill="#FBB6C2"/>
</g>
<g style="mix-blend-mode:overlay">
<path d="M360.236 250.642C360.665 251.071 360.665 251.763 360.236 252.185C359.807 252.607 359.117 252.614 358.695 252.185C358.266 251.755 358.266 251.064 358.695 250.642C359.124 250.213 359.814 250.213 360.236 250.642Z" fill="#FBB6C2"/>
</g>
<g style="mix-blend-mode:overlay">
<path d="M369.633 241.227C370.062 241.656 370.062 242.348 369.633 242.77C369.204 243.192 368.514 243.199 368.092 242.77C367.663 242.34 367.663 241.649 368.092 241.227C368.521 240.798 369.211 240.798 369.633 241.227Z" fill="#FBB6C2"/>
</g>
</g>
<g style="mix-blend-mode:overlay">
<g style="mix-blend-mode:overlay">
<path d="M330.708 296.363C331.137 296.793 331.137 297.484 330.708 297.906C330.279 298.335 329.589 298.335 329.167 297.906C328.745 297.477 328.738 296.785 329.167 296.363C329.596 295.941 330.286 295.934 330.708 296.363Z" fill="#FBB6C2"/>
</g>
<g style="mix-blend-mode:overlay">
<path d="M340.112 286.956C340.541 287.385 340.541 288.076 340.112 288.498C339.683 288.927 338.993 288.927 338.571 288.498C338.15 288.069 338.143 287.378 338.571 286.956C339 286.526 339.691 286.526 340.112 286.956Z" fill="#FBB6C2"/>
</g>
<g style="mix-blend-mode:overlay">
<path d="M349.829 278.319C349.829 277.717 349.341 277.228 348.739 277.228C348.137 277.228 347.648 277.717 347.648 278.319C347.648 278.922 348.137 279.411 348.739 279.411C349.341 279.411 349.829 278.922 349.829 278.319Z" fill="#FBB6C2"/>
</g>
<g style="mix-blend-mode:overlay">
<path d="M358.905 268.133C359.334 268.562 359.334 269.254 358.905 269.676C358.477 270.098 357.786 270.105 357.365 269.676C356.943 269.246 356.936 268.555 357.365 268.133C357.794 267.704 358.484 267.704 358.905 268.133Z" fill="#FBB6C2"/>
</g>
<g style="mix-blend-mode:overlay">
<path d="M368.31 258.725C368.739 259.155 368.739 259.846 368.31 260.268C367.881 260.697 367.191 260.697 366.769 260.268C366.341 259.839 366.341 259.147 366.769 258.725C367.198 258.303 367.889 258.296 368.31 258.725Z" fill="#FBB6C2"/>
</g>
<g style="mix-blend-mode:overlay">
<path d="M377.707 249.311C378.135 249.74 378.135 250.431 377.707 250.853C377.278 251.282 376.587 251.282 376.166 250.853C375.737 250.424 375.737 249.733 376.166 249.311C376.595 248.881 377.285 248.881 377.707 249.311Z" fill="#FBB6C2"/>
</g>
</g>
<g style="mix-blend-mode:overlay">
<g style="mix-blend-mode:overlay">
<path d="M338.782 304.447C339.211 304.876 339.211 305.567 338.782 305.989C338.353 306.419 337.663 306.419 337.242 305.989C336.813 305.56 336.813 304.869 337.242 304.447C337.67 304.018 338.361 304.018 338.782 304.447Z" fill="#FBB6C2"/>
</g>
<g style="mix-blend-mode:overlay">
<path d="M348.186 295.039C348.615 295.468 348.615 296.16 348.186 296.582C347.757 297.011 347.067 297.011 346.646 296.582C346.224 296.152 346.217 295.461 346.646 295.039C347.074 294.617 347.765 294.61 348.186 295.039Z" fill="#FBB6C2"/>
</g>
<g style="mix-blend-mode:overlay">
<path d="M357.584 285.631C358.012 286.061 358.012 286.752 357.584 287.174C357.155 287.603 356.464 287.603 356.043 287.174C355.614 286.745 355.614 286.053 356.043 285.631C356.472 285.202 357.162 285.202 357.584 285.631Z" fill="#FBB6C2"/>
</g>
<g style="mix-blend-mode:overlay">
<path d="M366.98 276.217C367.409 276.646 367.409 277.337 366.98 277.759C366.551 278.188 365.861 278.188 365.439 277.759C365.018 277.33 365.011 276.639 365.439 276.217C365.868 275.795 366.559 275.787 366.98 276.217Z" fill="#FBB6C2"/>
</g>
<g style="mix-blend-mode:overlay">
<path d="M376.384 266.809C376.813 267.238 376.813 267.929 376.384 268.351C375.956 268.781 375.265 268.781 374.844 268.351C374.422 267.922 374.415 267.231 374.844 266.809C375.273 266.38 375.963 266.38 376.384 266.809Z" fill="#FBB6C2"/>
</g>
<g style="mix-blend-mode:overlay">
<path d="M385.781 257.394C386.21 257.823 386.21 258.514 385.781 258.936C385.352 259.366 384.662 259.366 384.241 258.936C383.812 258.507 383.812 257.816 384.241 257.394C384.669 256.965 385.36 256.965 385.781 257.394Z" fill="#FBB6C2"/>
</g>
</g>
<g style="mix-blend-mode:overlay">
<g style="mix-blend-mode:overlay">
<path d="M346.856 312.53C347.285 312.96 347.285 313.651 346.856 314.073C346.428 314.502 345.737 314.502 345.316 314.073C344.887 313.644 344.887 312.952 345.316 312.53C345.745 312.101 346.435 312.101 346.856 312.53Z" fill="#FBB6C2"/>
</g>
<g style="mix-blend-mode:overlay">
<path d="M356.26 303.123C356.689 303.552 356.689 304.243 356.26 304.665C355.832 305.094 355.141 305.094 354.72 304.665C354.298 304.236 354.291 303.545 354.72 303.123C355.149 302.693 355.839 302.693 356.26 303.123Z" fill="#FBB6C2"/>
</g>
<g style="mix-blend-mode:overlay">
<path d="M365.658 293.715C366.086 294.144 366.086 294.835 365.658 295.257C365.229 295.687 364.539 295.687 364.117 295.257C363.688 294.828 363.688 294.137 364.117 293.715C364.546 293.293 365.236 293.286 365.658 293.715Z" fill="#FBB6C2"/>
</g>
<g style="mix-blend-mode:overlay">
<path d="M375.054 284.3C375.483 284.729 375.483 285.421 375.054 285.843C374.626 286.272 373.935 286.272 373.514 285.843C373.092 285.413 373.085 284.722 373.514 284.3C373.942 283.878 374.633 283.871 375.054 284.3Z" fill="#FBB6C2"/>
</g>
<g style="mix-blend-mode:overlay">
<path d="M384.458 274.892C384.887 275.322 384.887 276.013 384.458 276.435C384.03 276.864 383.339 276.864 382.918 276.435C382.489 276.006 382.489 275.314 382.918 274.892C383.347 274.463 384.037 274.463 384.458 274.892Z" fill="#FBB6C2"/>
</g>
<g style="mix-blend-mode:overlay">
<path d="M393.855 265.478C394.284 265.907 394.284 266.598 393.855 267.02C393.427 267.449 392.736 267.449 392.315 267.02C391.886 266.591 391.886 265.9 392.315 265.478C392.744 265.048 393.434 265.048 393.855 265.478Z" fill="#FBB6C2"/>
</g>
</g>
</g>
<g style="mix-blend-mode:overlay">
<g style="mix-blend-mode:overlay">
<g style="mix-blend-mode:overlay">
<path d="M110.806 510.33C111.416 509.719 112.405 509.719 113.015 510.33C113.626 510.941 113.626 511.93 113.015 512.542C112.405 513.153 111.416 513.153 110.806 512.542C110.196 511.93 110.196 510.941 110.806 510.33Z" fill="#FBB6C2"/>
</g>
<g style="mix-blend-mode:overlay">
<path d="M97.3392 496.848C97.9497 496.236 98.9381 496.236 99.5485 496.848C100.159 497.459 100.159 498.448 99.5485 499.059C98.9381 499.671 97.9497 499.671 97.3392 499.059C96.7287 498.448 96.7287 497.459 97.3392 496.848Z" fill="#FBB6C2"/>
</g>
<g style="mix-blend-mode:overlay">
<path d="M83.8651 483.358C84.4756 482.747 85.4639 482.747 86.0744 483.358C86.6849 483.969 86.6849 484.959 86.0744 485.57C85.4639 486.181 84.4756 486.181 83.8651 485.57C83.2546 484.959 83.2546 483.969 83.8651 483.358Z" fill="#FBB6C2"/>
</g>
<g style="mix-blend-mode:overlay">
<path d="M73.0655 470.982C73.0655 470.118 72.3659 469.418 71.5029 469.418C70.64 469.418 69.9404 470.118 69.9404 470.982C69.9404 471.846 70.64 472.546 71.5029 472.546C72.3659 472.546 73.0655 471.846 73.0655 470.982Z" fill="#FBB6C2"/>
</g>
<g style="mix-blend-mode:overlay">
<path d="M56.9247 456.387C57.5351 455.775 58.5235 455.775 59.134 456.387C59.7444 456.998 59.7444 457.987 59.134 458.599C58.5235 459.21 57.5351 459.21 56.9247 458.599C56.3142 457.987 56.3142 456.998 56.9247 456.387Z" fill="#FBB6C2"/>
</g>
<g style="mix-blend-mode:overlay">
<path d="M43.4579 442.905C44.0683 442.293 45.0567 442.293 45.6672 442.905C46.2776 443.516 46.2776 444.505 45.6672 445.116C45.0567 445.728 44.0683 445.728 43.4579 445.116C42.8474 444.505 42.8474 443.516 43.4579 442.905Z" fill="#FBB6C2"/>
</g>
</g>
<g style="mix-blend-mode:overlay">
<g style="mix-blend-mode:overlay">
<path d="M122.376 498.747C122.986 498.135 123.975 498.135 124.585 498.747C125.196 499.358 125.196 500.347 124.585 500.958C123.975 501.57 122.986 501.57 122.376 500.958C121.765 500.347 121.765 499.358 122.376 498.747Z" fill="#FBB6C2"/>
</g>
<g style="mix-blend-mode:overlay">
<path d="M108.909 485.264C109.519 484.653 110.508 484.653 111.118 485.264C111.729 485.876 111.729 486.865 111.118 487.476C110.508 488.087 109.519 488.087 108.909 487.476C108.299 486.865 108.299 485.876 108.909 485.264Z" fill="#FBB6C2"/>
</g>
<g style="mix-blend-mode:overlay">
<path d="M95.4349 471.775C96.0454 471.164 97.0337 471.164 97.6442 471.775C98.2547 472.386 98.2547 473.376 97.6442 473.987C97.0337 474.598 96.0454 474.598 95.4349 473.987C94.8244 473.376 94.8244 472.386 95.4349 471.775Z" fill="#FBB6C2"/>
</g>
<g style="mix-blend-mode:overlay">
<path d="M84.6353 459.399C84.6353 458.535 83.9357 457.835 83.0728 457.835C82.2098 457.835 81.5103 458.535 81.5103 459.399C81.5103 460.263 82.2098 460.963 83.0728 460.963C83.9357 460.963 84.6353 460.263 84.6353 459.399Z" fill="#FBB6C2"/>
</g>
<g style="mix-blend-mode:overlay">
<path d="M68.4945 444.804C69.1049 444.192 70.0933 444.192 70.7038 444.804C71.3143 445.415 71.3143 446.404 70.7038 447.015C70.0933 447.627 69.1049 447.627 68.4945 447.015C67.884 446.404 67.884 445.415 68.4945 444.804Z" fill="#FBB6C2"/>
</g>
<g style="mix-blend-mode:overlay">
<path d="M57.6949 432.427C57.6949 431.563 56.9953 430.863 56.1323 430.863C55.2694 430.863 54.5698 431.563 54.5698 432.427C54.5698 433.291 55.2694 433.992 56.1323 433.992C56.9953 433.992 57.6949 433.291 57.6949 432.427Z" fill="#FBB6C2"/>
</g>
</g>
<g style="mix-blend-mode:overlay">
<g style="mix-blend-mode:overlay">
<path d="M136.613 488.269C136.613 487.405 135.913 486.705 135.05 486.705C134.187 486.705 133.488 487.405 133.488 488.269C133.488 489.133 134.187 489.834 135.05 489.834C135.913 489.834 136.613 489.133 136.613 488.269Z" fill="#FBB6C2"/>
</g>
<g style="mix-blend-mode:overlay">
<path d="M120.479 473.681C121.089 473.07 122.078 473.07 122.688 473.681C123.299 474.292 123.299 475.282 122.688 475.893C122.078 476.504 121.089 476.504 120.479 475.893C119.868 475.282 119.868 474.292 120.479 473.681Z" fill="#FBB6C2"/>
</g>
<g style="mix-blend-mode:overlay">
<path d="M109.672 461.298C109.672 460.434 108.972 459.734 108.109 459.734C107.246 459.734 106.547 460.434 106.547 461.298C106.547 462.162 107.246 462.862 108.109 462.862C108.972 462.862 109.672 462.162 109.672 461.298Z" fill="#FBB6C2"/>
</g>
<g style="mix-blend-mode:overlay">
<path d="M96.2051 447.816C96.2051 446.952 95.5056 446.252 94.6426 446.252C93.7797 446.252 93.0801 446.952 93.0801 447.816C93.0801 448.68 93.7797 449.38 94.6426 449.38C95.5056 449.38 96.2051 448.68 96.2051 447.816Z" fill="#FBB6C2"/>
</g>
<g style="mix-blend-mode:overlay">
<path d="M82.7388 434.326C82.7388 433.462 82.0393 432.762 81.1763 432.762C80.3133 432.762 79.6138 433.462 79.6138 434.326C79.6138 435.19 80.3133 435.891 81.1763 435.891C82.0393 435.891 82.7388 435.19 82.7388 434.326Z" fill="#FBB6C2"/>
</g>
<g style="mix-blend-mode:overlay">
<path d="M66.5975 419.738C67.208 419.127 68.1963 419.127 68.8068 419.738C69.4173 420.35 69.4173 421.339 68.8068 421.95C68.1963 422.561 67.208 422.561 66.5975 421.95C65.987 421.339 65.987 420.35 66.5975 419.738Z" fill="#FBB6C2"/>
</g>
</g>
<g style="mix-blend-mode:overlay">
<g style="mix-blend-mode:overlay">
<path d="M145.523 475.58C146.133 474.969 147.122 474.969 147.732 475.58C148.343 476.192 148.343 477.181 147.732 477.792C147.122 478.403 146.133 478.403 145.523 477.792C144.912 477.181 144.912 476.192 145.523 475.58Z" fill="#FBB6C2"/>
</g>
<g style="mix-blend-mode:overlay">
<path d="M132.049 462.098C132.659 461.487 133.648 461.487 134.258 462.098C134.868 462.709 134.868 463.699 134.258 464.31C133.648 464.921 132.659 464.921 132.049 464.31C131.438 463.699 131.438 462.709 132.049 462.098Z" fill="#FBB6C2"/>
</g>
<g style="mix-blend-mode:overlay">
<path d="M118.582 448.609C119.192 447.998 120.181 447.998 120.791 448.609C121.402 449.22 121.402 450.21 120.791 450.821C120.181 451.432 119.192 451.432 118.582 450.821C117.971 450.21 117.971 449.22 118.582 448.609Z" fill="#FBB6C2"/>
</g>
<g style="mix-blend-mode:overlay">
<path d="M107.775 436.233C107.775 435.369 107.075 434.668 106.212 434.668C105.349 434.668 104.65 435.369 104.65 436.233C104.65 437.097 105.349 437.797 106.212 437.797C107.075 437.797 107.775 437.097 107.775 436.233Z" fill="#FBB6C2"/>
</g>
<g style="mix-blend-mode:overlay">
<path d="M91.6414 421.637C92.2519 421.026 93.2403 421.026 93.8508 421.637C94.4612 422.248 94.4612 423.238 93.8508 423.849C93.2403 424.46 92.2519 424.46 91.6414 423.849C91.031 423.238 91.031 422.248 91.6414 421.637Z" fill="#FBB6C2"/>
</g>
<g style="mix-blend-mode:overlay">
<path d="M80.8345 409.261C80.8345 408.397 80.1349 407.697 79.272 407.697C78.409 407.697 77.7095 408.397 77.7095 409.261C77.7095 410.125 78.409 410.825 79.272 410.825C80.1349 410.825 80.8345 410.125 80.8345 409.261Z" fill="#FBB6C2"/>
</g>
</g>
<g style="mix-blend-mode:overlay">
<g style="mix-blend-mode:overlay">
<path d="M159.76 465.103C159.76 464.239 159.06 463.539 158.197 463.539C157.334 463.539 156.635 464.239 156.635 465.103C156.635 465.967 157.334 466.667 158.197 466.667C159.06 466.667 159.76 465.967 159.76 465.103Z" fill="#FBB6C2"/>
</g>
<g style="mix-blend-mode:overlay">
<path d="M143.618 450.515C144.229 449.904 145.217 449.904 145.828 450.515C146.438 451.126 146.438 452.116 145.828 452.727C145.217 453.338 144.229 453.338 143.618 452.727C143.008 452.116 143.008 451.126 143.618 450.515Z" fill="#FBB6C2"/>
</g>
<g style="mix-blend-mode:overlay">
<path d="M132.819 438.132C132.819 437.268 132.119 436.567 131.256 436.567C130.393 436.567 129.694 437.268 129.694 438.132C129.694 438.996 130.393 439.696 131.256 439.696C132.119 439.696 132.819 438.996 132.819 438.132Z" fill="#FBB6C2"/>
</g>
<g style="mix-blend-mode:overlay">
<path d="M119.345 424.65C119.345 423.786 118.645 423.085 117.782 423.085C116.919 423.085 116.22 423.786 116.22 424.65C116.22 425.513 116.919 426.214 117.782 426.214C118.645 426.214 119.345 425.513 119.345 424.65Z" fill="#FBB6C2"/>
</g>
<g style="mix-blend-mode:overlay">
<path d="M105.878 411.16C105.878 410.296 105.179 409.596 104.316 409.596C103.453 409.596 102.753 410.296 102.753 411.16C102.753 412.024 103.453 412.724 104.316 412.724C105.179 412.724 105.878 412.024 105.878 411.16Z" fill="#FBB6C2"/>
</g>
<g style="mix-blend-mode:overlay">
<path d="M89.7372 396.572C90.3476 395.961 91.336 395.961 91.9465 396.572C92.5569 397.183 92.5569 398.173 91.9465 398.784C91.336 399.395 90.3476 399.395 89.7372 398.784C89.1267 398.173 89.1267 397.183 89.7372 396.572Z" fill="#FBB6C2"/>
</g>
</g>
<g style="mix-blend-mode:overlay">
<g style="mix-blend-mode:overlay">
<path d="M168.663 452.414C169.273 451.803 170.262 451.803 170.872 452.414C171.483 453.025 171.483 454.015 170.872 454.626C170.262 455.237 169.273 455.237 168.663 454.626C168.052 454.015 168.052 453.025 168.663 452.414Z" fill="#FBB6C2"/>
</g>
<g style="mix-blend-mode:overlay">
<path d="M155.189 438.925C155.799 438.314 156.788 438.314 157.398 438.925C158.009 439.536 158.009 440.525 157.398 441.137C156.788 441.748 155.799 441.748 155.189 441.137C154.578 440.525 154.578 439.536 155.189 438.925Z" fill="#FBB6C2"/>
</g>
<g style="mix-blend-mode:overlay">
<path d="M141.722 425.443C142.332 424.831 143.321 424.831 143.931 425.443C144.542 426.054 144.542 427.043 143.931 427.654C143.321 428.266 142.332 428.266 141.722 427.654C141.112 427.043 141.112 426.054 141.722 425.443Z" fill="#FBB6C2"/>
</g>
<g style="mix-blend-mode:overlay">
<path d="M128.248 411.961C128.859 411.349 129.847 411.349 130.458 411.961C131.068 412.572 131.068 413.561 130.458 414.172C129.847 414.784 128.859 414.784 128.248 414.172C127.638 413.561 127.638 412.572 128.248 411.961Z" fill="#FBB6C2"/>
</g>
<g style="mix-blend-mode:overlay">
<path d="M114.782 398.471C115.392 397.86 116.38 397.86 116.991 398.471C117.601 399.082 117.601 400.072 116.991 400.683C116.38 401.294 115.392 401.294 114.782 400.683C114.171 400.072 114.171 399.082 114.782 398.471Z" fill="#FBB6C2"/>
</g>
<g style="mix-blend-mode:overlay">
<path d="M101.307 384.989C101.918 384.378 102.906 384.378 103.517 384.989C104.127 385.6 104.127 386.59 103.517 387.201C102.906 387.812 101.918 387.812 101.307 387.201C100.697 386.59 100.697 385.6 101.307 384.989Z" fill="#FBB6C2"/>
</g>
</g>
<g style="mix-blend-mode:overlay">
<g style="mix-blend-mode:overlay">
<path d="M180.233 440.831C180.843 440.22 181.832 440.22 182.442 440.831C183.053 441.442 183.053 442.432 182.442 443.043C181.832 443.654 180.843 443.654 180.233 443.043C179.622 442.432 179.622 441.442 180.233 440.831Z" fill="#FBB6C2"/>
</g>
<g style="mix-blend-mode:overlay">
<path d="M166.759 427.342C167.369 426.73 168.357 426.73 168.968 427.342C169.578 427.953 169.578 428.942 168.968 429.553C168.357 430.165 167.369 430.165 166.759 429.553C166.148 428.942 166.148 427.953 166.759 427.342Z" fill="#FBB6C2"/>
</g>
<g style="mix-blend-mode:overlay">
<path d="M155.959 414.965C155.959 414.101 155.259 413.401 154.397 413.401C153.534 413.401 152.834 414.101 152.834 414.965C152.834 415.829 153.534 416.53 154.397 416.53C155.259 416.53 155.959 415.829 155.959 414.965Z" fill="#FBB6C2"/>
</g>
<g style="mix-blend-mode:overlay">
<path d="M139.818 400.37C140.428 399.759 141.417 399.759 142.027 400.37C142.638 400.981 142.638 401.971 142.027 402.582C141.417 403.193 140.428 403.193 139.818 402.582C139.207 401.971 139.207 400.981 139.818 400.37Z" fill="#FBB6C2"/>
</g>
<g style="mix-blend-mode:overlay">
<path d="M126.351 386.888C126.962 386.277 127.95 386.277 128.561 386.888C129.171 387.499 129.171 388.489 128.561 389.1C127.95 389.711 126.962 389.711 126.351 389.1C125.741 388.489 125.741 387.499 126.351 386.888Z" fill="#FBB6C2"/>
</g>
<g style="mix-blend-mode:overlay">
<path d="M112.877 373.398C113.488 372.787 114.476 372.787 115.087 373.398C115.697 374.01 115.697 374.999 115.087 375.61C114.476 376.222 113.488 376.222 112.877 375.61C112.267 374.999 112.267 374.01 112.877 373.398Z" fill="#FBB6C2"/>
</g>
</g>
</g>
<path d="M452.722 112.41L438 97.7051L452.722 83L456.882 87.1547L446.319 97.7051L456.882 108.256L452.722 112.41Z" fill="#6C1322"/>
<path d="M470.933 112.41L456.227 97.7051L470.933 83L475.092 87.1547L464.53 97.7051L475.092 108.256L470.933 112.41Z" fill="#F65570"/>
<path d="M489.159 112.41L474.437 97.7051L489.159 83L493.302 87.1547L482.74 97.7051L493.302 108.256L489.159 112.41Z" fill="#F65570"/>
<path d="M50.722 390.41L36 375.705L50.722 361L54.8651 365.155L44.3026 375.705L54.8651 386.256L50.722 390.41Z" fill="#F65570"/>
<path d="M436.706 355L425 344L436.706 333L440 336.108L431.602 344L440 351.892L436.706 355Z" fill="#C4233E"/>
<path d="M57.7057 242L46 231L57.7057 220L61 223.108L52.6016 231L61 238.892L57.7057 242Z" fill="#DC3C57"/>
<path d="M507.369 112.41L492.647 97.7051L507.369 83L511.529 87.1547L500.966 97.7051L511.529 108.256L507.369 112.41Z" fill="#F65570"/>
</svg>
