<svg width="100%" height="100%" viewBox="0 0 135 204" fill="none" xmlns="http://www.w3.org/2000/svg">
<path d="M190.927 148.4L135.476 203.915L80.0244 148.4L135.476 92.8857L190.927 148.4ZM135.476 185.398L172.431 148.4L135.476 111.403L98.5202 148.4L135.476 185.398Z" fill="#C4233E"/>
<g style="mix-blend-mode:overlay">
<g style="mix-blend-mode:overlay">
<g style="mix-blend-mode:overlay">
<path d="M1.8623 75.109C2.29108 75.5382 2.29108 76.2294 1.8623 76.6514C1.43351 77.0807 0.743103 77.0807 0.321587 76.6514C-0.107196 76.2222 -0.107196 75.531 0.321587 75.109C0.750371 74.6797 1.44078 74.6797 1.8623 75.109Z" fill="#FBB6C2"/>
</g>
<g style="mix-blend-mode:overlay">
<path d="M11.259 65.7012C11.6878 66.1305 11.6878 66.8217 11.259 67.2437C10.8302 67.673 10.1398 67.673 9.71828 67.2437C9.29677 66.8144 9.2895 66.1232 9.71828 65.7012C10.1471 65.2792 10.8375 65.272 11.259 65.7012Z" fill="#FBB6C2"/>
</g>
<g style="mix-blend-mode:overlay">
<path d="M20.6636 56.2937C21.0923 56.7229 21.0923 57.4141 20.6636 57.8361C20.2348 58.2654 19.5444 58.2654 19.1229 57.8361C18.6941 57.4069 18.6941 56.7156 19.1229 56.2937C19.5516 55.8644 20.2421 55.8644 20.6636 56.2937Z" fill="#FBB6C2"/>
</g>
<g style="mix-blend-mode:overlay">
<path d="M30.0601 46.8787C30.4889 47.308 30.4889 47.9992 30.0601 48.4212C29.6313 48.8505 28.9409 48.8505 28.5193 48.4212C28.0906 47.9919 28.0906 47.3007 28.5193 46.8787C28.9481 46.4495 29.6386 46.4495 30.0601 46.8787Z" fill="#FBB6C2"/>
</g>
<g style="mix-blend-mode:overlay">
<path d="M39.457 37.471C39.8858 37.9003 39.8858 38.5915 39.457 39.0135C39.0282 39.4428 38.3378 39.4428 37.9163 39.0135C37.4875 38.5842 37.4875 37.893 37.9163 37.471C38.3451 37.049 39.0355 37.0417 39.457 37.471Z" fill="#FBB6C2"/>
</g>
<g style="mix-blend-mode:overlay">
<path d="M48.8613 28.0561C49.2901 28.4854 49.2901 29.1766 48.8613 29.5986C48.4325 30.0279 47.7421 30.0279 47.3206 29.5986C46.8918 29.1693 46.8918 28.4781 47.3206 28.0561C47.7494 27.6268 48.4398 27.6268 48.8613 28.0561Z" fill="#FBB6C2"/>
</g>
</g>
<g style="mix-blend-mode:overlay">
<g style="mix-blend-mode:overlay">
<path d="M9.93654 83.1998C10.3653 83.629 10.3653 84.3203 9.93654 84.7423C9.50775 85.1715 8.81732 85.1715 8.39581 84.7423C7.96702 84.313 7.96702 83.6218 8.39581 83.1998C8.82459 82.7705 9.51502 82.7705 9.93654 83.1998Z" fill="#FBB6C2"/>
</g>
<g style="mix-blend-mode:overlay">
<path d="M19.3332 73.7848C19.762 74.2141 19.762 74.9053 19.3332 75.3273C18.9044 75.7566 18.214 75.7566 17.7925 75.3273C17.371 74.8981 17.3637 74.2068 17.7925 73.7848C18.2213 73.3556 18.9117 73.3556 19.3332 73.7848Z" fill="#FBB6C2"/>
</g>
<g style="mix-blend-mode:overlay">
<path d="M28.7378 64.3771C29.1666 64.8064 29.1666 65.4976 28.7378 65.9196C28.309 66.3489 27.6186 66.3489 27.1971 65.9196C26.7683 65.4903 26.7683 64.7991 27.1971 64.3771C27.6259 63.9479 28.3163 63.9479 28.7378 64.3771Z" fill="#FBB6C2"/>
</g>
<g style="mix-blend-mode:overlay">
<path d="M38.1345 54.9623C38.5633 55.3915 38.5633 56.0827 38.1345 56.5047C37.7057 56.9267 37.0153 56.934 36.5938 56.5047C36.1723 56.0755 36.165 55.3843 36.5938 54.9623C37.0226 54.533 37.713 54.533 38.1345 54.9623Z" fill="#FBB6C2"/>
</g>
<g style="mix-blend-mode:overlay">
<path d="M47.5386 45.5545C47.9673 45.9838 47.9673 46.675 47.5386 47.097C47.1098 47.5263 46.4194 47.5263 45.9979 47.097C45.5691 46.6677 45.5691 45.9765 45.9979 45.5545C46.4266 45.1252 47.1171 45.1252 47.5386 45.5545Z" fill="#FBB6C2"/>
</g>
<g style="mix-blend-mode:overlay">
<path d="M56.9355 36.1396C57.3643 36.5689 57.3643 37.2601 56.9355 37.6821C56.5068 38.1113 55.8163 38.1113 55.3948 37.6821C54.966 37.2528 54.966 36.5616 55.3948 36.1396C55.8236 35.7103 56.514 35.7103 56.9355 36.1396Z" fill="#FBB6C2"/>
</g>
</g>
<g style="mix-blend-mode:overlay">
<g style="mix-blend-mode:overlay">
<path d="M18.0107 91.2832C18.4395 91.7124 18.4395 92.4036 18.0107 92.8256C17.582 93.2549 16.8915 93.2549 16.47 92.8256C16.0412 92.3964 16.0412 91.7052 16.47 91.2832C16.8988 90.8539 17.5892 90.8539 18.0107 91.2832Z" fill="#FBB6C2"/>
</g>
<g style="mix-blend-mode:overlay">
<path d="M27.4077 81.8682C27.8365 82.2975 27.8365 82.9887 27.4077 83.4107C26.9789 83.84 26.2885 83.84 25.867 83.4107C25.4382 82.9814 25.4382 82.2902 25.867 81.8682C26.2958 81.439 26.9862 81.439 27.4077 81.8682Z" fill="#FBB6C2"/>
</g>
<g style="mix-blend-mode:overlay">
<path d="M36.812 72.4606C37.2408 72.8898 37.2408 73.581 36.812 74.003C36.3832 74.425 35.6928 74.4323 35.2713 74.003C34.8425 73.5738 34.8425 72.8826 35.2713 72.4606C35.7001 72.0313 36.3905 72.0313 36.812 72.4606Z" fill="#FBB6C2"/>
</g>
<g style="mix-blend-mode:overlay">
<path d="M46.2085 63.0456C46.6373 63.4749 46.6373 64.1661 46.2085 64.5881C45.7797 65.0174 45.0893 65.0174 44.6678 64.5881C44.239 64.1588 44.239 63.4676 44.6678 63.0456C45.0966 62.6163 45.787 62.6163 46.2085 63.0456Z" fill="#FBB6C2"/>
</g>
<g style="mix-blend-mode:overlay">
<path d="M55.613 53.638C56.0418 54.0673 56.0418 54.7585 55.613 55.1805C55.1842 55.6098 54.4938 55.6098 54.0723 55.1805C53.6508 54.7512 53.6435 54.06 54.0723 53.638C54.5011 53.2087 55.1915 53.2087 55.613 53.638Z" fill="#FBB6C2"/>
</g>
<g style="mix-blend-mode:overlay">
<path d="M65.0098 44.223C65.4385 44.6522 65.4385 45.3434 65.0098 45.7654C64.581 46.1947 63.8906 46.1947 63.469 45.7654C63.0403 45.3362 63.0403 44.645 63.469 44.223C63.8978 43.7937 64.5882 43.7937 65.0098 44.223Z" fill="#FBB6C2"/>
</g>
</g>
<g style="mix-blend-mode:overlay">
<g style="mix-blend-mode:overlay">
<path d="M26.085 99.3666C26.5138 99.7959 26.5138 100.487 26.085 100.909C25.6562 101.338 24.9658 101.338 24.5442 100.909C24.1155 100.48 24.1155 99.7886 24.5442 99.3666C24.973 98.9374 25.6635 98.9374 26.085 99.3666Z" fill="#FBB6C2"/>
</g>
<g style="mix-blend-mode:overlay">
<path d="M35.4816 89.9517C35.9104 90.381 35.9104 91.0722 35.4816 91.4942C35.0528 91.9162 34.3625 91.9235 33.9409 91.4942C33.5194 91.065 33.5122 90.3737 33.9409 89.9517C34.3697 89.5225 35.0601 89.5225 35.4816 89.9517Z" fill="#FBB6C2"/>
</g>
<g style="mix-blend-mode:overlay">
<path d="M44.8862 80.544C45.315 80.9733 45.315 81.6645 44.8862 82.0865C44.4574 82.5158 43.767 82.5158 43.3455 82.0865C42.9167 81.6572 42.9167 80.966 43.3455 80.544C43.7743 80.1147 44.4647 80.1147 44.8862 80.544Z" fill="#FBB6C2"/>
</g>
<g style="mix-blend-mode:overlay">
<path d="M54.6026 71.9003C54.6026 71.2976 54.1146 70.8089 53.5125 70.8089C52.9104 70.8089 52.4224 71.2976 52.4224 71.9003C52.4224 72.5031 52.9104 72.9917 53.5125 72.9917C54.1146 72.9917 54.6026 72.5031 54.6026 71.9003Z" fill="#FBB6C2"/>
</g>
<g style="mix-blend-mode:overlay">
<path d="M63.687 61.7214C64.1158 62.1507 64.1158 62.8419 63.687 63.2639C63.2582 63.6859 62.5678 63.6932 62.1463 63.2639C61.7175 62.8346 61.7175 62.1434 62.1463 61.7214C62.5751 61.2921 63.2655 61.2921 63.687 61.7214Z" fill="#FBB6C2"/>
</g>
<g style="mix-blend-mode:overlay">
<path d="M73.084 52.3065C73.5128 52.7358 73.5128 53.427 73.084 53.849C72.6552 54.271 71.9648 54.2783 71.5433 53.849C71.1145 53.4197 71.1145 52.7285 71.5433 52.3065C71.9721 51.8772 72.6625 51.8772 73.084 52.3065Z" fill="#FBB6C2"/>
</g>
</g>
<g style="mix-blend-mode:overlay">
<g style="mix-blend-mode:overlay">
<path d="M34.1594 107.45C34.5882 107.879 34.5882 108.571 34.1594 108.993C33.7306 109.422 33.0402 109.422 32.6187 108.993C32.1972 108.563 32.1899 107.872 32.6187 107.45C33.0475 107.028 33.7379 107.021 34.1594 107.45Z" fill="#FBB6C2"/>
</g>
<g style="mix-blend-mode:overlay">
<path d="M43.5564 98.0352C43.9851 98.4645 43.9851 99.1557 43.5564 99.5777C43.1276 100.007 42.4372 100.007 42.0156 99.5777C41.5941 99.1484 41.5869 98.4572 42.0156 98.0352C42.4444 97.606 43.1348 97.606 43.5564 98.0352Z" fill="#FBB6C2"/>
</g>
<g style="mix-blend-mode:overlay">
<path d="M53.2804 89.3987C53.2804 88.796 52.7923 88.3074 52.1902 88.3074C51.5882 88.3074 51.1001 88.796 51.1001 89.3987C51.1001 90.0015 51.5882 90.4901 52.1902 90.4901C52.7923 90.4901 53.2804 90.0015 53.2804 89.3987Z" fill="#FBB6C2"/>
</g>
<g style="mix-blend-mode:overlay">
<path d="M62.3571 79.2126C62.7859 79.6419 62.7859 80.3331 62.3571 80.7551C61.9284 81.1771 61.2379 81.1844 60.8164 80.7551C60.3949 80.3258 60.3876 79.6346 60.8164 79.2126C61.2452 78.7834 61.9356 78.7834 62.3571 79.2126Z" fill="#FBB6C2"/>
</g>
<g style="mix-blend-mode:overlay">
<path d="M71.7617 69.805C72.1905 70.2343 72.1905 70.9255 71.7617 71.3475C71.3329 71.7768 70.6425 71.7768 70.221 71.3475C69.7922 70.9182 69.7922 70.227 70.221 69.805C70.6498 69.383 71.3402 69.3757 71.7617 69.805Z" fill="#FBB6C2"/>
</g>
<g style="mix-blend-mode:overlay">
<path d="M81.1582 60.39C81.587 60.8192 81.587 61.5104 81.1582 61.9324C80.7294 62.3617 80.039 62.3617 79.6175 61.9324C79.1887 61.5032 79.1887 60.812 79.6175 60.39C80.0463 59.9607 80.7367 59.9607 81.1582 60.39Z" fill="#FBB6C2"/>
</g>
</g>
<g style="mix-blend-mode:overlay">
<g style="mix-blend-mode:overlay">
<path d="M42.2334 115.534C42.6622 115.963 42.6622 116.654 42.2334 117.076C41.8046 117.505 41.1142 117.505 40.6927 117.076C40.2639 116.647 40.2639 115.956 40.6927 115.534C41.1215 115.104 41.8119 115.104 42.2334 115.534Z" fill="#FBB6C2"/>
</g>
<g style="mix-blend-mode:overlay">
<path d="M51.6301 106.119C52.0589 106.548 52.0589 107.239 51.6301 107.661C51.2013 108.09 50.5109 108.09 50.0894 107.661C49.6679 107.232 49.6606 106.541 50.0894 106.119C50.5182 105.697 51.2086 105.689 51.6301 106.119Z" fill="#FBB6C2"/>
</g>
<g style="mix-blend-mode:overlay">
<path d="M61.0347 96.7109C61.4634 97.1402 61.4634 97.8314 61.0347 98.2534C60.6059 98.6826 59.9155 98.6826 59.494 98.2534C59.0652 97.8241 59.0652 97.1329 59.494 96.7109C59.9227 96.2816 60.6131 96.2816 61.0347 96.7109Z" fill="#FBB6C2"/>
</g>
<g style="mix-blend-mode:overlay">
<path d="M70.4314 87.296C70.8601 87.7252 70.8601 88.4164 70.4314 88.8384C70.0026 89.2677 69.3122 89.2677 68.8906 88.8384C68.4691 88.4092 68.4619 87.718 68.8906 87.296C69.3194 86.874 70.0098 86.8667 70.4314 87.296Z" fill="#FBB6C2"/>
</g>
<g style="mix-blend-mode:overlay">
<path d="M79.8357 77.8884C80.2644 78.3177 80.2644 79.0089 79.8357 79.4309C79.4069 79.8601 78.7165 79.8601 78.2949 79.4309C77.8734 79.0016 77.8662 78.3104 78.2949 77.8884C78.7237 77.4591 79.4141 77.4591 79.8357 77.8884Z" fill="#FBB6C2"/>
</g>
<g style="mix-blend-mode:overlay">
<path d="M89.2324 68.4733C89.6612 68.9026 89.6612 69.5938 89.2324 70.0158C88.8036 70.4451 88.1132 70.4451 87.6917 70.0158C87.2629 69.5865 87.2629 68.8953 87.6917 68.4733C88.1205 68.0441 88.8109 68.0441 89.2324 68.4733Z" fill="#FBB6C2"/>
</g>
</g>
<g style="mix-blend-mode:overlay">
<g style="mix-blend-mode:overlay">
<path d="M50.3076 123.617C50.7364 124.046 50.7364 124.737 50.3076 125.159C49.8788 125.589 49.1884 125.589 48.7669 125.159C48.3381 124.73 48.3381 124.039 48.7669 123.617C49.1957 123.188 49.8861 123.188 50.3076 123.617Z" fill="#FBB6C2"/>
</g>
<g style="mix-blend-mode:overlay">
<path d="M59.7043 114.202C60.1331 114.631 60.1331 115.323 59.7043 115.745C59.2755 116.174 58.5851 116.174 58.1636 115.745C57.7421 115.315 57.7348 114.624 58.1636 114.202C58.5924 113.773 59.2828 113.773 59.7043 114.202Z" fill="#FBB6C2"/>
</g>
<g style="mix-blend-mode:overlay">
<path d="M69.1089 104.794C69.5377 105.224 69.5377 105.915 69.1089 106.337C68.6801 106.766 67.9897 106.766 67.5682 106.337C67.1394 105.908 67.1394 105.216 67.5682 104.794C67.997 104.372 68.6874 104.365 69.1089 104.794Z" fill="#FBB6C2"/>
</g>
<g style="mix-blend-mode:overlay">
<path d="M78.5056 95.3795C78.9344 95.8087 78.9344 96.4999 78.5056 96.9219C78.0768 97.3512 77.3864 97.3512 76.9649 96.9219C76.5433 96.4927 76.5361 95.8015 76.9649 95.3795C77.3936 94.9575 78.0841 94.9502 78.5056 95.3795Z" fill="#FBB6C2"/>
</g>
<g style="mix-blend-mode:overlay">
<path d="M87.9097 85.9719C88.3384 86.4011 88.3384 87.0923 87.9097 87.5143C87.4809 87.9436 86.7905 87.9436 86.369 87.5143C85.9402 87.0851 85.9402 86.3938 86.369 85.9719C86.7977 85.5426 87.4881 85.5426 87.9097 85.9719Z" fill="#FBB6C2"/>
</g>
<g style="mix-blend-mode:overlay">
<path d="M97.3066 76.5568C97.7354 76.9861 97.7354 77.6773 97.3066 78.0993C96.8778 78.5286 96.1874 78.5286 95.7659 78.0993C95.3371 77.67 95.3371 76.9788 95.7659 76.5568C96.1947 76.1276 96.8851 76.1276 97.3066 76.5568Z" fill="#FBB6C2"/>
</g>
</g>
</g>
<path d="M65.6492 29.4103L50.9272 14.7051L65.6492 0L69.8087 4.15475L59.2462 14.7051L69.8087 25.2555L65.6492 29.4103Z" fill="#6C1322"/>
<path d="M83.8594 29.4103L69.1538 14.7051L83.8594 0L88.0189 4.15475L77.4564 14.7051L88.0189 25.2555L83.8594 29.4103Z" fill="#F65570"/>
<path d="M102.086 29.4103L87.3638 14.7051L102.086 0L106.229 4.15475L95.6664 14.7051L106.229 25.2555L102.086 29.4103Z" fill="#F65570"/>
<path d="M120.296 29.4103L105.574 14.7051L120.296 0L124.456 4.15475L113.893 14.7051L124.456 25.2555L120.296 29.4103Z" fill="#F65570"/>
</svg>
