<svg width="100%" height="100%" viewBox="0 0 300 238" fill="none" xmlns="http://www.w3.org/2000/svg">
<path d="M-137.55 173L35.871 346.235L209.304 173L35.871 -0.234308L-137.562 173L-137.55 173ZM35.8828 295.893L-87.1506 173L35.8829 50.1075L158.916 173L35.8828 295.893Z" fill="#FBB6C2"/>
<g style="mix-blend-mode:overlay">
<g style="mix-blend-mode:overlay">
<g style="mix-blend-mode:overlay">
<path d="M260.335 227.564C259.638 226.868 258.516 226.868 257.83 227.564C257.145 228.26 257.133 229.381 257.83 230.066C258.527 230.762 259.65 230.762 260.335 230.066C261.032 229.369 261.032 228.248 260.335 227.564Z" fill="#FBB6C2"/>
</g>
</g>
<g style="mix-blend-mode:overlay">
<g style="mix-blend-mode:overlay">
<path d="M231.921 229.711C231.224 229.014 230.102 229.014 229.417 229.711C228.72 230.407 228.72 231.528 229.417 232.212C230.114 232.909 231.236 232.909 231.921 232.212C232.607 231.516 232.619 230.395 231.921 229.711Z" fill="#FBB6C2"/>
</g>
<g style="mix-blend-mode:overlay">
<path d="M247.209 214.453C246.512 213.757 245.39 213.757 244.704 214.453C244.007 215.149 244.007 216.27 244.704 216.955C245.401 217.651 246.524 217.651 247.209 216.955C247.906 216.259 247.906 215.138 247.209 214.453Z" fill="#FBB6C2"/>
</g>
</g>
<g style="mix-blend-mode:overlay">
<g style="mix-blend-mode:overlay">
<path d="M203.52 231.871C202.823 231.175 201.701 231.175 201.015 231.871C200.318 232.567 200.318 233.688 201.015 234.373C201.712 235.057 202.835 235.069 203.52 234.373C204.205 233.677 204.217 232.556 203.52 231.871Z" fill="#FBB6C2"/>
</g>
<g style="mix-blend-mode:overlay">
<path d="M218.796 216.601C218.099 215.905 216.977 215.905 216.291 216.601C215.594 217.297 215.594 218.418 216.291 219.103C216.988 219.787 218.111 219.799 218.796 219.103C219.493 218.406 219.493 217.285 218.796 216.601Z" fill="#FBB6C2"/>
</g>
<g style="mix-blend-mode:overlay">
<path d="M234.084 201.343C233.387 200.646 232.264 200.646 231.579 201.343C230.882 202.039 230.882 203.16 231.579 203.844C232.276 204.541 233.398 204.541 234.084 203.844C234.781 203.148 234.781 202.027 234.084 201.343Z" fill="#FBB6C2"/>
</g>
</g>
<g style="mix-blend-mode:overlay">
<g style="mix-blend-mode:overlay">
<path d="M175.107 234.018C174.41 233.322 173.288 233.322 172.602 234.018C171.905 234.715 171.905 235.836 172.602 236.52C173.299 237.216 174.422 237.216 175.107 236.52C175.792 235.824 175.804 234.703 175.107 234.018Z" fill="#FBB6C2"/>
</g>
<g style="mix-blend-mode:overlay">
<path d="M190.395 218.76C189.698 218.064 188.575 218.064 187.89 218.76C187.193 219.457 187.193 220.578 187.89 221.262C188.587 221.946 189.709 221.958 190.395 221.262C191.08 220.566 191.092 219.445 190.395 218.76Z" fill="#FBB6C2"/>
</g>
<g style="mix-blend-mode:overlay">
<path d="M205.67 203.49C204.973 202.794 203.851 202.794 203.166 203.49C202.469 204.186 202.469 205.308 203.166 205.992C203.863 206.688 204.985 206.688 205.67 205.992C206.368 205.296 206.368 204.175 205.67 203.49Z" fill="#FBB6C2"/>
</g>
<g style="mix-blend-mode:overlay">
<path d="M220.958 188.232C220.261 187.535 219.139 187.535 218.453 188.232C217.756 188.928 217.756 190.049 218.453 190.733C219.15 191.43 220.273 191.43 220.958 190.733C221.655 190.037 221.655 188.916 220.958 188.232Z" fill="#FBB6C2"/>
</g>
</g>
</g>
<path d="M59.9174 180.862L36.0397 156.957L12.1621 180.862L18.9084 187.589L36.0397 170.439L53.1711 187.589L59.9174 180.862Z" fill="#F65570"/>
<path d="M59.9174 210.432L36.0397 186.527L12.1621 210.432L18.9084 217.186L36.0397 200.035L53.1711 217.186L59.9174 210.432Z" fill="#F65570"/>
<path d="M112.666 11.8982L22.5234 101.938L112.666 191.977L202.809 101.938L112.666 11.8982ZM52.5907 101.938L112.666 41.931L172.741 101.938L112.666 161.944L52.5907 101.938Z" fill="#C4233E"/>
</svg>
