<svg xmlns="http://www.w3.org/2000/svg" fill="none" viewBox="0 0 266 376" width="100%" height="100%"><path fill="#22b0c3" d="M202.658 250.357L236.434 312.946L270.211 250.357L202.658 250.357Z" class="color23C473 svgShape"></path><path fill="#208e9c" d="M169.278 187.355L203.054 249.944L236.83 187.355L169.278 187.355Z" class="color1FAD66 svgShape"></path><path fill="#22b0c3" d="M135.105 125.178L101.329 62.5891L67.5528 125.178L135.105 125.178Z" class="color23C473 svgShape"></path><path fill="#22b0c3" d="M168.313 63.4809L134.537 0.8916L100.761 63.4809L168.313 63.4809Z" class="color23C473 svgShape"></path><path fill="#208e9c" d="M67.5528 125.178L101.329 187.768L135.105 125.178L67.5528 125.178Z" class="color1FAD66 svgShape"></path><path fill="#b6f3fb" d="M134.958 125.178L168.734 187.768L202.511 125.178L134.958 125.178Z" class="colorB6FBD9 svgShape"></path><path fill="#208e9c" d="M100.761 63.4808L134.537 126.07 168.313 63.4808 100.761 63.4808zM67.5525.000213623L-.0001297.00021067 33.7762 62.5895 67.5525.000213623z" class="color1FAD66 svgShape"></path><path fill="#55e3f6" d="M236.434 312.946L304.013 312.946L270.21 250.357L236.434 312.946Z" class="color3CDC8C svgShape"></path><path fill="#22b0c3" d="M33.7761 62.5893L101.329 62.5893L67.5523 -3.1994e-05L33.7761 62.5893Z" class="color23C473 svgShape"></path><path fill="#55e3f6" d="M236.434 62.589L202.658 125.178 270.211 125.178 236.434 62.589zM202.047.8916L168.27 63.4809 235.823 63.4809 202.047.8916z" class="color3CDC8C svgShape"></path></svg>