<svg xmlns="http://www.w3.org/2000/svg" fill="none" viewBox="0 0 304 188" width="100%" height="100%"><path fill="#22b0c3" d="M67.5398 125.178L33.7635 62.5891L-0.012782 125.178L67.5398 125.178Z" class="color23C473 svgShape"></path><path fill="#22b0c3" d="M100.748 63.4809L66.9713 0.8916L33.195 63.4809L100.748 63.4809Z" class="color23C473 svgShape"></path><path fill="#208e9c" d="M-0.0127792 125.178L33.7635 187.768L67.5398 125.178L-0.0127792 125.178Z" class="color1FAD66 svgShape"></path><path fill="#b6f3fb" d="M67.3925 125.178L101.169 187.768L134.945 125.178L67.3925 125.178Z" class="colorB6FBD9 svgShape"></path><path fill="#208e9c" d="M33.195 63.4807L66.9712 126.07L100.748 63.4807L33.195 63.4807Z" class="color1FAD66 svgShape"></path><path fill="#55e3f6" d="M236.447 187.768L304 187.768 270.224 125.178 236.447 187.768zM168.869 62.5891L135.092 125.178 202.645 125.178 168.869 62.5891zM134.481.8916L100.705 63.4809 168.257 63.4809 134.481.8916z" class="color3CDC8C svgShape"></path><path fill="#22b0c3" d="M202.645 125.178L270.224 125.178L236.448 62.5889L202.645 125.178Z" class="color23C473 svgShape"></path></svg>