<svg xmlns="http://www.w3.org/2000/svg" fill="none" viewBox="0 0 495 612" width="100%" height="100%"><path fill="#55e3f6" d="M82.6578 534.901L41.4684 611.227L123.847 611.227L82.6578 534.901Z" class="color55F6A6 svgShape"></path><path fill="#208e9c" d="M41.4684 458.575L82.6578 534.901L123.847 458.575L41.4684 458.575Z" class="color1FAD66 svgShape"></path><path fill="#22b0c3" d="M0.278843 534.901L82.6577 534.901L41.4683 458.575L0.278843 534.901Z" class="color23C473 svgShape"></path><path fill="#3ccadd" d="M0.278603 76.9783L41.4681 153.304L82.6575 76.9783L0.278603 76.9783Z" class="color3CDC8C svgShape"></path><path fill="#22b0c3" d="M247.416 534.901L288.605 611.227L329.795 534.901L247.416 534.901Z" class="color23C473 svgShape"></path><path fill="#208e9c" d="M165.037 534.901L206.226 611.227 247.416 534.901 165.037 534.901zM206.71 458.071L247.899 534.397 289.089 458.071 206.71 458.071z" class="color1FAD66 svgShape"></path><path fill="#b6f3fb" d="M123.847 153.305L41.4684 153.305 82.6578 229.596 123.847 153.305zM287.86 153.305L205.481 153.305 246.67 229.596 287.86 153.305z" class="colorB6FBD9 svgShape"></path><path fill="#22b0c3" d="M165.037 382.248L123.848 305.922L82.6583 382.248L165.037 382.248Z" class="color23C473 svgShape"></path><path fill="#22b0c3" d="M205.533 307.01L164.344 230.684 123.154 307.01 205.533 307.01zM328.409 229.461L287.219 153.135 246.03 229.461 328.409 229.461z" class="color23C473 svgShape"></path><path fill="#208e9c" d="M82.6583 382.248L123.848 458.575L165.037 382.248L82.6583 382.248Z" class="color1FAD66 svgShape"></path><path fill="#b6f3fb" d="M164.858 382.248L206.047 458.575L247.236 382.248L164.858 382.248Z" class="colorB6FBD9 svgShape"></path><path fill="#208e9c" d="M123.154 307.01L164.344 383.336L205.533 307.01L123.154 307.01Z" class="color1FAD66 svgShape"></path><path fill="#3ccadd" d="M412.206 534.901L453.395 611.227 494.585 534.901 412.206 534.901zM371.016 458.575L412.205 534.901 453.395 458.575 371.016 458.575zM371.016 458.575L453.395 458.575 412.205 382.248 371.016 458.575z" class="color3CDC8C svgShape"></path><path fill="#208e9c" d="M82.6575 229.597L0.278603 229.597L41.4681 305.923L82.6575 229.597Z" class="color1FAD66 svgShape"></path><path fill="#3ccadd" d="M288.605 611.227L371.016 611.227L329.795 534.901L288.605 611.227Z" class="color3CDC8C svgShape"></path><path fill="#22b0c3" d="M165.037 76.9783L123.847 153.304 206.226 153.304 165.037 76.9783zM41.4684 305.923L123.847 305.923 82.6578 229.596 41.4684 305.923z" class="color23C473 svgShape"></path><path fill="#55e3f6" d="M123.848 611.227L206.227 611.227L165.037 534.901L123.848 611.227Z" class="color55F6A6 svgShape"></path><path fill="#22b0c3" d="M288.605 0.652584L329.795 76.9788L371.016 0.652588L288.605 0.652584Z" class="color23C473 svgShape"></path><path fill="#3ccadd" d="M288.606 305.922L247.416 382.248 329.795 382.248 288.606 305.922zM246.67 230.684L205.481 307.01 287.86 307.01 246.67 230.684z" class="color3CDC8C svgShape"></path><path fill="#22b0c3" d="M329.794 382.248L412.206 382.248L371.016 305.922L329.794 382.248Z" class="color23C473 svgShape"></path><path fill="#208e9c" d="M371.016 0.652586L329.795 76.9788L412.206 76.9788L371.016 0.652586Z" class="color1FAD66 svgShape"></path><path fill="#22b0c3" d="M412.206 76.9783L371.016 153.304L453.395 153.304L412.206 76.9783Z" class="color23C473 svgShape"></path></svg>