<svg width="32" height="32" viewBox="0 0 32 32" fill="none" xmlns="http://www.w3.org/2000/svg">
<path d="M26.0512 15.5489L16.4512 5.94892C16.2016 5.69932 15.7952 5.69932 15.5456 5.94892L5.94561 15.5489C5.82721 15.6673 5.76001 15.8305 5.76001 16.0001V25.6001C5.76001 25.9553 6.04801 26.2401 6.40001 26.2401H13.44C13.792 26.2401 14.08 25.9553 14.08 25.6001V19.2001H17.92V25.6001C17.92 25.9553 18.208 26.2401 18.56 26.2401H25.6C25.952 26.2401 26.24 25.9553 26.24 25.6001V16.0001C26.24 15.8305 26.1728 15.6673 26.0512 15.5489ZM24.96 24.9601H19.2V18.5601C19.2 18.2049 18.912 17.9201 18.56 17.9201H13.44C13.088 17.9201 12.8 18.2049 12.8 18.5601V24.9601H7.04001V16.2657L16 7.30572L24.96 16.2657V24.9601Z" fill="#1FAD66"/>
</svg>
