<svg width="32" height="32" viewBox="0 0 32 32" fill="none" xmlns="http://www.w3.org/2000/svg">
<path d="M25.0688 20.48L23.04 18.4512C22.2912 17.7024 21.0752 17.7024 20.3264 18.4512L19.5744 19.2C19.3248 19.4496 18.9184 19.4496 18.6688 19.2L12.8 13.3312C12.5504 13.0816 12.5504 12.6752 12.8 12.4256L13.5488 11.6768C14.2976 10.928 14.2976 9.71203 13.5488 8.96323L11.52 6.93123C10.7712 6.18243 9.5552 6.18243 8.8064 6.93123L8.2112 7.52643C5.9648 9.77283 5.9648 13.4272 8.2112 15.6736L16.3296 23.792C17.4528 24.9152 18.928 25.4752 20.4032 25.4752C21.8784 25.4752 23.3536 24.9152 24.4768 23.792L25.072 23.1968C25.8176 22.448 25.8176 21.2288 25.0688 20.48ZM24.1632 22.2912L23.568 22.8864C21.8208 24.6336 18.9792 24.6336 17.232 22.8864L9.1136 14.7648C7.3664 13.0176 7.3664 10.176 9.1136 8.42883L9.7088 7.83363C9.8336 7.70883 9.9968 7.64803 10.16 7.64803C10.3232 7.64803 10.4864 7.70883 10.6112 7.83363L12.64 9.86243C12.8896 10.112 12.8896 10.5184 12.64 10.768L11.8944 11.52C11.1456 12.2688 11.1456 13.4848 11.8944 14.2336L17.7632 20.1024C18.512 20.8512 19.728 20.8512 20.4768 20.1024L21.2256 19.3536C21.4752 19.104 21.8816 19.104 22.1312 19.3536L24.16 21.3824C24.4128 21.6352 24.4128 22.0416 24.1632 22.2912Z" fill="#1FAD66"/>
</svg>
