<svg width="32" height="32" viewBox="0 0 32 32" fill="none" xmlns="http://www.w3.org/2000/svg">
<path d="M13.2512 21.5712L10.0512 24.7712C9.9264 24.896 9.7632 24.96 9.6 24.96C9.4368 24.96 9.2736 24.896 9.1488 24.7712L7.2288 22.8512C6.9792 22.6016 6.9792 22.1952 7.2288 21.9456C7.4784 21.696 7.8848 21.696 8.1344 21.9456L9.6 23.4144L12.3488 20.6656C12.5984 20.416 13.0048 20.416 13.2544 20.6656C13.504 20.9152 13.504 21.3216 13.2512 21.5712ZM24.96 13.2896V23.68C24.96 25.0912 23.8112 26.24 22.4 26.24H12.8C12.4448 26.24 12.16 25.952 12.16 25.6C12.16 25.248 12.4448 24.96 12.8 24.96H22.4C23.1072 24.96 23.68 24.3872 23.68 23.68V14.08H19.2C17.7888 14.08 16.64 12.9312 16.64 11.52V7.04001H10.88C10.1728 7.04001 9.6 7.61281 9.6 8.32001V19.84C9.6 20.192 9.3152 20.48 8.96 20.48C8.6048 20.48 8.32 20.192 8.32 19.84V8.32001C8.32 6.90881 9.4688 5.76001 10.88 5.76001H17.36C18.0384 5.76001 18.6752 6.02241 19.1584 6.49601L24.1984 11.4656C24.6816 11.9456 24.96 12.6112 24.96 13.2896ZM19.2 12.8H23.5808C23.5168 12.6432 23.4208 12.4992 23.2992 12.3776L18.2592 7.40801C18.16 7.30881 18.0448 7.23521 17.92 7.17441V11.52C17.92 12.2272 18.4928 12.8 19.2 12.8Z" fill="#1FAD66"/>
</svg>
