<svg width="32" height="32" viewBox="0 0 32 32" fill="none" xmlns="http://www.w3.org/2000/svg">
<path d="M23.68 5.76001H8.31999C6.90879 5.76001 5.75999 6.90881 5.75999 8.32001V23.68C5.75999 25.0912 6.90879 26.24 8.31999 26.24H23.68C25.0912 26.24 26.24 25.0912 26.24 23.68V8.32001C26.24 6.90881 25.0912 5.76001 23.68 5.76001ZM24.96 23.68C24.96 24.3872 24.3872 24.96 23.68 24.96H8.31999C7.61279 24.96 7.03999 24.3872 7.03999 23.68V8.32001C7.03999 7.61281 7.61279 7.04001 8.31999 7.04001H23.68C24.3872 7.04001 24.96 7.61281 24.96 8.32001V23.68ZM23.04 16C23.04 16.352 22.7552 16.64 22.4 16.64H14.72C14.3648 16.64 14.08 16.352 14.08 16C14.08 15.648 14.3648 15.36 14.72 15.36H22.4C22.7552 15.36 23.04 15.648 23.04 16ZM12.16 16C12.16 16.352 11.8752 16.64 11.52 16.64H9.59999C9.24479 16.64 8.95999 16.352 8.95999 16C8.95999 15.648 9.24479 15.36 9.59999 15.36H11.52C11.8752 15.36 12.16 15.648 12.16 16ZM23.04 19.2C23.04 19.552 22.7552 19.84 22.4 19.84H14.72C14.3648 19.84 14.08 19.552 14.08 19.2C14.08 18.848 14.3648 18.56 14.72 18.56H22.4C22.7552 18.56 23.04 18.848 23.04 19.2ZM12.16 19.2C12.16 19.552 11.8752 19.84 11.52 19.84H9.59999C9.24479 19.84 8.95999 19.552 8.95999 19.2C8.95999 18.848 9.24479 18.56 9.59999 18.56H11.52C11.8752 18.56 12.16 18.848 12.16 19.2ZM23.04 12.8C23.04 13.152 22.7552 13.44 22.4 13.44H14.72C14.3648 13.44 14.08 13.152 14.08 12.8C14.08 12.448 14.3648 12.16 14.72 12.16H22.4C22.7552 12.16 23.04 12.448 23.04 12.8ZM12.16 12.8C12.16 13.152 11.8752 13.44 11.52 13.44H9.59999C9.24479 13.44 8.95999 13.152 8.95999 12.8C8.95999 12.448 9.24479 12.16 9.59999 12.16H11.52C11.8752 12.16 12.16 12.448 12.16 12.8Z" fill="#1FAD66"/>
</svg>
