<svg width="32" height="32" viewBox="0 0 32 32" fill="none" xmlns="http://www.w3.org/2000/svg">
<path d="M21.12 16C21.12 16.352 20.832 16.64 20.48 16.64H11.52C11.168 16.64 10.88 16.352 10.88 16C10.88 15.648 11.168 15.36 11.52 15.36H20.48C20.832 15.36 21.12 15.648 21.12 16ZM18.56 18.56H11.52C11.168 18.56 10.88 18.848 10.88 19.2C10.88 19.552 11.168 19.84 11.52 19.84H18.56C18.912 19.84 19.2 19.552 19.2 19.2C19.2 18.848 18.912 18.56 18.56 18.56ZM20.48 12.16H11.52C11.168 12.16 10.88 12.448 10.88 12.8C10.88 13.152 11.168 13.44 11.52 13.44H20.48C20.832 13.44 21.12 13.152 21.12 12.8C21.12 12.448 20.832 12.16 20.48 12.16ZM24.32 8.32001V23.68C24.32 25.0912 23.1712 26.24 21.76 26.24H10.24C8.82879 26.24 7.67999 25.0912 7.67999 23.68V8.32001C7.67999 6.90881 8.82879 5.76001 10.24 5.76001H21.76C23.1712 5.76001 24.32 6.90881 24.32 8.32001ZM23.04 8.32001C23.04 7.61281 22.4672 7.04001 21.76 7.04001H10.24C9.53279 7.04001 8.95999 7.61281 8.95999 8.32001V23.68C8.95999 24.3872 9.53279 24.96 10.24 24.96H21.76C22.4672 24.96 23.04 24.3872 23.04 23.68V8.32001Z" fill="#1FAD66"/>
</svg>
